<svg width="451" height="80" viewBox="0 0 451 80" fill="none" xmlns="http://www.w3.org/2000/svg">
<path d="M9.52441 58.016H7.31641V68H3.21241V58.016H1.72441V54.608H3.21241V54.224C3.21241 52.576 3.68441 51.328 4.62841 50.48C5.57241 49.616 6.95641 49.184 8.78041 49.184C9.08441 49.184 9.30841 49.192 9.45241 49.208V52.688C8.66841 52.64 8.11641 52.752 7.79641 53.024C7.47641 53.296 7.31641 53.784 7.31641 54.488V54.608H9.52441V58.016ZM15.5568 56.84C16.0368 56.104 16.6368 55.528 17.3568 55.112C18.0768 54.68 18.8768 54.464 19.7568 54.464V58.808H18.6288C17.6048 58.808 16.8368 59.032 16.3248 59.48C15.8128 59.912 15.5568 60.68 15.5568 61.784V68H11.4528V54.608H15.5568V56.84ZM27.8145 68.192C26.5025 68.192 25.3185 67.912 24.2625 67.352C23.2225 66.792 22.3985 65.992 21.7905 64.952C21.1985 63.912 20.9025 62.696 20.9025 61.304C20.9025 59.928 21.2065 58.72 21.8145 57.68C22.4225 56.624 23.2545 55.816 24.3105 55.256C25.3665 54.696 26.5505 54.416 27.8625 54.416C29.1745 54.416 30.3585 54.696 31.4145 55.256C32.4705 55.816 33.3025 56.624 33.9105 57.68C34.5185 58.72 34.8225 59.928 34.8225 61.304C34.8225 62.68 34.5105 63.896 33.8865 64.952C33.2785 65.992 32.4385 66.792 31.3665 67.352C30.3105 67.912 29.1265 68.192 27.8145 68.192ZM27.8145 64.64C28.5985 64.64 29.2625 64.352 29.8065 63.776C30.3665 63.2 30.6465 62.376 30.6465 61.304C30.6465 60.232 30.3745 59.408 29.8305 58.832C29.3025 58.256 28.6465 57.968 27.8625 57.968C27.0625 57.968 26.3985 58.256 25.8705 58.832C25.3425 59.392 25.0785 60.216 25.0785 61.304C25.0785 62.376 25.3345 63.2 25.8465 63.776C26.3745 64.352 27.0305 64.64 27.8145 64.64ZM54.0877 54.464C55.7517 54.464 57.0717 54.968 58.0477 55.976C59.0397 56.984 59.5357 58.384 59.5357 60.176V68H55.4557V60.728C55.4557 59.864 55.2237 59.2 54.7597 58.736C54.3117 58.256 53.6877 58.016 52.8877 58.016C52.0877 58.016 51.4557 58.256 50.9917 58.736C50.5437 59.2 50.3197 59.864 50.3197 60.728V68H46.2397V60.728C46.2397 59.864 46.0077 59.2 45.5437 58.736C45.0957 58.256 44.4717 58.016 43.6717 58.016C42.8717 58.016 42.2397 58.256 41.7757 58.736C41.3277 59.2 41.1037 59.864 41.1037 60.728V68H36.9997V54.608H41.1037V56.288C41.5197 55.728 42.0637 55.288 42.7357 54.968C43.4077 54.632 44.1677 54.464 45.0157 54.464C46.0237 54.464 46.9197 54.68 47.7037 55.112C48.5037 55.544 49.1277 56.16 49.5757 56.96C50.0397 56.224 50.6717 55.624 51.4717 55.16C52.2717 54.696 53.1437 54.464 54.0877 54.464ZM74.9559 64.52V68H72.8679C71.3799 68 70.2199 67.64 69.3879 66.92C68.5559 66.184 68.1399 64.992 68.1399 63.344V58.016H66.5079V54.608H68.1399V51.344H72.2439V54.608H74.9319V58.016H72.2439V63.392C72.2439 63.792 72.3399 64.08 72.5319 64.256C72.7239 64.432 73.0439 64.52 73.4919 64.52H74.9559ZM85.4739 54.464C87.0099 54.464 88.2419 54.976 89.1699 56C90.0979 57.008 90.5619 58.4 90.5619 60.176V68H86.4819V60.728C86.4819 59.832 86.2499 59.136 85.7859 58.64C85.3219 58.144 84.6979 57.896 83.9139 57.896C83.1299 57.896 82.5059 58.144 82.0419 58.64C81.5779 59.136 81.3459 59.832 81.3459 60.728V68H77.2419V50.24H81.3459V56.408C81.7619 55.816 82.3299 55.344 83.0499 54.992C83.7699 54.64 84.5779 54.464 85.4739 54.464ZM106.038 61.088C106.038 61.472 106.014 61.872 105.966 62.288H96.6778C96.7418 63.12 97.0058 63.76 97.4698 64.208C97.9498 64.64 98.5338 64.856 99.2218 64.856C100.246 64.856 100.958 64.424 101.358 63.56H105.726C105.502 64.44 105.094 65.232 104.502 65.936C103.926 66.64 103.198 67.192 102.318 67.592C101.438 67.992 100.454 68.192 99.3658 68.192C98.0538 68.192 96.8858 67.912 95.8618 67.352C94.8378 66.792 94.0378 65.992 93.4618 64.952C92.8858 63.912 92.5978 62.696 92.5978 61.304C92.5978 59.912 92.8778 58.696 93.4378 57.656C94.0138 56.616 94.8138 55.816 95.8378 55.256C96.8618 54.696 98.0378 54.416 99.3658 54.416C100.662 54.416 101.814 54.688 102.822 55.232C103.83 55.776 104.614 56.552 105.174 57.56C105.75 58.568 106.038 59.744 106.038 61.088ZM101.838 60.008C101.838 59.304 101.598 58.744 101.118 58.328C100.638 57.912 100.038 57.704 99.3178 57.704C98.6298 57.704 98.0458 57.904 97.5658 58.304C97.1018 58.704 96.8138 59.272 96.7018 60.008H101.838ZM112.473 61.304C112.473 59.912 112.753 58.696 113.313 57.656C113.889 56.616 114.681 55.816 115.689 55.256C116.713 54.696 117.881 54.416 119.193 54.416C120.873 54.416 122.273 54.856 123.393 55.736C124.529 56.616 125.273 57.856 125.625 59.456H121.257C120.889 58.432 120.177 57.92 119.121 57.92C118.369 57.92 117.769 58.216 117.321 58.808C116.873 59.384 116.649 60.216 116.649 61.304C116.649 62.392 116.873 63.232 117.321 63.824C117.769 64.4 118.369 64.688 119.121 64.688C120.177 64.688 120.889 64.176 121.257 63.152H125.625C125.273 64.72 124.529 65.952 123.393 66.848C122.257 67.744 120.857 68.192 119.193 68.192C117.881 68.192 116.713 67.912 115.689 67.352C114.681 66.792 113.889 65.992 113.313 64.952C112.753 63.912 112.473 62.696 112.473 61.304ZM133.916 68.192C132.604 68.192 131.42 67.912 130.364 67.352C129.324 66.792 128.5 65.992 127.892 64.952C127.3 63.912 127.004 62.696 127.004 61.304C127.004 59.928 127.308 58.72 127.916 57.68C128.524 56.624 129.356 55.816 130.412 55.256C131.468 54.696 132.652 54.416 133.964 54.416C135.276 54.416 136.46 54.696 137.516 55.256C138.572 55.816 139.404 56.624 140.012 57.68C140.62 58.72 140.924 59.928 140.924 61.304C140.924 62.68 140.612 63.896 139.988 64.952C139.38 65.992 138.54 66.792 137.468 67.352C136.412 67.912 135.228 68.192 133.916 68.192ZM133.916 64.64C134.7 64.64 135.364 64.352 135.908 63.776C136.468 63.2 136.748 62.376 136.748 61.304C136.748 60.232 136.476 59.408 135.932 58.832C135.404 58.256 134.748 57.968 133.964 57.968C133.164 57.968 132.5 58.256 131.972 58.832C131.444 59.392 131.18 60.216 131.18 61.304C131.18 62.376 131.436 63.2 131.948 63.776C132.476 64.352 133.132 64.64 133.916 64.64ZM160.189 54.464C161.853 54.464 163.173 54.968 164.149 55.976C165.141 56.984 165.637 58.384 165.637 60.176V68H161.557V60.728C161.557 59.864 161.325 59.2 160.861 58.736C160.413 58.256 159.789 58.016 158.989 58.016C158.189 58.016 157.557 58.256 157.093 58.736C156.645 59.2 156.421 59.864 156.421 60.728V68H152.341V60.728C152.341 59.864 152.109 59.2 151.645 58.736C151.197 58.256 150.573 58.016 149.773 58.016C148.973 58.016 148.341 58.256 147.877 58.736C147.429 59.2 147.205 59.864 147.205 60.728V68H143.101V54.608H147.205V56.288C147.621 55.728 148.165 55.288 148.837 54.968C149.509 54.632 150.269 54.464 151.117 54.464C152.125 54.464 153.021 54.68 153.805 55.112C154.605 55.544 155.229 56.16 155.677 56.96C156.141 56.224 156.773 55.624 157.573 55.16C158.373 54.696 159.245 54.464 160.189 54.464ZM175.228 58.016H173.02V68H168.916V58.016H167.428V54.608H168.916V54.224C168.916 52.576 169.388 51.328 170.332 50.48C171.276 49.616 172.66 49.184 174.484 49.184C174.788 49.184 175.012 49.192 175.156 49.208V52.688C174.372 52.64 173.82 52.752 173.5 53.024C173.18 53.296 173.02 53.784 173.02 54.488V54.608H175.228V58.016ZM183.252 68.192C181.94 68.192 180.756 67.912 179.7 67.352C178.66 66.792 177.836 65.992 177.228 64.952C176.636 63.912 176.34 62.696 176.34 61.304C176.34 59.928 176.644 58.72 177.252 57.68C177.86 56.624 178.692 55.816 179.748 55.256C180.804 54.696 181.988 54.416 183.3 54.416C184.612 54.416 185.796 54.696 186.852 55.256C187.908 55.816 188.74 56.624 189.348 57.68C189.956 58.72 190.26 59.928 190.26 61.304C190.26 62.68 189.948 63.896 189.324 64.952C188.716 65.992 187.876 66.792 186.804 67.352C185.748 67.912 184.564 68.192 183.252 68.192ZM183.252 64.64C184.036 64.64 184.7 64.352 185.244 63.776C185.804 63.2 186.084 62.376 186.084 61.304C186.084 60.232 185.812 59.408 185.268 58.832C184.74 58.256 184.084 57.968 183.3 57.968C182.5 57.968 181.836 58.256 181.308 58.832C180.78 59.392 180.516 60.216 180.516 61.304C180.516 62.376 180.772 63.2 181.284 63.776C181.812 64.352 182.468 64.64 183.252 64.64ZM196.541 56.84C197.021 56.104 197.621 55.528 198.341 55.112C199.061 54.68 199.861 54.464 200.741 54.464V58.808H199.613C198.589 58.808 197.821 59.032 197.309 59.48C196.797 59.912 196.541 60.68 196.541 61.784V68H192.437V54.608H196.541V56.84ZM210.167 64.52V68H208.079C206.591 68 205.431 67.64 204.599 66.92C203.767 66.184 203.351 64.992 203.351 63.344V58.016H201.719V54.608H203.351V51.344H207.455V54.608H210.143V58.016H207.455V63.392C207.455 63.792 207.551 64.08 207.743 64.256C207.935 64.432 208.255 64.52 208.703 64.52H210.167ZM223.635 68.192C222.323 68.192 221.139 67.912 220.083 67.352C219.043 66.792 218.219 65.992 217.611 64.952C217.019 63.912 216.723 62.696 216.723 61.304C216.723 59.928 217.027 58.72 217.635 57.68C218.243 56.624 219.075 55.816 220.131 55.256C221.187 54.696 222.371 54.416 223.683 54.416C224.995 54.416 226.179 54.696 227.235 55.256C228.291 55.816 229.123 56.624 229.731 57.68C230.339 58.72 230.643 59.928 230.643 61.304C230.643 62.68 230.331 63.896 229.707 64.952C229.099 65.992 228.259 66.792 227.187 67.352C226.131 67.912 224.947 68.192 223.635 68.192ZM223.635 64.64C224.419 64.64 225.083 64.352 225.627 63.776C226.187 63.2 226.467 62.376 226.467 61.304C226.467 60.232 226.195 59.408 225.651 58.832C225.123 58.256 224.467 57.968 223.683 57.968C222.883 57.968 222.219 58.256 221.691 58.832C221.163 59.392 220.899 60.216 220.899 61.304C220.899 62.376 221.155 63.2 221.667 63.776C222.195 64.352 222.851 64.64 223.635 64.64ZM239.54 58.016H237.332V68H233.228V58.016H231.74V54.608H233.228V54.224C233.228 52.576 233.7 51.328 234.644 50.48C235.588 49.616 236.972 49.184 238.796 49.184C239.1 49.184 239.324 49.192 239.468 49.208V52.688C238.684 52.64 238.132 52.752 237.812 53.024C237.492 53.296 237.332 53.784 237.332 54.488V54.608H239.54V58.016ZM260.234 54.608L251.834 74.36H247.418L250.49 67.544L245.042 54.608H249.626L252.722 62.984L255.794 54.608H260.234ZM267.814 68.192C266.502 68.192 265.318 67.912 264.262 67.352C263.222 66.792 262.398 65.992 261.79 64.952C261.198 63.912 260.902 62.696 260.902 61.304C260.902 59.928 261.206 58.72 261.814 57.68C262.422 56.624 263.254 55.816 264.31 55.256C265.366 54.696 266.55 54.416 267.862 54.416C269.174 54.416 270.358 54.696 271.414 55.256C272.47 55.816 273.302 56.624 273.91 57.68C274.518 58.72 274.822 59.928 274.822 61.304C274.822 62.68 274.51 63.896 273.886 64.952C273.278 65.992 272.438 66.792 271.366 67.352C270.31 67.912 269.126 68.192 267.814 68.192ZM267.814 64.64C268.598 64.64 269.262 64.352 269.806 63.776C270.366 63.2 270.646 62.376 270.646 61.304C270.646 60.232 270.374 59.408 269.83 58.832C269.302 58.256 268.646 57.968 267.862 57.968C267.062 57.968 266.398 58.256 265.87 58.832C265.342 59.392 265.078 60.216 265.078 61.304C265.078 62.376 265.334 63.2 265.846 63.776C266.374 64.352 267.03 64.64 267.814 64.64ZM290.224 54.608V68H286.12V66.176C285.704 66.768 285.136 67.248 284.416 67.616C283.712 67.968 282.928 68.144 282.064 68.144C281.04 68.144 280.136 67.92 279.352 67.472C278.568 67.008 277.96 66.344 277.528 65.48C277.096 64.616 276.88 63.6 276.88 62.432V54.608H280.96V61.88C280.96 62.776 281.192 63.472 281.656 63.968C282.12 64.464 282.744 64.712 283.528 64.712C284.328 64.712 284.96 64.464 285.424 63.968C285.888 63.472 286.12 62.776 286.12 61.88V54.608H290.224ZM297.276 56.84C297.756 56.104 298.356 55.528 299.076 55.112C299.796 54.68 300.596 54.464 301.476 54.464V58.808H300.348C299.324 58.808 298.556 59.032 298.044 59.48C297.532 59.912 297.276 60.68 297.276 61.784V68H293.172V54.608H297.276V56.84ZM316.755 54.464C318.291 54.464 319.523 54.976 320.451 56C321.379 57.008 321.843 58.4 321.843 60.176V68H317.763V60.728C317.763 59.832 317.531 59.136 317.067 58.64C316.603 58.144 315.979 57.896 315.195 57.896C314.411 57.896 313.787 58.144 313.323 58.64C312.859 59.136 312.627 59.832 312.627 60.728V68H308.523V50.24H312.627V56.408C313.043 55.816 313.611 55.344 314.331 54.992C315.051 54.64 315.859 54.464 316.755 54.464ZM330.791 68.192C329.479 68.192 328.295 67.912 327.239 67.352C326.199 66.792 325.375 65.992 324.767 64.952C324.175 63.912 323.879 62.696 323.879 61.304C323.879 59.928 324.183 58.72 324.791 57.68C325.399 56.624 326.231 55.816 327.287 55.256C328.343 54.696 329.527 54.416 330.839 54.416C332.151 54.416 333.335 54.696 334.391 55.256C335.447 55.816 336.279 56.624 336.887 57.68C337.495 58.72 337.799 59.928 337.799 61.304C337.799 62.68 337.487 63.896 336.863 64.952C336.255 65.992 335.415 66.792 334.343 67.352C333.287 67.912 332.103 68.192 330.791 68.192ZM330.791 64.64C331.575 64.64 332.239 64.352 332.783 63.776C333.343 63.2 333.623 62.376 333.623 61.304C333.623 60.232 333.351 59.408 332.807 58.832C332.279 58.256 331.623 57.968 330.839 57.968C330.039 57.968 329.375 58.256 328.847 58.832C328.319 59.392 328.055 60.216 328.055 61.304C328.055 62.376 328.311 63.2 328.823 63.776C329.351 64.352 330.007 64.64 330.791 64.64ZM357.064 54.464C358.728 54.464 360.048 54.968 361.024 55.976C362.016 56.984 362.512 58.384 362.512 60.176V68H358.432V60.728C358.432 59.864 358.2 59.2 357.736 58.736C357.288 58.256 356.664 58.016 355.864 58.016C355.064 58.016 354.432 58.256 353.968 58.736C353.52 59.2 353.296 59.864 353.296 60.728V68H349.216V60.728C349.216 59.864 348.984 59.2 348.52 58.736C348.072 58.256 347.448 58.016 346.648 58.016C345.848 58.016 345.216 58.256 344.752 58.736C344.304 59.2 344.08 59.864 344.08 60.728V68H339.976V54.608H344.08V56.288C344.496 55.728 345.04 55.288 345.712 54.968C346.384 54.632 347.144 54.464 347.992 54.464C349 54.464 349.896 54.68 350.68 55.112C351.48 55.544 352.104 56.16 352.552 56.96C353.016 56.224 353.648 55.624 354.448 55.16C355.248 54.696 356.12 54.464 357.064 54.464ZM378.007 61.088C378.007 61.472 377.983 61.872 377.935 62.288H368.647C368.711 63.12 368.975 63.76 369.439 64.208C369.919 64.64 370.503 64.856 371.191 64.856C372.215 64.856 372.927 64.424 373.327 63.56H377.695C377.471 64.44 377.063 65.232 376.471 65.936C375.895 66.64 375.167 67.192 374.287 67.592C373.407 67.992 372.423 68.192 371.335 68.192C370.023 68.192 368.855 67.912 367.831 67.352C366.807 66.792 366.007 65.992 365.431 64.952C364.855 63.912 364.567 62.696 364.567 61.304C364.567 59.912 364.847 58.696 365.407 57.656C365.983 56.616 366.783 55.816 367.807 55.256C368.831 54.696 370.007 54.416 371.335 54.416C372.631 54.416 373.783 54.688 374.791 55.232C375.799 55.776 376.583 56.552 377.143 57.56C377.719 58.568 378.007 59.744 378.007 61.088ZM373.807 60.008C373.807 59.304 373.567 58.744 373.087 58.328C372.607 57.912 372.007 57.704 371.287 57.704C370.599 57.704 370.015 57.904 369.535 58.304C369.071 58.704 368.783 59.272 368.671 60.008H373.807Z" fill="#1E3C74"/>
<g filter="url(#filter0_d)">
<path d="M2.83275 30H12.7328C14.4559 30 15.9492 29.7076 17.2128 29.1228C18.4869 28.5275 19.4685 27.6816 20.1578 26.5851C20.8574 25.4782 21.2073 24.1571 21.2073 22.622C21.2073 20.8571 20.7373 19.4316 19.7975 18.3456C18.8576 17.2595 17.5 16.5703 15.7247 16.2778C17.8551 15.1396 18.9203 13.2598 18.9203 10.6386C18.9203 8.46645 18.2101 6.84256 16.7899 5.76693C15.3801 4.6913 13.4377 4.15348 10.9627 4.15348H2.83275V30ZM8.87927 14.1945V8.80585H9.50586C11.8869 8.80585 13.0774 9.68829 13.0774 11.4532C13.0774 13.2807 11.8869 14.1945 9.50586 14.1945H8.87927ZM8.87927 25.332V19.3951H10.6024C11.9913 19.3951 13.046 19.6562 13.7666 20.1783C14.4872 20.7005 14.8475 21.4524 14.8475 22.434C14.8475 24.366 13.4324 25.332 10.6024 25.332H8.87927ZM32.6265 30.5013C34.3496 30.5013 35.9108 30.1305 37.3102 29.3891C38.72 28.6372 39.8009 27.6085 40.5528 26.3032L36.4486 24.2511C35.8743 24.8777 35.3208 25.3215 34.7882 25.5826C34.2661 25.8437 33.6551 25.9742 32.9555 25.9742C31.8172 25.9742 30.9138 25.687 30.2455 25.1127C29.5876 24.5278 29.2586 23.7446 29.2586 22.763H40.8034C40.8347 22.4184 40.8504 22.1886 40.8504 22.0737C40.8608 21.9589 40.8661 21.8335 40.8661 21.6978C40.8661 20.0687 40.511 18.638 39.8009 17.4057C39.0907 16.163 38.1039 15.197 36.8403 14.5078C35.5871 13.8081 34.1251 13.4582 32.4542 13.4582C30.752 13.4582 29.2116 13.8342 27.8331 14.5861C26.4651 15.338 25.379 16.3562 24.5749 17.6407C23.7708 18.9252 23.3687 20.3663 23.3687 21.9641C23.3687 23.5828 23.776 25.0396 24.5906 26.3345C25.4051 27.619 26.5069 28.6372 27.8958 29.3891C29.2952 30.1305 30.8721 30.5013 32.6265 30.5013ZM29.4309 19.8807C29.4831 19.1288 29.7651 18.544 30.2768 18.1263C30.7885 17.6981 31.4725 17.484 32.3289 17.484C34.0206 17.484 34.9971 18.2829 35.2581 19.8807H29.4309ZM60.1675 30.5013C60.8776 30.5013 61.6034 30.4125 62.3449 30.235C63.0863 30.0574 63.7599 29.8068 64.3656 29.4831L62.9401 24.8934C62.4911 25.2275 62.0368 25.3946 61.5773 25.3946C60.7732 25.3946 60.3711 24.8829 60.3711 23.8595V18.2986H63.7233V13.9595H60.3711V7.9443H54.6536V13.9595H52.3195V18.2986H54.6536V24.2824C54.6536 26.2353 55.1392 27.76 56.1104 28.8565C57.0816 29.953 58.4339 30.5013 60.1675 30.5013ZM68.5221 30H74.2396V20.8519C74.2396 19.9851 74.5112 19.275 75.0542 18.7215C75.6077 18.168 76.3439 17.8913 77.2629 17.8913C78.1714 17.8913 78.892 18.1733 79.4246 18.7372C79.9572 19.3011 80.2235 20.0634 80.2235 21.0242V30H85.9411V19.8024C85.9411 18.5701 85.6643 17.4788 85.1108 16.5285C84.5678 15.5677 83.8159 14.8158 82.8551 14.2728C81.9048 13.7297 80.8188 13.4582 79.5969 13.4582C78.5735 13.4582 77.5919 13.6514 76.652 14.0378C75.7225 14.4242 74.9184 14.9411 74.2396 15.5886V3.05696H68.5221V30ZM98.9855 30.5013C100.709 30.5013 102.27 30.1305 103.669 29.3891C105.079 28.6372 106.16 27.6085 106.912 26.3032L102.808 24.2511C102.233 24.8777 101.68 25.3215 101.147 25.5826C100.625 25.8437 100.014 25.9742 99.3144 25.9742C98.1761 25.9742 97.2728 25.687 96.6045 25.1127C95.9465 24.5278 95.6176 23.7446 95.6176 22.763H107.162C107.194 22.4184 107.209 22.1886 107.209 22.0737C107.22 21.9589 107.225 21.8335 107.225 21.6978C107.225 20.0687 106.87 18.638 106.16 17.4057C105.45 16.163 104.463 15.197 103.199 14.5078C101.946 13.8081 100.484 13.4582 98.8132 13.4582C97.1109 13.4582 95.5706 13.8342 94.1921 14.5861C92.8241 15.338 91.738 16.3562 90.9339 17.6407C90.1298 18.9252 89.7277 20.3663 89.7277 21.9641C89.7277 23.5828 90.135 25.0396 90.9496 26.3345C91.7641 27.619 92.8659 28.6372 94.2548 29.3891C95.6541 30.1305 97.231 30.5013 98.9855 30.5013ZM95.7899 19.8807C95.8421 19.1288 96.1241 18.544 96.6358 18.1263C97.1475 17.6981 97.8315 17.484 98.6878 17.484C100.38 17.484 101.356 18.2829 101.617 19.8807H95.7899ZM121.263 30H126.981V18.2986H130.662V13.9595H126.981V10.7796C126.981 9.87104 127.069 9.12437 127.247 8.53955C127.435 7.9443 127.926 7.64668 128.719 7.64668C129.315 7.64668 129.853 7.78244 130.333 8.05395L132.307 4.05949C131.732 3.6 131.027 3.23971 130.192 2.97864C129.367 2.71756 128.537 2.58702 127.701 2.58702C126.375 2.58702 125.226 2.9212 124.255 3.58955C123.294 4.24747 122.553 5.1769 122.031 6.37785C121.519 7.5788 121.263 8.98861 121.263 10.6073V13.9595H118.929V18.2986H121.263V30ZM140.743 30.5013C142.696 30.5013 144.435 29.7807 145.959 28.3396V30H151.677V13.9595H145.959V15.432C145.322 14.8158 144.55 14.3354 143.641 13.9908C142.732 13.6358 141.766 13.4582 140.743 13.4582C139.197 13.4582 137.824 13.8342 136.623 14.5861C135.433 15.3275 134.498 16.3405 133.819 17.625C133.14 18.9095 132.801 20.3506 132.801 21.9484C132.801 23.5984 133.156 25.0709 133.866 26.3658C134.576 27.6503 135.532 28.6633 136.733 29.4047C137.934 30.1358 139.271 30.5013 140.743 30.5013ZM142.466 25.6609C141.422 25.6609 140.555 25.3163 139.866 24.6271C139.177 23.9274 138.832 23.0449 138.832 21.9797C138.832 20.925 139.177 20.0478 139.866 19.3481C140.555 18.6484 141.422 18.2986 142.466 18.2986C143.521 18.2986 144.382 18.6484 145.051 19.3481C145.73 20.0373 146.069 20.9146 146.069 21.9797C146.069 23.0449 145.73 23.9274 145.051 24.6271C144.382 25.3163 143.521 25.6609 142.466 25.6609ZM164.788 30.5013C165.832 30.5013 166.819 30.3551 167.748 30.0627C168.678 29.7703 169.43 29.4152 170.004 28.9975L168.109 25.144C167.837 25.3424 167.487 25.5095 167.059 25.6453C166.642 25.7706 166.187 25.8332 165.696 25.8332C164.495 25.8332 163.535 25.4573 162.814 24.7054C162.104 23.943 161.749 23.0345 161.749 21.9797C161.749 21.374 161.89 20.7788 162.172 20.194C162.464 19.5987 162.903 19.1079 163.488 18.7215C164.073 18.3247 164.798 18.1263 165.665 18.1263C166.657 18.1263 167.472 18.356 168.109 18.8155L170.004 14.962C169.451 14.5339 168.694 14.1788 167.733 13.8968C166.783 13.6044 165.79 13.4582 164.757 13.4582C163.462 13.4582 162.266 13.6932 161.169 14.1631C160.073 14.6226 159.117 15.2544 158.303 16.0585C157.488 16.8627 156.851 17.7764 156.392 18.7998C155.943 19.8233 155.718 20.8884 155.718 21.9954C155.718 23.165 155.958 24.2668 156.439 25.3006C156.919 26.3241 157.577 27.2274 158.412 28.0106C159.248 28.7938 160.214 29.4047 161.31 29.8434C162.407 30.282 163.566 30.5013 164.788 30.5013ZM181.567 30.5013C183.29 30.5013 184.851 30.1305 186.251 29.3891C187.661 28.6372 188.741 27.6085 189.493 26.3032L185.389 24.2511C184.815 24.8777 184.261 25.3215 183.729 25.5826C183.207 25.8437 182.596 25.9742 181.896 25.9742C180.758 25.9742 179.854 25.687 179.186 25.1127C178.528 24.5278 178.199 23.7446 178.199 22.763H189.744C189.775 22.4184 189.791 22.1886 189.791 22.0737C189.801 21.9589 189.807 21.8335 189.807 21.6978C189.807 20.0687 189.452 18.638 188.741 17.4057C188.031 16.163 187.044 15.197 185.781 14.5078C184.528 13.8081 183.066 13.4582 181.395 13.4582C179.693 13.4582 178.152 13.8342 176.774 14.5861C175.406 15.338 174.32 16.3562 173.515 17.6407C172.711 18.9252 172.309 20.3663 172.309 21.9641C172.309 23.5828 172.717 25.0396 173.531 26.3345C174.346 27.619 175.447 28.6372 176.836 29.3891C178.236 30.1305 179.813 30.5013 181.567 30.5013ZM178.371 19.8807C178.424 19.1288 178.706 18.544 179.217 18.1263C179.729 17.6981 180.413 17.484 181.269 17.484C182.961 17.484 183.938 18.2829 184.199 19.8807H178.371ZM211.144 30.5013C212.951 30.5013 214.58 30.141 216.032 29.4204C217.483 28.6894 218.632 27.6869 219.478 26.4128C220.324 25.1283 220.747 23.6506 220.747 21.9797C220.747 20.3089 220.324 18.8364 219.478 17.5623C218.632 16.2778 217.483 15.2753 216.032 14.5547C214.58 13.8237 212.951 13.4582 211.144 13.4582C209.338 13.4582 207.709 13.8237 206.257 14.5547C204.806 15.2753 203.657 16.2778 202.811 17.5623C201.965 18.8364 201.542 20.3089 201.542 21.9797C201.542 23.6506 201.965 25.1283 202.811 26.4128C203.657 27.6869 204.806 28.6894 206.257 29.4204C207.709 30.141 209.338 30.5013 211.144 30.5013ZM211.144 25.6453C210.142 25.6453 209.286 25.3059 208.575 24.6271C207.876 23.9378 207.526 23.0554 207.526 21.9797C207.526 20.8937 207.876 20.0112 208.575 19.3324C209.286 18.6536 210.142 18.3142 211.144 18.3142C212.147 18.3142 212.998 18.6536 213.698 19.3324C214.408 20.0112 214.763 20.8937 214.763 21.9797C214.763 23.0554 214.408 23.9378 213.698 24.6271C212.998 25.3059 212.147 25.6453 211.144 25.6453ZM225.513 30H231.231V18.2986H234.912V13.9595H231.231V10.7796C231.231 9.87104 231.32 9.12437 231.497 8.53955C231.685 7.9443 232.176 7.64668 232.97 7.64668C233.565 7.64668 234.103 7.78244 234.583 8.05395L236.557 4.05949C235.982 3.6 235.277 3.23971 234.442 2.97864C233.617 2.71756 232.787 2.58702 231.951 2.58702C230.625 2.58702 229.476 2.9212 228.505 3.58955C227.544 4.24747 226.803 5.1769 226.281 6.37785C225.769 7.5788 225.513 8.98861 225.513 10.6073V13.9595H223.179V18.2986H225.513V30ZM247.965 30H253.996V4.15348H247.965V30ZM260.226 30H265.943V20.8519C265.943 19.9851 266.215 19.2802 266.758 18.7372C267.311 18.1837 268.048 17.907 268.966 17.907C269.875 17.907 270.596 18.1889 271.128 18.7528C271.661 19.3063 271.927 20.0634 271.927 21.0242V30H277.645V19.8024C277.645 18.5701 277.368 17.4788 276.814 16.5285C276.271 15.5677 275.52 14.8158 274.559 14.2728C273.608 13.7297 272.522 13.4582 271.301 13.4582C270.277 13.4582 269.295 13.6514 268.356 14.0378C267.426 14.4242 266.622 14.9411 265.943 15.5886V13.9595H260.226V30ZM288.814 30.5013C289.524 30.5013 290.25 30.4125 290.991 30.235C291.733 30.0574 292.406 29.8068 293.012 29.4831L291.586 24.8934C291.137 25.2275 290.683 25.3946 290.224 25.3946C289.419 25.3946 289.017 24.8829 289.017 23.8595V18.2986H292.37V13.9595H289.017V7.9443H283.3V13.9595H280.966V18.2986H283.3V24.2824C283.3 26.2353 283.785 27.76 284.757 28.8565C285.728 29.953 287.08 30.5013 288.814 30.5013ZM304.954 30.5013C306.677 30.5013 308.238 30.1305 309.637 29.3891C311.047 28.6372 312.128 27.6085 312.88 26.3032L308.776 24.2511C308.201 24.8777 307.648 25.3215 307.115 25.5826C306.593 25.8437 305.982 25.9742 305.283 25.9742C304.144 25.9742 303.241 25.687 302.573 25.1127C301.915 24.5278 301.586 23.7446 301.586 22.763H313.131C313.162 22.4184 313.178 22.1886 313.178 22.0737C313.188 21.9589 313.193 21.8335 313.193 21.6978C313.193 20.0687 312.838 18.638 312.128 17.4057C311.418 16.163 310.431 15.197 309.167 14.5078C307.914 13.8081 306.452 13.4582 304.781 13.4582C303.079 13.4582 301.539 13.8342 300.16 14.5861C298.792 15.338 297.706 16.3562 296.902 17.6407C296.098 18.9252 295.696 20.3663 295.696 21.9641C295.696 23.5828 296.103 25.0396 296.918 26.3345C297.732 27.619 298.834 28.6372 300.223 29.3891C301.622 30.1305 303.199 30.5013 304.954 30.5013ZM301.758 19.8807C301.81 19.1288 302.092 18.544 302.604 18.1263C303.116 17.6981 303.8 17.484 304.656 17.484C306.348 17.484 307.324 18.2829 307.585 19.8807H301.758ZM317.429 30H323.147V21.6195C323.147 21.066 323.309 20.5438 323.633 20.053C323.956 19.5622 324.379 19.1653 324.901 18.8625C325.434 18.5597 325.993 18.4082 326.578 18.4082C327.006 18.4082 327.47 18.4918 327.972 18.6589C328.473 18.8155 328.912 19.0244 329.288 19.2854L331.669 14.4764C331.24 14.1736 330.703 13.9282 330.055 13.7402C329.408 13.5522 328.786 13.4582 328.191 13.4582C327.22 13.4582 326.296 13.7036 325.418 14.1945C324.541 14.6748 323.784 15.3536 323.147 16.2309V13.9595H317.429V30ZM334.08 30H339.798V20.8519C339.798 19.9851 340.069 19.2802 340.612 18.7372C341.166 18.1837 341.902 17.907 342.821 17.907C343.73 17.907 344.45 18.1889 344.983 18.7528C345.516 19.3063 345.782 20.0634 345.782 21.0242V30H351.499V19.8024C351.499 18.5701 351.223 17.4788 350.669 16.5285C350.126 15.5677 349.374 14.8158 348.413 14.2728C347.463 13.7297 346.377 13.4582 345.155 13.4582C344.132 13.4582 343.15 13.6514 342.21 14.0378C341.281 14.4242 340.477 14.9411 339.798 15.5886V13.9595H334.08V30ZM361.289 30.5013C363.66 30.5013 365.493 30.0261 366.787 29.0758C368.082 28.1255 368.73 26.7574 368.73 24.9717C368.73 24.0214 368.558 23.259 368.213 22.6847C367.868 22.0998 367.398 21.6299 366.803 21.2748C366.208 20.9198 365.534 20.6117 364.782 20.3506C364.344 20.194 363.858 20.0165 363.326 19.818C362.803 19.6092 362.349 19.3794 361.963 19.1288C361.587 18.8782 361.399 18.6014 361.399 18.2986C361.399 18.0166 361.54 17.7816 361.822 17.5937C362.114 17.4057 362.506 17.3117 362.997 17.3117C363.947 17.3117 365.158 17.6772 366.631 18.4082L368.479 14.6644C366.265 13.8812 364.422 13.4896 362.95 13.4896C361.582 13.4896 360.37 13.7193 359.315 14.1788C358.261 14.6278 357.436 15.2492 356.84 16.0429C356.245 16.8365 355.948 17.7555 355.948 18.7998C355.948 19.6248 356.125 20.3036 356.48 20.8362C356.846 21.3688 357.316 21.8074 357.89 22.1521C358.464 22.4967 359.075 22.81 359.723 23.0919C360.788 23.541 361.556 23.8804 362.025 24.1101C362.495 24.3294 362.73 24.6845 362.73 25.1753C362.73 25.9272 362.255 26.3032 361.305 26.3032C360 26.3032 358.611 25.7027 357.138 24.5017L354.82 28.4022C356.365 29.8016 358.522 30.5013 361.289 30.5013ZM373.134 30H378.852V20.8519C378.852 19.9851 379.123 19.275 379.666 18.7215C380.22 18.168 380.956 17.8913 381.875 17.8913C382.783 17.8913 383.504 18.1733 384.037 18.7372C384.569 19.3011 384.836 20.0634 384.836 21.0242V30H390.553V19.8024C390.553 18.5701 390.276 17.4788 389.723 16.5285C389.18 15.5677 388.428 14.8158 387.467 14.2728C386.517 13.7297 385.431 13.4582 384.209 13.4582C383.186 13.4582 382.204 13.6514 381.264 14.0378C380.335 14.4242 379.53 14.9411 378.852 15.5886V3.05696H373.134V30ZM402.47 30.5013C404.422 30.5013 406.161 29.7807 407.686 28.3396V30H413.403V13.9595H407.686V15.432C407.049 14.8158 406.276 14.3354 405.368 13.9908C404.459 13.6358 403.493 13.4582 402.47 13.4582C400.924 13.4582 399.551 13.8342 398.35 14.5861C397.159 15.3275 396.225 16.3405 395.546 17.625C394.867 18.9095 394.528 20.3506 394.528 21.9484C394.528 23.5984 394.883 25.0709 395.593 26.3658C396.303 27.6503 397.259 28.6633 398.459 29.4047C399.66 30.1358 400.997 30.5013 402.47 30.5013ZM404.193 25.6609C403.148 25.6609 402.282 25.3163 401.592 24.6271C400.903 23.9274 400.559 23.0449 400.559 21.9797C400.559 20.925 400.903 20.0478 401.592 19.3481C402.282 18.6484 403.148 18.2986 404.193 18.2986C405.247 18.2986 406.109 18.6484 406.777 19.3481C407.456 20.0373 407.796 20.9146 407.796 21.9797C407.796 23.0449 407.456 23.9274 406.777 24.6271C406.109 25.3163 405.247 25.6609 404.193 25.6609ZM418.98 30H424.697V3.05696H418.98V30ZM436.934 30.5013C438.887 30.5013 440.626 29.7807 442.15 28.3396V30H447.868V13.9595H442.15V15.432C441.513 14.8158 440.741 14.3354 439.832 13.9908C438.924 13.6358 437.958 13.4582 436.934 13.4582C435.389 13.4582 434.015 13.8342 432.814 14.5861C431.624 15.3275 430.689 16.3405 430.01 17.625C429.332 18.9095 428.992 20.3506 428.992 21.9484C428.992 23.5984 429.347 25.0709 430.057 26.3658C430.767 27.6503 431.723 28.6633 432.924 29.4047C434.125 30.1358 435.462 30.5013 436.934 30.5013ZM438.657 25.6609C437.613 25.6609 436.746 25.3163 436.057 24.6271C435.368 23.9274 435.023 23.0449 435.023 21.9797C435.023 20.925 435.368 20.0478 436.057 19.3481C436.746 18.6484 437.613 18.2986 438.657 18.2986C439.712 18.2986 440.574 18.6484 441.242 19.3481C441.921 20.0373 442.26 20.9146 442.26 21.9797C442.26 23.0449 441.921 23.9274 441.242 24.6271C440.574 25.3163 439.712 25.6609 438.657 25.6609Z" fill="#1E3C74"/>
<path d="M2.83275 30H2.47674V30.356H2.83275V30ZM17.2128 29.1228L17.3623 29.4459L17.3635 29.4453L17.2128 29.1228ZM20.1578 26.5851L19.8568 26.3949L19.8563 26.3957L20.1578 26.5851ZM19.7975 18.3456L19.5283 18.5785L19.7975 18.3456ZM15.7247 16.2778L15.5569 15.9638L14.6311 16.4585L15.6668 16.6291L15.7247 16.2778ZM16.7899 5.76693L16.5739 6.04997L16.5749 6.05073L16.7899 5.76693ZM2.83275 4.15348V3.79747H2.47674V4.15348H2.83275ZM8.87927 14.1945H8.52326V14.5505H8.87927V14.1945ZM8.87927 8.80585V8.44984H8.52326V8.80585H8.87927ZM8.87927 25.332H8.52326V25.688H8.87927V25.332ZM8.87927 19.3951V19.0391H8.52326V19.3951H8.87927ZM2.83275 30.356H12.7328V29.644H2.83275V30.356ZM12.7328 30.356C14.4955 30.356 16.0421 30.0569 17.3623 29.4459L17.0633 28.7997C15.8563 29.3583 14.4162 29.644 12.7328 29.644V30.356ZM17.3635 29.4453C18.694 28.8237 19.7304 27.934 20.4592 26.7746L19.8563 26.3957C19.2066 27.4293 18.2797 28.2314 17.0621 28.8002L17.3635 29.4453ZM20.4587 26.7753C21.2002 25.6023 21.5633 24.2127 21.5633 22.622H20.8513C20.8513 24.1016 20.5147 25.3541 19.8568 26.3949L20.4587 26.7753ZM21.5633 22.622C21.5633 20.7919 21.0746 19.2773 20.0667 18.1126L19.5283 18.5785C20.4001 19.586 20.8513 20.9223 20.8513 22.622H21.5633ZM20.0667 18.1126C19.0597 16.949 17.6186 16.229 15.7825 15.9266L15.6668 16.6291C17.3814 16.9115 18.6555 17.57 19.5283 18.5785L20.0667 18.1126ZM15.8925 16.5918C17.0099 15.9948 17.8614 15.1951 18.4311 14.1898C18.9999 13.1861 19.2763 11.9977 19.2763 10.6386H18.5642C18.5642 11.9007 18.308 12.9628 17.8116 13.8388C17.3161 14.7132 16.5699 15.4226 15.5569 15.9638L15.8925 16.5918ZM19.2763 10.6386C19.2763 8.38226 18.5336 6.64098 17.0048 5.48312L16.5749 6.05073C17.8866 7.04415 18.5642 8.55064 18.5642 10.6386H19.2763ZM17.0058 5.48389C15.5136 4.34538 13.4855 3.79747 10.9627 3.79747V4.50949C13.3899 4.50949 15.2465 5.03721 16.5739 6.04997L17.0058 5.48389ZM10.9627 3.79747H2.83275V4.50949H10.9627V3.79747ZM2.47674 4.15348V30H3.18877V4.15348H2.47674ZM9.23529 14.1945V8.80585H8.52326V14.1945H9.23529ZM8.87927 9.16187H9.50586V8.44984H8.87927V9.16187ZM9.50586 9.16187C10.6628 9.16187 11.4658 9.37809 11.9725 9.75369C12.4593 10.1145 12.7214 10.6592 12.7214 11.4532H13.4334C13.4334 10.4823 13.1002 9.70331 12.3965 9.18167C11.7127 8.67483 10.7299 8.44984 9.50586 8.44984V9.16187ZM12.7214 11.4532C12.7214 12.2831 12.4559 12.852 11.9677 13.2267C11.4617 13.6151 10.6608 13.8384 9.50586 13.8384V14.5505C10.7319 14.5505 11.7168 14.3169 12.4013 13.7916C13.1036 13.2525 13.4334 12.4507 13.4334 11.4532H12.7214ZM9.50586 13.8384H8.87927V14.5505H9.50586V13.8384ZM9.23529 25.332V19.3951H8.52326V25.332H9.23529ZM8.87927 19.7511H10.6024V19.0391H8.87927V19.7511ZM10.6024 19.7511C11.9555 19.7511 12.9234 20.0069 13.5577 20.4666L13.9755 19.89C13.1687 19.3054 12.0271 19.0391 10.6024 19.0391V19.7511ZM13.5577 20.4666C14.1753 20.9142 14.4915 21.5528 14.4915 22.434H15.2035C15.2035 21.3519 14.799 20.4868 13.9755 19.89L13.5577 20.4666ZM14.4915 22.434C14.4915 23.2999 14.1822 23.9061 13.5855 24.3134C12.9643 24.7375 11.988 24.9759 10.6024 24.9759V25.688C12.0468 25.688 13.193 25.4435 13.9869 24.9015C14.8052 24.3429 15.2035 23.5001 15.2035 22.434H14.4915ZM10.6024 24.9759H8.87927V25.688H10.6024V24.9759ZM37.3102 29.3891L37.4769 29.7037L37.4777 29.7032L37.3102 29.3891ZM40.5528 26.3032L40.8613 26.4809L41.0497 26.1536L40.712 25.9847L40.5528 26.3032ZM36.4487 24.2511L36.6079 23.9327L36.3677 23.8126L36.1862 24.0105L36.4487 24.2511ZM34.7882 25.5826L34.6315 25.2629L34.629 25.2642L34.7882 25.5826ZM30.2455 25.1127L30.0089 25.3788L30.0134 25.3827L30.2455 25.1127ZM29.2586 22.763V22.407H28.9026V22.763H29.2586ZM40.8034 22.763V23.119H41.1285L41.1579 22.7952L40.8034 22.763ZM40.8504 22.0737L40.4958 22.0415L40.4944 22.0576V22.0737H40.8504ZM39.8009 17.4057L39.4918 17.5823L39.4924 17.5835L39.8009 17.4057ZM36.8403 14.5078L36.6667 14.8186L36.6698 14.8203L36.8403 14.5078ZM27.8331 14.5861L27.6627 14.2735L27.6617 14.2741L27.8331 14.5861ZM24.5906 26.3345L24.2892 26.5241L24.2899 26.5252L24.5906 26.3345ZM27.8958 29.3891L27.7263 29.7022L27.7291 29.7037L27.8958 29.3891ZM29.4309 19.8807L29.0758 19.856L29.0493 20.2367H29.4309V19.8807ZM30.2768 18.1263L30.502 18.4021L30.5053 18.3993L30.2768 18.1263ZM35.2581 19.8807V20.2367H35.677L35.6095 19.8233L35.2581 19.8807ZM32.6265 30.8573C34.4025 30.8573 36.0217 30.4747 37.4769 29.7037L37.1435 29.0745C35.7999 29.7864 34.2967 30.1453 32.6265 30.1453V30.8573ZM37.4777 29.7032C38.9427 28.9219 40.074 27.8476 40.8613 26.4809L40.2443 26.1255C39.5277 27.3695 38.4974 28.3524 37.1427 29.075L37.4777 29.7032ZM40.712 25.9847L36.6079 23.9327L36.2894 24.5695L40.3936 26.6216L40.712 25.9847ZM36.1862 24.0105C35.6299 24.6174 35.111 25.0279 34.6315 25.2629L34.9449 25.9023C35.5306 25.6151 36.1186 25.138 36.7111 24.4917L36.1862 24.0105ZM34.629 25.2642C34.1652 25.4961 33.6107 25.6182 32.9555 25.6182V26.3302C33.6995 26.3302 34.367 26.1913 34.9474 25.901L34.629 25.2642ZM32.9555 25.6182C31.8769 25.6182 31.0644 25.347 30.4775 24.8427L30.0134 25.3827C30.7633 26.0271 31.7574 26.3302 32.9555 26.3302V25.6182ZM30.482 24.8466C29.9093 24.3375 29.6146 23.656 29.6146 22.763H28.9026C28.9026 23.8332 29.2658 24.7182 30.009 25.3787L30.482 24.8466ZM29.2586 23.119H40.8034V22.407H29.2586V23.119ZM41.1579 22.7952C41.189 22.4533 41.2064 22.2075 41.2064 22.0737H40.4944C40.4944 22.1697 40.4804 22.3834 40.4488 22.7307L41.1579 22.7952ZM41.2049 22.106C41.2165 21.9787 41.2221 21.8425 41.2221 21.6978H40.51C40.51 21.8246 40.5052 21.939 40.4958 22.0415L41.2049 22.106ZM41.2221 21.6978C41.2221 20.0155 40.8549 18.5217 40.1093 17.2279L39.4924 17.5835C40.1671 18.7542 40.51 20.1219 40.51 21.6978H41.2221ZM40.11 17.2291C39.3669 15.9287 38.3319 14.9158 37.0107 14.1952L36.6698 14.8203C37.8758 15.4781 38.8146 16.3972 39.4918 17.5823L40.11 17.2291ZM37.0138 14.1969C35.6995 13.4631 34.1758 13.1022 32.4542 13.1022V13.8142C34.0744 13.8142 35.4747 14.1531 36.6667 14.8186L37.0138 14.1969ZM32.4542 13.1022C30.6975 13.1022 29.0978 13.4907 27.6627 14.2735L28.0036 14.8986C29.3255 14.1776 30.8064 13.8142 32.4542 13.8142V13.1022ZM27.6617 14.2741C26.2421 15.0543 25.1105 16.1142 24.2732 17.4518L24.8767 17.8296C25.6476 16.5981 26.6881 15.6216 28.0046 14.8981L27.6617 14.2741ZM24.2732 17.4518C23.4316 18.796 23.0127 20.3033 23.0127 21.9641H23.7248C23.7248 20.4293 24.11 19.0543 24.8767 17.8296L24.2732 17.4518ZM23.0127 21.9641C23.0127 23.6458 23.4368 25.169 24.2892 26.5241L24.8919 26.1449C24.1152 24.9101 23.7248 23.5198 23.7248 21.9641H23.0127ZM24.2899 26.5252C25.1383 27.863 26.2861 28.9225 27.7263 29.7022L28.0653 29.076C26.7277 28.3519 25.672 27.375 24.8912 26.1438L24.2899 26.5252ZM27.7291 29.7037C29.1852 30.4752 30.8203 30.8573 32.6265 30.8573V30.1453C30.9238 30.1453 29.4051 29.7859 28.0625 29.0745L27.7291 29.7037ZM29.7861 19.9054C29.8325 19.2363 30.0774 18.7486 30.5019 18.4021L30.0517 17.8505C29.4528 18.3394 29.1337 19.0212 29.0758 19.856L29.7861 19.9054ZM30.5053 18.3993C30.9366 18.0384 31.5319 17.84 32.3289 17.84V17.128C31.4132 17.128 30.6405 17.3578 30.0484 17.8532L30.5053 18.3993ZM32.3289 17.84C33.1206 17.84 33.6988 18.0267 34.1046 18.3587C34.5084 18.6891 34.7862 19.1999 34.9068 19.9381L35.6095 19.8233C35.469 18.9637 35.1281 18.2762 34.5555 17.8076C33.9849 17.3408 33.2289 17.128 32.3289 17.128V17.84ZM35.2581 19.5247H29.4309V20.2367H35.2581V19.5247ZM62.3449 30.235L62.4278 30.5812L62.3449 30.235ZM64.3656 29.4831L64.5334 29.797L64.7928 29.6584L64.7056 29.3775L64.3656 29.4831ZM62.9401 24.8934L63.2801 24.7878L63.131 24.3076L62.7276 24.6077L62.9401 24.8934ZM60.3711 18.2986V17.9426H60.0151V18.2986H60.3711ZM63.7233 18.2986V18.6546H64.0793V18.2986H63.7233ZM63.7233 13.9595H64.0793V13.6035H63.7233V13.9595ZM60.3711 13.9595H60.0151V14.3155H60.3711V13.9595ZM60.3711 7.9443H60.7271V7.58829H60.3711V7.9443ZM54.6536 7.9443V7.58829H54.2975V7.9443H54.6536ZM54.6536 13.9595V14.3155H55.0096V13.9595H54.6536ZM52.3195 13.9595V13.6035H51.9635V13.9595H52.3195ZM52.3195 18.2986H51.9635V18.6546H52.3195V18.2986ZM54.6536 18.2986H55.0096V17.9426H54.6536V18.2986ZM56.1104 28.8565L55.8439 29.0925L56.1104 28.8565ZM60.1675 30.8573C60.9075 30.8573 61.6611 30.7648 62.4278 30.5812L62.262 29.8887C61.5457 30.0602 60.8477 30.1453 60.1675 30.1453V30.8573ZM62.4278 30.5812C63.1956 30.3974 63.8981 30.1366 64.5334 29.797L64.1978 29.1691C63.6216 29.477 62.9771 29.7175 62.262 29.8887L62.4278 30.5812ZM64.7056 29.3775L63.2801 24.7878L62.6001 24.9989L64.0256 29.5887L64.7056 29.3775ZM62.7276 24.6077C62.3262 24.9064 61.9447 25.0386 61.5773 25.0386V25.7506C62.1288 25.7506 62.6559 25.5487 63.1527 25.179L62.7276 24.6077ZM61.5773 25.0386C61.2561 25.0386 61.0703 24.9407 60.9526 24.7909C60.822 24.6247 60.7271 24.3343 60.7271 23.8595H60.0151C60.0151 24.4081 60.1212 24.8853 60.3927 25.2308C60.6771 25.5927 61.0944 25.7506 61.5773 25.7506V25.0386ZM60.7271 23.8595V18.2986H60.0151V23.8595H60.7271ZM60.3711 18.6546H63.7233V17.9426H60.3711V18.6546ZM64.0793 18.2986V13.9595H63.3673V18.2986H64.0793ZM63.7233 13.6035H60.3711V14.3155H63.7233V13.6035ZM60.7271 13.9595V7.9443H60.0151V13.9595H60.7271ZM60.3711 7.58829H54.6536V8.30031H60.3711V7.58829ZM54.2975 7.9443V13.9595H55.0096V7.9443H54.2975ZM54.6536 13.6035H52.3195V14.3155H54.6536V13.6035ZM51.9635 13.9595V18.2986H52.6755V13.9595H51.9635ZM52.3195 18.6546H54.6536V17.9426H52.3195V18.6546ZM54.2975 18.2986V24.2824H55.0096V18.2986H54.2975ZM54.2975 24.2824C54.2975 26.2929 54.7981 27.9118 55.8439 29.0925L56.3769 28.6204C55.4802 27.6081 55.0096 26.1777 55.0096 24.2824H54.2975ZM55.8439 29.0925C56.8951 30.2795 58.3525 30.8573 60.1675 30.8573V30.1453C58.5153 30.1453 57.268 29.6266 56.3769 28.6204L55.8439 29.0925ZM68.5221 30H68.1661V30.356H68.5221V30ZM74.2396 30V30.356H74.5956V30H74.2396ZM75.0542 18.7215L74.8024 18.4698L74.8001 18.4722L75.0542 18.7215ZM80.2235 30H79.8675V30.356H80.2235V30ZM85.9411 30V30.356H86.2971V30H85.9411ZM85.1108 16.5285L84.8009 16.7037L84.8032 16.7077L85.1108 16.5285ZM82.8551 14.2728L82.6785 14.5819L82.68 14.5827L82.8551 14.2728ZM76.652 14.0378L76.5166 13.7085L76.5153 13.7091L76.652 14.0378ZM74.2396 15.5886H73.8836V16.4202L74.4854 15.8462L74.2396 15.5886ZM74.2396 3.05696H74.5956V2.70095H74.2396V3.05696ZM68.5221 3.05696V2.70095H68.1661V3.05696H68.5221ZM68.5221 30.356H74.2396V29.644H68.5221V30.356ZM74.5956 30V20.8519H73.8836V30H74.5956ZM74.5956 20.8519C74.5956 20.0664 74.8385 19.4497 75.3083 18.9708L74.8001 18.4722C74.1838 19.1003 73.8836 19.9039 73.8836 20.8519H74.5956ZM75.3059 18.9733C75.7811 18.4981 76.4206 18.2473 77.2629 18.2473V17.5353C76.2672 17.5353 75.4343 17.838 74.8025 18.4698L75.3059 18.9733ZM77.2629 18.2473C78.0918 18.2473 78.712 18.5012 79.1658 18.9816L79.6834 18.4927C79.072 17.8453 78.2511 17.5353 77.2629 17.5353V18.2473ZM79.1658 18.9816C79.6219 19.4646 79.8675 20.1316 79.8675 21.0242H80.5795C80.5795 19.9953 80.2925 19.1376 79.6834 18.4927L79.1658 18.9816ZM79.8675 21.0242V30H80.5795V21.0242H79.8675ZM80.2235 30.356H85.9411V29.644H80.2235V30.356ZM86.2971 30V19.8024H85.5851V30H86.2971ZM86.2971 19.8024C86.2971 18.5149 86.0073 17.3604 85.4185 16.3493L84.8032 16.7077C85.3213 17.5972 85.5851 18.6253 85.5851 19.8024H86.2971ZM85.4208 16.3533C84.8459 15.3362 84.0474 14.5377 83.0303 13.9629L82.68 14.5827C83.5844 15.0939 84.2897 15.7992 84.8009 16.7037L85.4208 16.3533ZM83.0318 13.9637C82.0216 13.3864 80.8733 13.1022 79.5969 13.1022V13.8142C80.7642 13.8142 81.788 14.073 82.6785 14.5819L83.0318 13.9637ZM79.5969 13.1022C78.5274 13.1022 77.4997 13.3044 76.5166 13.7085L76.7873 14.3671C77.684 13.9985 78.6196 13.8142 79.5969 13.8142V13.1022ZM76.5153 13.7091C75.5484 14.111 74.7066 14.6512 73.9939 15.331L74.4854 15.8462C75.1302 15.2311 75.8967 14.7374 76.7886 14.3666L76.5153 13.7091ZM74.5956 15.5886V3.05696H73.8836V15.5886H74.5956ZM74.2396 2.70095H68.5221V3.41297H74.2396V2.70095ZM68.1661 3.05696V30H68.8781V3.05696H68.1661ZM103.669 29.3891L103.836 29.7037L103.837 29.7032L103.669 29.3891ZM106.912 26.3032L107.22 26.4809L107.409 26.1536L107.071 25.9847L106.912 26.3032ZM102.808 24.2511L102.967 23.9327L102.727 23.8126L102.545 24.0105L102.808 24.2511ZM101.147 25.5826L100.99 25.2629L100.988 25.2642L101.147 25.5826ZM96.6045 25.1127L96.3679 25.3788L96.3724 25.3827L96.6045 25.1127ZM95.6176 22.763V22.407H95.2616V22.763H95.6176ZM107.162 22.763V23.119H107.487L107.517 22.7952L107.162 22.763ZM107.209 22.0737L106.855 22.0415L106.853 22.0576V22.0737H107.209ZM106.16 17.4057L105.851 17.5823L105.851 17.5835L106.16 17.4057ZM103.199 14.5078L103.026 14.8186L103.029 14.8203L103.199 14.5078ZM94.1921 14.5861L94.0216 14.2735L94.0206 14.2741L94.1921 14.5861ZM90.9496 26.3345L90.6482 26.5241L90.6489 26.5252L90.9496 26.3345ZM94.2548 29.3891L94.0853 29.7022L94.0881 29.7037L94.2548 29.3891ZM95.7899 19.8807L95.4347 19.856L95.4083 20.2367H95.7899V19.8807ZM96.6358 18.1263L96.8609 18.4021L96.8643 18.3993L96.6358 18.1263ZM101.617 19.8807V20.2367H102.036L101.968 19.8233L101.617 19.8807ZM98.9855 30.8573C100.761 30.8573 102.381 30.4747 103.836 29.7037L103.502 29.0745C102.159 29.7864 100.656 30.1453 98.9855 30.1453V30.8573ZM103.837 29.7032C105.302 28.9219 106.433 27.8476 107.22 26.4809L106.603 26.1255C105.887 27.3695 104.856 28.3524 103.502 29.075L103.837 29.7032ZM107.071 25.9847L102.967 23.9327L102.648 24.5695L106.753 26.6216L107.071 25.9847ZM102.545 24.0105C101.989 24.6174 101.47 25.0279 100.99 25.2629L101.304 25.9023C101.89 25.6151 102.478 25.138 103.07 24.4917L102.545 24.0105ZM100.988 25.2642C100.524 25.4961 99.9697 25.6182 99.3144 25.6182V26.3302C100.059 26.3302 100.726 26.1913 101.306 25.901L100.988 25.2642ZM99.3144 25.6182C98.2359 25.6182 97.4233 25.347 96.8365 24.8427L96.3724 25.3827C97.1223 26.0271 98.1164 26.3302 99.3144 26.3302V25.6182ZM96.841 24.8466C96.2683 24.3375 95.9736 23.656 95.9736 22.763H95.2616C95.2616 23.8332 95.6248 24.7182 96.3679 25.3787L96.841 24.8466ZM95.6176 23.119H107.162V22.407H95.6176V23.119ZM107.517 22.7952C107.548 22.4533 107.565 22.2075 107.565 22.0737H106.853C106.853 22.1697 106.839 22.3834 106.808 22.7307L107.517 22.7952ZM107.564 22.106C107.575 21.9787 107.581 21.8425 107.581 21.6978H106.869C106.869 21.8246 106.864 21.939 106.855 22.0415L107.564 22.106ZM107.581 21.6978C107.581 20.0155 107.214 18.5217 106.468 17.2279L105.851 17.5835C106.526 18.7542 106.869 20.1219 106.869 21.6978H107.581ZM106.469 17.2291C105.726 15.9287 104.691 14.9158 103.37 14.1952L103.029 14.8203C104.235 15.4781 105.174 16.3972 105.851 17.5823L106.469 17.2291ZM103.373 14.1969C102.058 13.4631 100.535 13.1022 98.8132 13.1022V13.8142C100.433 13.8142 101.834 14.1531 103.026 14.8186L103.373 14.1969ZM98.8132 13.1022C97.0565 13.1022 95.4567 13.4907 94.0216 14.2735L94.3626 14.8986C95.6844 14.1776 97.1654 13.8142 98.8132 13.8142V13.1022ZM94.0206 14.2741C92.6011 15.0543 91.4695 16.1142 90.6321 17.4518L91.2356 17.8296C92.0065 16.5981 93.0471 15.6216 94.3636 14.8981L94.0206 14.2741ZM90.6321 17.4518C89.7906 18.796 89.3717 20.3033 89.3717 21.9641H90.0837C90.0837 20.4293 90.469 19.0543 91.2356 17.8296L90.6321 17.4518ZM89.3717 21.9641C89.3717 23.6458 89.7958 25.169 90.6482 26.5241L91.2509 26.1449C90.4742 24.9101 90.0837 23.5198 90.0837 21.9641H89.3717ZM90.6489 26.5252C91.4973 27.863 92.645 28.9225 94.0853 29.7022L94.4243 29.076C93.0867 28.3519 92.0309 27.375 91.2502 26.1438L90.6489 26.5252ZM94.0881 29.7037C95.5442 30.4752 97.1793 30.8573 98.9855 30.8573V30.1453C97.2828 30.1453 95.7641 29.7859 94.4215 29.0745L94.0881 29.7037ZM96.1451 19.9054C96.1915 19.2363 96.4364 18.7486 96.8609 18.4021L96.4107 17.8505C95.8118 18.3394 95.4927 19.0212 95.4347 19.856L96.1451 19.9054ZM96.8643 18.3993C97.2955 18.0384 97.8909 17.84 98.6878 17.84V17.128C97.7721 17.128 96.9995 17.3578 96.4073 17.8532L96.8643 18.3993ZM98.6878 17.84C99.4796 17.84 100.058 18.0267 100.464 18.3587C100.867 18.6891 101.145 19.1999 101.266 19.9381L101.968 19.8233C101.828 18.9637 101.487 18.2762 100.914 17.8076C100.344 17.3408 99.5878 17.128 98.6878 17.128V17.84ZM101.617 19.5247H95.7899V20.2367H101.617V19.5247ZM121.263 30H120.907V30.356H121.263V30ZM126.981 30V30.356H127.337V30H126.981ZM126.981 18.2986V17.9426H126.625V18.2986H126.981ZM130.662 18.2986V18.6546H131.018V18.2986H130.662ZM130.662 13.9595H131.018V13.6035H130.662V13.9595ZM126.981 13.9595H126.625V14.3155H126.981V13.9595ZM127.247 8.53955L126.908 8.43234L126.906 8.43614L127.247 8.53955ZM130.333 8.05395L130.158 8.36389L130.485 8.54907L130.652 8.21166L130.333 8.05395ZM132.307 4.05949L132.626 4.2172L132.753 3.96042L132.529 3.78149L132.307 4.05949ZM130.192 2.97864L130.085 3.31806L130.086 3.31845L130.192 2.97864ZM124.255 3.58955L124.456 3.8833L124.457 3.88283L124.255 3.58955ZM122.031 6.37785L121.704 6.23589L121.703 6.23829L122.031 6.37785ZM121.263 13.9595V14.3155H121.619V13.9595H121.263ZM118.929 13.9595V13.6035H118.573V13.9595H118.929ZM118.929 18.2986H118.573V18.6546H118.929V18.2986ZM121.263 18.2986H121.619V17.9426H121.263V18.2986ZM121.263 30.356H126.981V29.644H121.263V30.356ZM127.337 30V18.2986H126.625V30H127.337ZM126.981 18.6546H130.662V17.9426H126.981V18.6546ZM131.018 18.2986V13.9595H130.306V18.2986H131.018ZM130.662 13.6035H126.981V14.3155H130.662V13.6035ZM127.337 13.9595V10.7796H126.625V13.9595H127.337ZM127.337 10.7796C127.337 9.89079 127.424 9.18222 127.588 8.64297L126.906 8.43614C126.715 9.06651 126.625 9.8513 126.625 10.7796H127.337ZM127.587 8.64676C127.657 8.4237 127.776 8.27429 127.941 8.17431C128.113 8.06979 128.364 8.00269 128.719 8.00269V7.29066C128.281 7.29066 127.89 7.37237 127.572 7.56548C127.246 7.76313 127.025 8.06016 126.908 8.43235L127.587 8.64676ZM128.719 8.00269C129.258 8.00269 129.735 8.12493 130.158 8.36389L130.508 7.74402C129.97 7.43994 129.371 7.29066 128.719 7.29066V8.00269ZM130.652 8.21166L132.626 4.2172L131.988 3.90178L130.014 7.89624L130.652 8.21166ZM132.529 3.78149C131.914 3.28964 131.168 2.91065 130.298 2.63883L130.086 3.31845C130.887 3.56877 131.55 3.91035 132.084 4.33749L132.529 3.78149ZM130.299 2.63922C129.441 2.36754 128.574 2.23101 127.701 2.23101V2.94304C128.499 2.94304 129.293 3.06758 130.085 3.31806L130.299 2.63922ZM127.701 2.23101C126.312 2.23101 125.091 2.58206 124.053 3.29628L124.457 3.88283C125.361 3.26034 126.438 2.94304 127.701 2.94304V2.23101ZM124.054 3.29581C123.031 3.99611 122.25 4.98144 121.704 6.2359L122.357 6.5198C122.856 5.37235 123.557 4.49883 124.456 3.8833L124.054 3.29581ZM121.703 6.23829C121.169 7.49259 120.907 8.95181 120.907 10.6073H121.619C121.619 9.02541 121.869 7.665 122.358 6.5174L121.703 6.23829ZM120.907 10.6073V13.9595H121.619V10.6073H120.907ZM121.263 13.6035H118.929V14.3155H121.263V13.6035ZM118.573 13.9595V18.2986H119.285V13.9595H118.573ZM118.929 18.6546H121.263V17.9426H118.929V18.6546ZM120.907 18.2986V30H121.619V18.2986H120.907ZM145.959 28.3396H146.315V27.5132L145.715 28.0808L145.959 28.3396ZM145.959 30H145.603V30.356H145.959V30ZM151.677 30V30.356H152.033V30H151.677ZM151.677 13.9595H152.033V13.6035H151.677V13.9595ZM145.959 13.9595V13.6035H145.603V13.9595H145.959ZM145.959 15.432L145.712 15.6879L146.315 16.2716V15.432H145.959ZM143.641 13.9908L143.511 14.3224L143.515 14.3237L143.641 13.9908ZM136.623 14.5861L136.811 14.8883L136.812 14.8878L136.623 14.5861ZM133.819 17.625L134.134 17.7913L133.819 17.625ZM133.866 26.3658L133.554 26.537L133.555 26.5381L133.866 26.3658ZM136.733 29.4047L136.546 29.7077L136.548 29.7089L136.733 29.4047ZM139.866 24.6271L139.612 24.8769L139.614 24.8788L139.866 24.6271ZM139.866 19.3481L139.612 19.0983L139.866 19.3481ZM145.051 19.3481L144.793 19.594L144.797 19.5979L145.051 19.3481ZM145.051 24.6271L144.795 24.3792L144.795 24.3792L145.051 24.6271ZM140.743 30.8573C142.794 30.8573 144.618 30.0968 146.204 28.5983L145.715 28.0808C144.251 29.4646 142.598 30.1453 140.743 30.1453V30.8573ZM145.603 28.3396V30H146.315V28.3396H145.603ZM145.959 30.356H151.677V29.644H145.959V30.356ZM152.033 30V13.9595H151.321V30H152.033ZM151.677 13.6035H145.959V14.3155H151.677V13.6035ZM145.603 13.9595V15.432H146.315V13.9595H145.603ZM146.207 15.1761C145.532 14.5232 144.717 14.0181 143.767 13.658L143.515 14.3237C144.382 14.6528 145.113 15.1085 145.712 15.6879L146.207 15.1761ZM143.771 13.6592C142.819 13.2872 141.809 13.1022 140.743 13.1022V13.8142C141.724 13.8142 142.646 13.9843 143.511 14.3224L143.771 13.6592ZM140.743 13.1022C139.137 13.1022 137.697 13.4938 136.434 14.2843L136.812 14.8878C137.951 14.1746 139.258 13.8142 140.743 13.8142V13.1022ZM136.435 14.2839C135.189 15.0599 134.212 16.1206 133.505 17.4587L134.134 17.7913C134.785 16.5604 135.676 15.5952 136.811 14.8883L136.435 14.2839ZM133.505 17.4587C132.796 18.7994 132.445 20.2986 132.445 21.9484H133.157C133.157 20.4027 133.485 19.0196 134.134 17.7913L133.505 17.4587ZM132.445 21.9484C132.445 23.6511 132.812 25.1837 133.554 26.537L134.178 26.1946C133.5 24.9581 133.157 23.5457 133.157 21.9484H132.445ZM133.555 26.5381C134.293 27.8739 135.291 28.9328 136.546 29.7077L136.92 29.1018C135.773 28.3938 134.86 27.4268 134.178 26.1936L133.555 26.5381ZM136.548 29.7089C137.807 30.4755 139.208 30.8573 140.743 30.8573V30.1453C139.333 30.1453 138.06 29.7961 136.918 29.1006L136.548 29.7089ZM142.466 25.3049C141.509 25.3049 140.735 24.9927 140.118 24.3753L139.614 24.8788C140.375 25.6399 141.335 26.0169 142.466 26.0169V25.3049ZM140.119 24.3772C139.502 23.7501 139.188 22.9601 139.188 21.9797H138.476C138.476 23.1297 138.851 24.1047 139.612 24.8769L140.119 24.3772ZM139.188 21.9797C139.188 21.0109 139.501 20.2258 140.119 19.5979L139.612 19.0983C138.852 19.8698 138.476 20.8391 138.476 21.9797H139.188ZM140.119 19.5979C140.737 18.9708 141.51 18.6546 142.466 18.6546V17.9426C141.333 17.9426 140.373 18.326 139.612 19.0983L140.119 19.5979ZM142.466 18.6546C143.433 18.6546 144.199 18.9714 144.793 19.594L145.308 19.1022C144.566 18.3255 143.608 17.9426 142.466 17.9426V18.6546ZM144.797 19.5979C145.403 20.2135 145.713 20.9977 145.713 21.9797H146.425C146.425 20.8314 146.056 19.8612 145.304 19.0983L144.797 19.5979ZM145.713 21.9797C145.713 22.9618 145.403 23.7524 144.795 24.3792L145.306 24.875C146.056 24.1024 146.425 23.1281 146.425 21.9797H145.713ZM144.795 24.3792C144.201 24.9921 143.435 25.3049 142.466 25.3049V26.0169C143.607 26.0169 144.564 25.6405 145.306 24.8749L144.795 24.3792ZM167.748 30.0627L167.855 30.4023L167.748 30.0627ZM170.004 28.9975L170.214 29.2854L170.456 29.1092L170.324 28.8403L170.004 28.9975ZM168.109 25.144L168.428 24.9869L168.241 24.6064L167.899 24.8565L168.109 25.144ZM167.059 25.6453L167.162 25.9863L167.167 25.9846L167.059 25.6453ZM162.814 24.7054L162.554 24.9481L162.557 24.9517L162.814 24.7054ZM162.172 20.194L161.852 20.037L161.851 20.0394L162.172 20.194ZM163.488 18.7215L163.684 19.0186L163.688 19.0161L163.488 18.7215ZM168.109 18.8155L167.9 19.1042L168.242 19.3507L168.428 18.9726L168.109 18.8155ZM170.004 14.962L170.324 15.1192L170.452 14.8583L170.222 14.6804L170.004 14.962ZM167.733 13.8968L167.628 14.2371L167.633 14.2384L167.733 13.8968ZM161.169 14.1631L161.307 14.4915L161.31 14.4904L161.169 14.1631ZM156.392 18.7998L156.067 18.654L156.066 18.6568L156.392 18.7998ZM156.439 25.3006L156.116 25.4507L156.116 25.4519L156.439 25.3006ZM161.31 29.8434L161.443 29.5128L161.31 29.8434ZM164.788 30.8573C165.866 30.8573 166.889 30.7063 167.855 30.4023L167.642 29.7231C166.749 30.0038 165.799 30.1453 164.788 30.1453V30.8573ZM167.855 30.4023C168.809 30.1023 169.599 29.7325 170.214 29.2854L169.795 28.7095C169.261 29.0979 168.547 29.4382 167.642 29.7231L167.855 30.4023ZM170.324 28.8403L168.428 24.9869L167.789 25.3011L169.685 29.1546L170.324 28.8403ZM167.899 24.8565C167.667 25.026 167.355 25.1781 166.952 25.3059L167.167 25.9846C167.62 25.8409 168.008 25.6588 168.319 25.4314L167.899 24.8565ZM166.957 25.3043C166.576 25.4185 166.157 25.4772 165.696 25.4772V26.1892C166.218 26.1892 166.707 26.1227 167.162 25.9862L166.957 25.3043ZM165.696 25.4772C164.576 25.4772 163.714 25.13 163.071 24.4591L162.557 24.9517C163.355 25.7846 164.415 26.1892 165.696 26.1892V25.4772ZM163.075 24.4627C162.427 23.7672 162.105 22.9457 162.105 21.9797H161.393C161.393 23.1233 161.781 24.1189 162.554 24.948L163.075 24.4627ZM162.105 21.9797C162.105 21.4314 162.232 20.8887 162.493 20.3486L161.851 20.0394C161.548 20.6689 161.393 21.3167 161.393 21.9797H162.105ZM162.491 20.351C162.754 19.8158 163.149 19.3721 163.684 19.0186L163.291 18.4245C162.657 18.8437 162.174 19.3817 161.852 20.037L162.491 20.351ZM163.688 19.0161C164.201 18.6676 164.853 18.4823 165.665 18.4823V17.7703C164.743 17.7703 163.944 17.9818 163.288 18.4269L163.688 19.0161ZM165.665 18.4823C166.602 18.4823 167.338 18.6988 167.9 19.1042L168.317 18.5268C167.605 18.0132 166.712 17.7703 165.665 17.7703V18.4823ZM168.428 18.9726L170.324 15.1192L169.685 14.8049L167.789 18.6584L168.428 18.9726ZM170.222 14.6804C169.622 14.2161 168.82 13.8447 167.833 13.5552L167.633 14.2384C168.568 14.5129 169.28 14.8516 169.786 15.2436L170.222 14.6804ZM167.838 13.5566C166.852 13.2533 165.824 13.1022 164.757 13.1022V13.8142C165.756 13.8142 166.713 13.9555 167.628 14.2371L167.838 13.5566ZM164.757 13.1022C163.418 13.1022 162.174 13.3454 161.029 13.8359L161.31 14.4904C162.358 14.041 163.506 13.8142 164.757 13.8142V13.1022ZM161.032 13.8348C159.895 14.3112 158.901 14.9679 158.053 15.8052L158.553 16.3119C159.334 15.541 160.251 14.9341 161.307 14.4915L161.032 13.8348ZM158.053 15.8052C157.207 16.6396 156.545 17.5896 156.067 18.654L156.716 18.9457C157.158 17.9632 157.769 17.0857 158.553 16.3119L158.053 15.8052ZM156.066 18.6568C155.597 19.7249 155.362 20.8387 155.362 21.9954H156.074C156.074 20.9382 156.288 19.9217 156.718 18.9429L156.066 18.6568ZM155.362 21.9954C155.362 23.2155 155.613 24.3686 156.116 25.4506L156.762 25.1506C156.304 24.165 156.074 23.1146 156.074 21.9954H155.362ZM156.116 25.4519C156.616 26.5167 157.301 27.4567 158.169 28.2703L158.656 27.7509C157.853 26.9981 157.222 26.1314 156.761 25.1494L156.116 25.4519ZM158.169 28.2703C159.038 29.0848 160.042 29.7193 161.178 30.1739L161.443 29.5128C160.386 29.0901 159.458 28.5028 158.656 27.7509L158.169 28.2703ZM161.178 30.1739C162.318 30.6299 163.522 30.8573 164.788 30.8573V30.1453C163.61 30.1453 162.496 29.934 161.443 29.5128L161.178 30.1739ZM186.251 29.3891L186.417 29.7037L186.418 29.7032L186.251 29.3891ZM189.493 26.3032L189.802 26.4809L189.99 26.1536L189.653 25.9847L189.493 26.3032ZM185.389 24.2511L185.548 23.9327L185.308 23.8126L185.127 24.0105L185.389 24.2511ZM183.729 25.5826L183.572 25.2629L183.57 25.2642L183.729 25.5826ZM179.186 25.1127L178.949 25.3788L178.954 25.3827L179.186 25.1127ZM178.199 22.763V22.407H177.843V22.763H178.199ZM189.744 22.763V23.119H190.069L190.099 22.7952L189.744 22.763ZM189.791 22.0737L189.436 22.0415L189.435 22.0576V22.0737H189.791ZM188.741 17.4057L188.432 17.5823L188.433 17.5835L188.741 17.4057ZM185.781 14.5078L185.607 14.8186L185.61 14.8203L185.781 14.5078ZM176.774 14.5861L176.603 14.2735L176.602 14.2741L176.774 14.5861ZM173.531 26.3345L173.23 26.5241L173.23 26.5252L173.531 26.3345ZM176.836 29.3891L176.667 29.7022L176.67 29.7037L176.836 29.3891ZM178.371 19.8807L178.016 19.856L177.99 20.2367H178.371V19.8807ZM179.217 18.1263L179.443 18.4021L179.446 18.3993L179.217 18.1263ZM184.199 19.8807V20.2367H184.618L184.55 19.8233L184.199 19.8807ZM181.567 30.8573C183.343 30.8573 184.962 30.4747 186.417 29.7037L186.084 29.0745C184.74 29.7864 183.237 30.1453 181.567 30.1453V30.8573ZM186.418 29.7032C187.883 28.9219 189.015 27.8476 189.802 26.4809L189.185 26.1255C188.468 27.3695 187.438 28.3524 186.083 29.075L186.418 29.7032ZM189.653 25.9847L185.548 23.9327L185.23 24.5695L189.334 26.6216L189.653 25.9847ZM185.127 24.0105C184.57 24.6174 184.052 25.0279 183.572 25.2629L183.885 25.9023C184.471 25.6151 185.059 25.138 185.652 24.4917L185.127 24.0105ZM183.57 25.2642C183.106 25.4961 182.551 25.6182 181.896 25.6182V26.3302C182.64 26.3302 183.308 26.1913 183.888 25.901L183.57 25.2642ZM181.896 25.6182C180.817 25.6182 180.005 25.347 179.418 24.8427L178.954 25.3827C179.704 26.0271 180.698 26.3302 181.896 26.3302V25.6182ZM179.423 24.8466C178.85 24.3375 178.555 23.656 178.555 22.763H177.843C177.843 23.8332 178.206 24.7182 178.95 25.3787L179.423 24.8466ZM178.199 23.119H189.744V22.407H178.199V23.119ZM190.099 22.7952C190.13 22.4533 190.147 22.2075 190.147 22.0737H189.435C189.435 22.1697 189.421 22.3834 189.389 22.7307L190.099 22.7952ZM190.146 22.106C190.157 21.9787 190.163 21.8425 190.163 21.6978H189.451C189.451 21.8246 189.446 21.939 189.436 22.0415L190.146 22.106ZM190.163 21.6978C190.163 20.0155 189.795 18.5217 189.05 17.2279L188.433 17.5835C189.108 18.7542 189.451 20.1219 189.451 21.6978H190.163ZM189.051 17.2291C188.307 15.9287 187.272 14.9158 185.951 14.1952L185.61 14.8203C186.816 15.4781 187.755 16.3972 188.432 17.5823L189.051 17.2291ZM185.954 14.1969C184.64 13.4631 183.116 13.1022 181.395 13.1022V13.8142C183.015 13.8142 184.415 14.1531 185.607 14.8186L185.954 14.1969ZM181.395 13.1022C179.638 13.1022 178.038 13.4907 176.603 14.2735L176.944 14.8986C178.266 14.1776 179.747 13.8142 181.395 13.8142V13.1022ZM176.602 14.2741C175.183 15.0543 174.051 16.1142 173.214 17.4518L173.817 17.8296C174.588 16.5981 175.629 15.6216 176.945 14.8981L176.602 14.2741ZM173.214 17.4518C172.372 18.796 171.953 20.3033 171.953 21.9641H172.665C172.665 20.4293 173.051 19.0543 173.817 17.8296L173.214 17.4518ZM171.953 21.9641C171.953 23.6458 172.377 25.169 173.23 26.5241L173.832 26.1449C173.056 24.9101 172.665 23.5198 172.665 21.9641H171.953ZM173.23 26.5252C174.079 27.863 175.227 28.9225 176.667 29.7022L177.006 29.076C175.668 28.3519 174.613 27.375 173.832 26.1438L173.23 26.5252ZM176.67 29.7037C178.126 30.4752 179.761 30.8573 181.567 30.8573V30.1453C179.864 30.1453 178.346 29.7859 177.003 29.0745L176.67 29.7037ZM178.727 19.9054C178.773 19.2363 179.018 18.7486 179.443 18.4021L178.992 17.8505C178.393 18.3394 178.074 19.0212 178.016 19.856L178.727 19.9054ZM179.446 18.3993C179.877 18.0384 180.472 17.84 181.269 17.84V17.128C180.354 17.128 179.581 17.3578 178.989 17.8532L179.446 18.3993ZM181.269 17.84C182.061 17.84 182.639 18.0267 183.045 18.3587C183.449 18.6891 183.727 19.1999 183.847 19.9381L184.55 19.8233C184.41 18.9637 184.069 18.2762 183.496 17.8076C182.925 17.3408 182.169 17.128 181.269 17.128V17.84ZM184.199 19.5247H178.371V20.2367H184.199V19.5247ZM216.032 29.4204L216.19 29.7393L216.192 29.7384L216.032 29.4204ZM219.478 26.4128L219.775 26.6097L219.775 26.6086L219.478 26.4128ZM219.478 17.5623L219.181 17.7581L219.181 17.7593L219.478 17.5623ZM216.032 14.5547L215.872 14.8727L215.873 14.8736L216.032 14.5547ZM206.257 14.5547L206.415 14.8736L206.417 14.8727L206.257 14.5547ZM202.811 17.5623L203.107 17.7593L203.108 17.7581L202.811 17.5623ZM202.811 26.4128L202.514 26.6086L202.514 26.6097L202.811 26.4128ZM206.257 29.4204L206.097 29.7384L206.099 29.7393L206.257 29.4204ZM208.575 24.6271L208.326 24.8807L208.329 24.8844L208.575 24.6271ZM208.575 19.3324L208.329 19.0751L208.328 19.0769L208.575 19.3324ZM213.698 19.3324L213.45 19.588L213.452 19.5898L213.698 19.3324ZM213.698 24.6271L213.946 24.8826L213.946 24.8825L213.698 24.6271ZM211.144 30.8573C213 30.8573 214.684 30.487 216.19 29.7393L215.873 29.1015C214.477 29.795 212.903 30.1453 211.144 30.1453V30.8573ZM216.192 29.7384C217.695 28.9814 218.892 27.9386 219.775 26.6097L219.181 26.2159C218.372 27.4352 217.272 28.3974 215.872 29.1024L216.192 29.7384ZM219.775 26.6086C220.663 25.261 221.103 23.714 221.103 21.9797H220.391C220.391 23.5873 219.985 24.9957 219.181 26.217L219.775 26.6086ZM221.103 21.9797C221.103 20.2456 220.663 18.7032 219.775 17.3654L219.181 17.7593C219.985 18.9696 220.391 20.3722 220.391 21.9797H221.103ZM219.775 17.3665C218.893 16.0266 217.695 14.9829 216.19 14.2359L215.873 14.8736C217.272 15.5678 218.371 16.5291 219.181 17.7581L219.775 17.3665ZM216.192 14.2368C214.685 13.4781 213 13.1022 211.144 13.1022V13.8142C212.902 13.8142 214.475 14.1694 215.872 14.8727L216.192 14.2368ZM211.144 13.1022C209.288 13.1022 207.604 13.4781 206.097 14.2368L206.417 14.8727C207.814 14.1694 209.387 13.8142 211.144 13.8142V13.1022ZM206.099 14.2359C204.594 14.9829 203.396 16.0266 202.514 17.3665L203.108 17.7581C203.918 16.5291 205.017 15.5678 206.415 14.8736L206.099 14.2359ZM202.514 17.3654C201.626 18.7032 201.186 20.2456 201.186 21.9797H201.898C201.898 20.3722 202.304 18.9696 203.107 17.7593L202.514 17.3654ZM201.186 21.9797C201.186 23.714 201.626 25.261 202.514 26.6086L203.108 26.217C202.304 24.9957 201.898 23.5873 201.898 21.9797H201.186ZM202.514 26.6097C203.397 27.9386 204.594 28.9814 206.097 29.7384L206.417 29.1024C205.017 28.3974 203.917 27.4352 203.107 26.2159L202.514 26.6097ZM206.099 29.7393C207.605 30.487 209.289 30.8573 211.144 30.8573V30.1453C209.386 30.1453 207.812 29.795 206.415 29.1015L206.099 29.7393ZM211.144 25.2892C210.231 25.2892 209.464 24.9837 208.821 24.3697L208.329 24.8844C209.107 25.628 210.052 26.0013 211.144 26.0013V25.2892ZM208.825 24.3734C208.2 23.7578 207.882 22.97 207.882 21.9797H207.17C207.17 23.1407 207.551 24.1178 208.326 24.8807L208.825 24.3734ZM207.882 21.9797C207.882 20.9779 208.201 20.1917 208.823 19.588L208.328 19.0769C207.551 19.8307 207.17 20.8095 207.17 21.9797H207.882ZM208.821 19.5898C209.464 18.9757 210.231 18.6703 211.144 18.6703V17.9582C210.052 17.9582 209.107 18.3315 208.329 19.0751L208.821 19.5898ZM211.144 18.6703C212.057 18.6703 212.819 18.9756 213.45 19.588L213.946 19.0769C213.177 18.3317 212.237 17.9582 211.144 17.9582V18.6703ZM213.452 19.5898C214.084 20.194 214.407 20.9795 214.407 21.9797H215.119C215.119 20.8078 214.732 19.8285 213.944 19.0751L213.452 19.5898ZM214.407 21.9797C214.407 22.9684 214.084 23.7556 213.45 24.3716L213.946 24.8825C214.731 24.12 215.119 23.1424 215.119 21.9797H214.407ZM213.45 24.3715C212.819 24.9839 212.057 25.2892 211.144 25.2892V26.0013C212.237 26.0013 213.177 25.6278 213.946 24.8826L213.45 24.3715ZM225.513 30H225.157V30.356H225.513V30ZM231.231 30V30.356H231.587V30H231.231ZM231.231 18.2986V17.9426H230.875V18.2986H231.231ZM234.912 18.2986V18.6546H235.268V18.2986H234.912ZM234.912 13.9595H235.268V13.6035H234.912V13.9595ZM231.231 13.9595H230.875V14.3155H231.231V13.9595ZM231.497 8.53955L231.158 8.43234L231.156 8.43614L231.497 8.53955ZM234.583 8.05395L234.408 8.36389L234.735 8.54907L234.902 8.21166L234.583 8.05395ZM236.557 4.05949L236.876 4.2172L237.003 3.96042L236.779 3.78149L236.557 4.05949ZM234.442 2.97864L234.335 3.31806L234.336 3.31845L234.442 2.97864ZM228.505 3.58955L228.706 3.8833L228.707 3.88283L228.505 3.58955ZM226.281 6.37785L225.954 6.23589L225.953 6.23829L226.281 6.37785ZM225.513 13.9595V14.3155H225.869V13.9595H225.513ZM223.179 13.9595V13.6035H222.823V13.9595H223.179ZM223.179 18.2986H222.823V18.6546H223.179V18.2986ZM225.513 18.2986H225.869V17.9426H225.513V18.2986ZM225.513 30.356H231.231V29.644H225.513V30.356ZM231.587 30V18.2986H230.875V30H231.587ZM231.231 18.6546H234.912V17.9426H231.231V18.6546ZM235.268 18.2986V13.9595H234.556V18.2986H235.268ZM234.912 13.6035H231.231V14.3155H234.912V13.6035ZM231.587 13.9595V10.7796H230.875V13.9595H231.587ZM231.587 10.7796C231.587 9.89079 231.674 9.18222 231.838 8.64297L231.156 8.43614C230.965 9.06651 230.875 9.8513 230.875 10.7796H231.587ZM231.837 8.64676C231.907 8.4237 232.026 8.27429 232.191 8.17431C232.363 8.06979 232.614 8.00269 232.97 8.00269V7.29066C232.532 7.29066 232.14 7.37237 231.822 7.56548C231.496 7.76313 231.275 8.06016 231.158 8.43235L231.837 8.64676ZM232.97 8.00269C233.508 8.00269 233.985 8.12493 234.408 8.36389L234.758 7.74402C234.22 7.43994 233.621 7.29066 232.97 7.29066V8.00269ZM234.902 8.21166L236.876 4.2172L236.238 3.90178L234.264 7.89624L234.902 8.21166ZM236.779 3.78149C236.164 3.28964 235.418 2.91065 234.548 2.63883L234.336 3.31845C235.137 3.56877 235.8 3.91035 236.334 4.33749L236.779 3.78149ZM234.549 2.63922C233.691 2.36754 232.825 2.23101 231.951 2.23101V2.94304C232.749 2.94304 233.543 3.06758 234.335 3.31806L234.549 2.63922ZM231.951 2.23101C230.562 2.23101 229.341 2.58206 228.303 3.29628L228.707 3.88283C229.612 3.26034 230.688 2.94304 231.951 2.94304V2.23101ZM228.304 3.29581C227.281 3.99611 226.5 4.98144 225.954 6.2359L226.607 6.5198C227.106 5.37235 227.807 4.49883 228.706 3.8833L228.304 3.29581ZM225.953 6.23829C225.419 7.49259 225.157 8.95181 225.157 10.6073H225.869C225.869 9.02541 226.119 7.665 226.608 6.5174L225.953 6.23829ZM225.157 10.6073V13.9595H225.869V10.6073H225.157ZM225.513 13.6035H223.179V14.3155H225.513V13.6035ZM222.823 13.9595V18.2986H223.535V13.9595H222.823ZM223.179 18.6546H225.513V17.9426H223.179V18.6546ZM225.157 18.2986V30H225.869V18.2986H225.157ZM247.965 30H247.609V30.356H247.965V30ZM253.996 30V30.356H254.352V30H253.996ZM253.996 4.15348H254.352V3.79747H253.996V4.15348ZM247.965 4.15348V3.79747H247.609V4.15348H247.965ZM247.965 30.356H253.996V29.644H247.965V30.356ZM254.352 30V4.15348H253.64V30H254.352ZM253.996 3.79747H247.965V4.50949H253.996V3.79747ZM247.609 4.15348V30H248.321V4.15348H247.609ZM260.226 30H259.87V30.356H260.226V30ZM265.943 30V30.356H266.299V30H265.943ZM271.128 18.7528L270.869 18.9973L270.872 18.9997L271.128 18.7528ZM271.927 30H271.571V30.356H271.927V30ZM277.645 30V30.356H278.001V30H277.645ZM276.814 16.5285L276.504 16.7037L276.507 16.7077L276.814 16.5285ZM274.559 14.2728L274.382 14.5819L274.384 14.5827L274.559 14.2728ZM268.356 14.0378L268.22 13.7085L268.219 13.7091L268.356 14.0378ZM265.943 15.5886H265.587V16.4202L266.189 15.8462L265.943 15.5886ZM265.943 13.9595H266.299V13.6035H265.943V13.9595ZM260.226 13.9595V13.6035H259.87V13.9595H260.226ZM260.226 30.356H265.943V29.644H260.226V30.356ZM266.299 30V20.8519H265.587V30H266.299ZM266.299 20.8519C266.299 20.0663 266.542 19.4564 267.01 18.9889L266.506 18.4854C265.887 19.1041 265.587 19.904 265.587 20.8519H266.299ZM267.01 18.9889C267.485 18.5138 268.124 18.263 268.966 18.263V17.5509C267.971 17.5509 267.138 17.8536 266.506 18.4854L267.01 18.9889ZM268.966 18.263C269.795 18.263 270.416 18.5168 270.869 18.9973L271.387 18.5084C270.776 17.861 269.955 17.5509 268.966 17.5509V18.263ZM270.872 18.9997C271.325 19.4712 271.571 20.1313 271.571 21.0242H272.283C272.283 19.9956 271.996 19.1414 271.385 18.506L270.872 18.9997ZM271.571 21.0242V30H272.283V21.0242H271.571ZM271.927 30.356H277.645V29.644H271.927V30.356ZM278.001 30V19.8024H277.289V30H278.001ZM278.001 19.8024C278.001 18.5149 277.711 17.3604 277.122 16.3493L276.507 16.7077C277.025 17.5972 277.289 18.6253 277.289 19.8024H278.001ZM277.124 16.3533C276.549 15.3362 275.751 14.5377 274.734 13.9629L274.384 14.5827C275.288 15.0939 275.993 15.7992 276.505 16.7037L277.124 16.3533ZM274.735 13.9637C273.725 13.3864 272.577 13.1022 271.301 13.1022V13.8142C272.468 13.8142 273.492 14.073 274.382 14.5819L274.735 13.9637ZM271.301 13.1022C270.231 13.1022 269.203 13.3044 268.22 13.7085L268.491 14.3671C269.388 13.9985 270.323 13.8142 271.301 13.8142V13.1022ZM268.219 13.7091C267.252 14.111 266.41 14.6512 265.698 15.331L266.189 15.8462C266.834 15.2311 267.6 14.7374 268.492 14.3666L268.219 13.7091ZM266.299 15.5886V13.9595H265.587V15.5886H266.299ZM265.943 13.6035H260.226V14.3155H265.943V13.6035ZM259.87 13.9595V30H260.582V13.9595H259.87ZM290.991 30.235L291.074 30.5812L290.991 30.235ZM293.012 29.4831L293.18 29.797L293.439 29.6584L293.352 29.3775L293.012 29.4831ZM291.586 24.8934L291.926 24.7878L291.777 24.3076L291.374 24.6077L291.586 24.8934ZM289.017 18.2986V17.9426H288.661V18.2986H289.017ZM292.37 18.2986V18.6546H292.726V18.2986H292.37ZM292.37 13.9595H292.726V13.6035H292.37V13.9595ZM289.017 13.9595H288.661V14.3155H289.017V13.9595ZM289.017 7.9443H289.373V7.58829H289.017V7.9443ZM283.3 7.9443V7.58829H282.944V7.9443H283.3ZM283.3 13.9595V14.3155H283.656V13.9595H283.3ZM280.966 13.9595V13.6035H280.61V13.9595H280.966ZM280.966 18.2986H280.61V18.6546H280.966V18.2986ZM283.3 18.2986H283.656V17.9426H283.3V18.2986ZM284.757 28.8565L284.49 29.0925L284.757 28.8565ZM288.814 30.8573C289.554 30.8573 290.307 30.7648 291.074 30.5812L290.908 29.8887C290.192 30.0602 289.494 30.1453 288.814 30.1453V30.8573ZM291.074 30.5812C291.842 30.3974 292.544 30.1366 293.18 29.797L292.844 29.1691C292.268 29.477 291.623 29.7175 290.908 29.8887L291.074 30.5812ZM293.352 29.3775L291.926 24.7878L291.246 24.9989L292.672 29.5887L293.352 29.3775ZM291.374 24.6077C290.972 24.9064 290.591 25.0386 290.224 25.0386V25.7506C290.775 25.7506 291.302 25.5487 291.799 25.179L291.374 24.6077ZM290.224 25.0386C289.902 25.0386 289.717 24.9407 289.599 24.7909C289.468 24.6247 289.373 24.3343 289.373 23.8595H288.661C288.661 24.4081 288.767 24.8853 289.039 25.2308C289.323 25.5927 289.741 25.7506 290.224 25.7506V25.0386ZM289.373 23.8595V18.2986H288.661V23.8595H289.373ZM289.017 18.6546H292.37V17.9426H289.017V18.6546ZM292.726 18.2986V13.9595H292.014V18.2986H292.726ZM292.37 13.6035H289.017V14.3155H292.37V13.6035ZM289.373 13.9595V7.9443H288.661V13.9595H289.373ZM289.017 7.58829H283.3V8.30031H289.017V7.58829ZM282.944 7.9443V13.9595H283.656V7.9443H282.944ZM283.3 13.6035H280.966V14.3155H283.3V13.6035ZM280.61 13.9595V18.2986H281.322V13.9595H280.61ZM280.966 18.6546H283.3V17.9426H280.966V18.6546ZM282.944 18.2986V24.2824H283.656V18.2986H282.944ZM282.944 24.2824C282.944 26.2929 283.444 27.9118 284.49 29.0925L285.023 28.6204C284.126 27.6081 283.656 26.1777 283.656 24.2824H282.944ZM284.49 29.0925C285.541 30.2795 286.999 30.8573 288.814 30.8573V30.1453C287.162 30.1453 285.914 29.6266 285.023 28.6204L284.49 29.0925ZM309.637 29.3891L309.804 29.7037L309.805 29.7032L309.637 29.3891ZM312.88 26.3032L313.188 26.4809L313.377 26.1536L313.039 25.9847L312.88 26.3032ZM308.776 24.2511L308.935 23.9327L308.695 23.8126L308.513 24.0105L308.776 24.2511ZM307.115 25.5826L306.959 25.2629L306.956 25.2642L307.115 25.5826ZM302.573 25.1127L302.336 25.3788L302.341 25.3827L302.573 25.1127ZM301.586 22.763V22.407H301.23V22.763H301.586ZM313.131 22.763V23.119H313.456L313.485 22.7952L313.131 22.763ZM313.178 22.0737L312.823 22.0415L312.822 22.0576V22.0737H313.178ZM312.128 17.4057L311.819 17.5823L311.82 17.5835L312.128 17.4057ZM309.167 14.5078L308.994 14.8186L308.997 14.8203L309.167 14.5078ZM300.16 14.5861L299.99 14.2735L299.989 14.2741L300.16 14.5861ZM296.918 26.3345L296.616 26.5241L296.617 26.5252L296.918 26.3345ZM300.223 29.3891L300.053 29.7022L300.056 29.7037L300.223 29.3891ZM301.758 19.8807L301.403 19.856L301.376 20.2367H301.758V19.8807ZM302.604 18.1263L302.829 18.4021L302.832 18.3993L302.604 18.1263ZM307.585 19.8807V20.2367H308.004L307.937 19.8233L307.585 19.8807ZM304.954 30.8573C306.73 30.8573 308.349 30.4747 309.804 29.7037L309.471 29.0745C308.127 29.7864 306.624 30.1453 304.954 30.1453V30.8573ZM309.805 29.7032C311.27 28.9219 312.401 27.8476 313.188 26.4809L312.571 26.1255C311.855 27.3695 310.824 28.3524 309.47 29.075L309.805 29.7032ZM313.039 25.9847L308.935 23.9327L308.617 24.5695L312.721 26.6216L313.039 25.9847ZM308.513 24.0105C307.957 24.6174 307.438 25.0279 306.959 25.2629L307.272 25.9023C307.858 25.6151 308.446 25.138 309.038 24.4917L308.513 24.0105ZM306.956 25.2642C306.492 25.4961 305.938 25.6182 305.283 25.6182V26.3302C306.027 26.3302 306.694 26.1913 307.275 25.901L306.956 25.2642ZM305.283 25.6182C304.204 25.6182 303.391 25.347 302.805 24.8427L302.341 25.3827C303.09 26.0271 304.085 26.3302 305.283 26.3302V25.6182ZM302.809 24.8466C302.236 24.3375 301.942 23.656 301.942 22.763H301.23C301.23 23.8332 301.593 24.7182 302.336 25.3787L302.809 24.8466ZM301.586 23.119H313.131V22.407H301.586V23.119ZM313.485 22.7952C313.516 22.4533 313.534 22.2075 313.534 22.0737H312.822C312.822 22.1697 312.808 22.3834 312.776 22.7307L313.485 22.7952ZM313.532 22.106C313.544 21.9787 313.549 21.8425 313.549 21.6978H312.837C312.837 21.8246 312.832 21.939 312.823 22.0415L313.532 22.106ZM313.549 21.6978C313.549 20.0155 313.182 18.5217 312.436 17.2279L311.82 17.5835C312.494 18.7542 312.837 20.1219 312.837 21.6978H313.549ZM312.437 17.2291C311.694 15.9287 310.659 14.9158 309.338 14.1952L308.997 14.8203C310.203 15.4781 311.142 16.3972 311.819 17.5823L312.437 17.2291ZM309.341 14.1969C308.027 13.4631 306.503 13.1022 304.781 13.1022V13.8142C306.401 13.8142 307.802 14.1531 308.994 14.8186L309.341 14.1969ZM304.781 13.1022C303.025 13.1022 301.425 13.4907 299.99 14.2735L300.331 14.8986C301.653 14.1776 303.134 13.8142 304.781 13.8142V13.1022ZM299.989 14.2741C298.569 15.0543 297.438 16.1142 296.6 17.4518L297.204 17.8296C297.975 16.5981 299.015 15.6216 300.332 14.8981L299.989 14.2741ZM296.6 17.4518C295.759 18.796 295.34 20.3033 295.34 21.9641H296.052C296.052 20.4293 296.437 19.0543 297.204 17.8296L296.6 17.4518ZM295.34 21.9641C295.34 23.6458 295.764 25.169 296.616 26.5241L297.219 26.1449C296.442 24.9101 296.052 23.5198 296.052 21.9641H295.34ZM296.617 26.5252C297.465 27.863 298.613 28.9225 300.053 29.7022L300.392 29.076C299.055 28.3519 297.999 27.375 297.218 26.1438L296.617 26.5252ZM300.056 29.7037C301.512 30.4752 303.147 30.8573 304.954 30.8573V30.1453C303.251 30.1453 301.732 29.7859 300.39 29.0745L300.056 29.7037ZM302.113 19.9054C302.16 19.2363 302.405 18.7486 302.829 18.4021L302.379 17.8505C301.78 18.3394 301.461 19.0212 301.403 19.856L302.113 19.9054ZM302.832 18.3993C303.264 18.0384 303.859 17.84 304.656 17.84V17.128C303.74 17.128 302.968 17.3578 302.375 17.8532L302.832 18.3993ZM304.656 17.84C305.448 17.84 306.026 18.0267 306.432 18.3587C306.835 18.6891 307.113 19.1999 307.234 19.9381L307.937 19.8233C307.796 18.9637 307.455 18.2762 306.883 17.8076C306.312 17.3408 305.556 17.128 304.656 17.128V17.84ZM307.585 19.5247H301.758V20.2367H307.585V19.5247ZM317.429 30H317.073V30.356H317.429V30ZM323.147 30V30.356H323.503V30H323.147ZM323.633 20.053L323.335 19.857V19.857L323.633 20.053ZM324.901 18.8625L324.725 18.553L324.723 18.5545L324.901 18.8625ZM327.972 18.6589L327.859 18.9967L327.866 18.9987L327.972 18.6589ZM329.288 19.2854L329.084 19.5779L329.423 19.8133L329.607 19.4434L329.288 19.2854ZM331.669 14.4764L331.988 14.6344L332.123 14.3616L331.874 14.1858L331.669 14.4764ZM330.055 13.7402L330.154 13.3983L330.055 13.7402ZM325.418 14.1945L325.589 14.5067L325.592 14.5051L325.418 14.1945ZM323.147 16.2309H322.791V17.327L323.435 16.44L323.147 16.2309ZM323.147 13.9595H323.503V13.6035H323.147V13.9595ZM317.429 13.9595V13.6035H317.073V13.9595H317.429ZM317.429 30.356H323.147V29.644H317.429V30.356ZM323.503 30V21.6195H322.791V30H323.503ZM323.503 21.6195C323.503 21.1401 323.642 20.6855 323.93 20.249L323.335 19.857C322.976 20.4022 322.791 20.9919 322.791 21.6195H323.503ZM323.93 20.249C324.222 19.8054 324.604 19.4464 325.08 19.1705L324.723 18.5545C324.154 18.8843 323.69 19.3189 323.335 19.857L323.93 20.249ZM325.077 19.172C325.559 18.8981 326.057 18.7642 326.578 18.7642V18.0522C325.928 18.0522 325.309 18.2212 324.725 18.553L325.077 19.172ZM326.578 18.7642C326.96 18.7642 327.386 18.8389 327.859 18.9966L328.084 18.3211C327.555 18.1446 327.052 18.0522 326.578 18.0522V18.7642ZM327.866 18.9987C328.337 19.1461 328.742 19.3402 329.084 19.5779L329.491 18.993C329.081 18.7085 328.609 18.4849 328.078 18.3191L327.866 18.9987ZM329.607 19.4434L331.988 14.6344L331.349 14.3185L328.968 19.1275L329.607 19.4434ZM331.874 14.1858C331.406 13.8546 330.83 13.5943 330.154 13.3983L329.956 14.0821C330.576 14.262 331.075 14.4926 331.463 14.7671L331.874 14.1858ZM330.154 13.3983C329.479 13.2022 328.824 13.1022 328.191 13.1022V13.8142C328.749 13.8142 329.336 13.9023 329.956 14.0821L330.154 13.3983ZM328.191 13.1022C327.157 13.1022 326.173 13.3643 325.245 13.8838L325.592 14.5051C326.418 14.043 327.283 13.8142 328.191 13.8142V13.1022ZM325.247 13.8822C324.32 14.3899 323.524 15.1055 322.859 16.0217L323.435 16.44C324.044 15.6018 324.762 14.9597 325.589 14.5067L325.247 13.8822ZM323.503 16.2309V13.9595H322.791V16.2309H323.503ZM323.147 13.6035H317.429V14.3155H323.147V13.6035ZM317.073 13.9595V30H317.785V13.9595H317.073ZM334.08 30H333.724V30.356H334.08V30ZM339.798 30V30.356H340.154V30H339.798ZM344.983 18.7528L344.724 18.9973L344.726 18.9997L344.983 18.7528ZM345.782 30H345.426V30.356H345.782V30ZM351.499 30V30.356H351.855V30H351.499ZM350.669 16.5285L350.359 16.7037L350.362 16.7077L350.669 16.5285ZM348.413 14.2728L348.237 14.5819L348.238 14.5827L348.413 14.2728ZM342.21 14.0378L342.075 13.7085L342.074 13.7091L342.21 14.0378ZM339.798 15.5886H339.442V16.4202L340.044 15.8462L339.798 15.5886ZM339.798 13.9595H340.154V13.6035H339.798V13.9595ZM334.08 13.9595V13.6035H333.724V13.9595H334.08ZM334.08 30.356H339.798V29.644H334.08V30.356ZM340.154 30V20.8519H339.442V30H340.154ZM340.154 20.8519C340.154 20.0663 340.397 19.4564 340.864 18.9889L340.361 18.4854C339.742 19.1041 339.442 19.904 339.442 20.8519H340.154ZM340.864 18.9889C341.339 18.5138 341.979 18.263 342.821 18.263V17.5509C341.826 17.5509 340.993 17.8536 340.361 18.4854L340.864 18.9889ZM342.821 18.263C343.65 18.263 344.27 18.5168 344.724 18.9973L345.242 18.5084C344.63 17.861 343.809 17.5509 342.821 17.5509V18.263ZM344.726 18.9997C345.18 19.4712 345.426 20.1313 345.426 21.0242H346.138C346.138 19.9956 345.851 19.1414 345.239 18.506L344.726 18.9997ZM345.426 21.0242V30H346.138V21.0242H345.426ZM345.782 30.356H351.499V29.644H345.782V30.356ZM351.855 30V19.8024H351.143V30H351.855ZM351.855 19.8024C351.855 18.5149 351.566 17.3604 350.977 16.3493L350.362 16.7077C350.88 17.5972 351.143 18.6253 351.143 19.8024H351.855ZM350.979 16.3533C350.404 15.3362 349.606 14.5377 348.589 13.9629L348.238 14.5827C349.143 15.0939 349.848 15.7992 350.359 16.7037L350.979 16.3533ZM348.59 13.9637C347.58 13.3864 346.432 13.1022 345.155 13.1022V13.8142C346.322 13.8142 347.346 14.073 348.237 14.5819L348.59 13.9637ZM345.155 13.1022C344.086 13.1022 343.058 13.3044 342.075 13.7085L342.346 14.3671C343.242 13.9985 344.178 13.8142 345.155 13.8142V13.1022ZM342.074 13.7091C341.107 14.111 340.265 14.6512 339.552 15.331L340.044 15.8462C340.689 15.2311 341.455 14.7374 342.347 14.3666L342.074 13.7091ZM340.154 15.5886V13.9595H339.442V15.5886H340.154ZM339.798 13.6035H334.08V14.3155H339.798V13.6035ZM333.724 13.9595V30H334.436V13.9595H333.724ZM366.787 29.0758L366.577 28.7888L366.787 29.0758ZM368.213 22.6847L367.906 22.8654L367.908 22.8678L368.213 22.6847ZM366.803 21.2748L366.986 20.9691L366.803 21.2748ZM364.782 20.3506L364.663 20.6859L364.666 20.6869L364.782 20.3506ZM363.326 19.818L363.193 20.1487L363.201 20.1516L363.326 19.818ZM361.963 19.1288L361.765 19.425L361.769 19.4275L361.963 19.1288ZM361.822 17.5937L361.629 17.2942L361.624 17.2974L361.822 17.5937ZM366.631 18.4082L366.473 18.7271L366.792 18.8858L366.95 18.5658L366.631 18.4082ZM368.479 14.6644L368.798 14.822L368.976 14.4625L368.598 14.3288L368.479 14.6644ZM359.315 14.1788L359.455 14.5064L359.458 14.5052L359.315 14.1788ZM356.84 16.0429L357.125 16.2565V16.2565L356.84 16.0429ZM356.48 20.8362L356.184 21.0337L356.187 21.0377L356.48 20.8362ZM357.89 22.1521L358.073 21.8468L357.89 22.1521ZM359.723 23.0919L359.581 23.4184L359.584 23.42L359.723 23.0919ZM362.025 24.1101L361.869 24.43L361.875 24.4327L362.025 24.1101ZM357.138 24.5017L357.363 24.2259L357.043 23.9648L356.832 24.3198L357.138 24.5017ZM354.82 28.4022L354.514 28.2203L354.365 28.4707L354.581 28.6661L354.82 28.4022ZM361.289 30.8573C363.701 30.8573 365.619 30.3747 366.998 29.3628L366.577 28.7888C365.366 29.6775 363.618 30.1453 361.289 30.1453V30.8573ZM366.998 29.3628C368.396 28.3372 369.086 26.8562 369.086 24.9717H368.374C368.374 26.6587 367.769 27.9137 366.577 28.7888L366.998 29.3628ZM369.086 24.9717C369.086 23.9825 368.907 23.1497 368.518 22.5015L367.908 22.8678C368.208 23.3684 368.374 24.0603 368.374 24.9717H369.086ZM368.52 22.5039C368.144 21.8665 367.631 21.3541 366.986 20.9691L366.621 21.5806C367.166 21.9057 367.593 22.3331 367.906 22.8654L368.52 22.5039ZM366.986 20.9691C366.367 20.6 365.671 20.2822 364.899 20.0143L364.666 20.6869C365.398 20.9412 366.049 21.2396 366.621 21.5806L366.986 20.9691ZM364.902 20.0154C364.465 19.8594 363.981 19.6824 363.45 19.4844L363.201 20.1516C363.735 20.3505 364.222 20.5286 364.663 20.6859L364.902 20.0154ZM363.458 19.4875C362.953 19.2854 362.52 19.0658 362.157 18.8301L361.769 19.4275C362.179 19.6931 362.654 19.9329 363.193 20.1486L363.458 19.4875ZM362.16 18.8326C361.832 18.6135 361.755 18.4314 361.755 18.2986H361.043C361.043 18.7715 361.342 19.1428 361.765 19.425L362.16 18.8326ZM361.755 18.2986C361.755 18.1608 361.813 18.0271 362.019 17.8899L361.624 17.2974C361.266 17.5361 361.043 17.8724 361.043 18.2986H361.755ZM362.014 17.8931C362.23 17.7543 362.547 17.6677 362.997 17.6677V16.9557C362.464 16.9557 361.998 17.057 361.629 17.2942L362.014 17.8931ZM362.997 17.6677C363.866 17.6677 365.018 18.0051 366.473 18.7271L366.789 18.0893C365.298 17.3493 364.028 16.9557 362.997 16.9557V17.6677ZM366.95 18.5658L368.798 14.822L368.16 14.5068L366.312 18.2506L366.95 18.5658ZM368.598 14.3288C366.366 13.5391 364.479 13.1335 362.95 13.1335V13.8456C364.365 13.8456 366.165 14.2232 368.361 15L368.598 14.3288ZM362.95 13.1335C361.542 13.1335 360.281 13.37 359.173 13.8524L359.458 14.5052C360.46 14.0686 361.621 13.8456 362.95 13.8456V13.1335ZM359.176 13.8512C358.073 14.321 357.194 14.9781 356.556 15.8293L357.125 16.2565C357.677 15.5203 358.449 14.9347 359.455 14.5064L359.176 13.8512ZM356.556 15.8293C355.912 16.6879 355.592 17.6828 355.592 18.7998H356.304C356.304 17.8282 356.579 16.9852 357.125 16.2565L356.556 15.8293ZM355.592 18.7998C355.592 19.675 355.78 20.4279 356.184 21.0337L356.776 20.6388C356.47 20.1794 356.304 19.5747 356.304 18.7998H355.592ZM356.187 21.0377C356.582 21.614 357.09 22.0874 357.707 22.4573L358.073 21.8468C357.541 21.5275 357.109 21.1237 356.774 20.6348L356.187 21.0377ZM357.707 22.4573C358.295 22.8103 358.92 23.1306 359.581 23.4183L359.865 22.7655C359.231 22.4894 358.634 22.1831 358.073 21.8468L357.707 22.4573ZM359.584 23.42C360.649 23.8688 361.409 24.2049 361.869 24.43L362.182 23.7903C361.702 23.5559 360.927 23.2132 359.861 22.7639L359.584 23.42ZM361.875 24.4327C362.063 24.5207 362.183 24.6254 362.257 24.7374C362.331 24.8481 362.374 24.9888 362.374 25.1753H363.086C363.086 24.871 363.013 24.5887 362.851 24.3444C362.69 24.1013 362.457 23.9189 362.176 23.7875L361.875 24.4327ZM362.374 25.1753C362.374 25.4713 362.285 25.6376 362.153 25.742C362.005 25.8589 361.743 25.9472 361.305 25.9472V26.6592C361.817 26.6592 362.268 26.5594 362.595 26.3004C362.938 26.0288 363.086 25.6312 363.086 25.1753H362.374ZM361.305 25.9472C360.112 25.9472 358.8 25.3979 357.363 24.2259L356.913 24.7776C358.421 26.0075 359.887 26.6592 361.305 26.6592V25.9472ZM356.832 24.3198L354.514 28.2203L355.126 28.5841L357.444 24.6836L356.832 24.3198ZM354.581 28.6661C356.211 30.142 358.463 30.8573 361.289 30.8573V30.1453C358.581 30.1453 356.52 29.4612 355.059 28.1383L354.581 28.6661ZM373.134 30H372.778V30.356H373.134V30ZM378.852 30V30.356H379.208V30H378.852ZM379.666 18.7215L379.414 18.4698L379.412 18.4722L379.666 18.7215ZM384.836 30H384.479V30.356H384.836V30ZM390.553 30V30.356H390.909V30H390.553ZM389.723 16.5285L389.413 16.7037L389.415 16.7077L389.723 16.5285ZM387.467 14.2728L387.291 14.5819L387.292 14.5827L387.467 14.2728ZM381.264 14.0378L381.129 13.7085L381.127 13.7091L381.264 14.0378ZM378.852 15.5886H378.496V16.4202L379.097 15.8462L378.852 15.5886ZM378.852 3.05696H379.208V2.70095H378.852V3.05696ZM373.134 3.05696V2.70095H372.778V3.05696H373.134ZM373.134 30.356H378.852V29.644H373.134V30.356ZM379.208 30V20.8519H378.496V30H379.208ZM379.208 20.8519C379.208 20.0664 379.451 19.4497 379.92 18.9708L379.412 18.4722C378.796 19.1003 378.496 19.9039 378.496 20.8519H379.208ZM379.918 18.9733C380.393 18.4981 381.033 18.2473 381.875 18.2473V17.5353C380.879 17.5353 380.046 17.838 379.414 18.4698L379.918 18.9733ZM381.875 18.2473C382.704 18.2473 383.324 18.5012 383.778 18.9816L384.295 18.4927C383.684 17.8453 382.863 17.5353 381.875 17.5353V18.2473ZM383.778 18.9816C384.234 19.4646 384.479 20.1316 384.479 21.0242H385.192C385.192 19.9953 384.905 19.1376 384.295 18.4927L383.778 18.9816ZM384.479 21.0242V30H385.192V21.0242H384.479ZM384.836 30.356H390.553V29.644H384.836V30.356ZM390.909 30V19.8024H390.197V30H390.909ZM390.909 19.8024C390.909 18.5149 390.619 17.3604 390.03 16.3493L389.415 16.7077C389.933 17.5972 390.197 18.6253 390.197 19.8024H390.909ZM390.033 16.3533C389.458 15.3362 388.659 14.5377 387.642 13.9629L387.292 14.5827C388.196 15.0939 388.902 15.7992 389.413 16.7037L390.033 16.3533ZM387.644 13.9637C386.634 13.3864 385.485 13.1022 384.209 13.1022V13.8142C385.376 13.8142 386.4 14.073 387.291 14.5819L387.644 13.9637ZM384.209 13.1022C383.139 13.1022 382.112 13.3044 381.129 13.7085L381.399 14.3671C382.296 13.9985 383.232 13.8142 384.209 13.8142V13.1022ZM381.127 13.7091C380.16 14.111 379.319 14.6512 378.606 15.331L379.097 15.8462C379.742 15.2311 380.509 14.7374 381.401 14.3666L381.127 13.7091ZM379.208 15.5886V3.05696H378.496V15.5886H379.208ZM378.852 2.70095H373.134V3.41297H378.852V2.70095ZM372.778 3.05696V30H373.49V3.05696H372.778ZM407.686 28.3396H408.042V27.5132L407.441 28.0808L407.686 28.3396ZM407.686 30H407.33V30.356H407.686V30ZM413.403 30V30.356H413.759V30H413.403ZM413.403 13.9595H413.759V13.6035H413.403V13.9595ZM407.686 13.9595V13.6035H407.33V13.9595H407.686ZM407.686 15.432L407.438 15.6879L408.042 16.2716V15.432H407.686ZM405.368 13.9908L405.238 14.3224L405.241 14.3237L405.368 13.9908ZM398.35 14.5861L398.538 14.8883L398.539 14.8878L398.35 14.5861ZM395.546 17.625L395.861 17.7913L395.546 17.625ZM395.593 26.3658L395.281 26.537L395.281 26.5381L395.593 26.3658ZM398.46 29.4047L398.272 29.7077L398.274 29.7089L398.46 29.4047ZM401.592 24.6271L401.339 24.8769L401.341 24.8788L401.592 24.6271ZM401.592 19.3481L401.339 19.0983L401.592 19.3481ZM406.777 19.3481L406.52 19.594L406.524 19.5979L406.777 19.3481ZM406.777 24.6271L406.522 24.3792L406.522 24.3792L406.777 24.6271ZM402.47 30.8573C404.521 30.8573 406.345 30.0968 407.93 28.5983L407.441 28.0808C405.977 29.4646 404.324 30.1453 402.47 30.1453V30.8573ZM407.33 28.3396V30H408.042V28.3396H407.33ZM407.686 30.356H413.403V29.644H407.686V30.356ZM413.759 30V13.9595H413.047V30H413.759ZM413.403 13.6035H407.686V14.3155H413.403V13.6035ZM407.33 13.9595V15.432H408.042V13.9595H407.33ZM407.933 15.1761C407.258 14.5232 406.443 14.0181 405.494 13.658L405.241 14.3237C406.109 14.6528 406.839 15.1085 407.438 15.6879L407.933 15.1761ZM405.497 13.6592C404.545 13.2872 403.535 13.1022 402.47 13.1022V13.8142C403.451 13.8142 404.373 13.9843 405.238 14.3224L405.497 13.6592ZM402.47 13.1022C400.864 13.1022 399.424 13.4938 398.161 14.2843L398.539 14.8878C399.678 14.1746 400.985 13.8142 402.47 13.8142V13.1022ZM398.162 14.2839C396.916 15.0599 395.938 16.1206 395.231 17.4587L395.861 17.7913C396.511 16.5604 397.403 15.5952 398.538 14.8883L398.162 14.2839ZM395.231 17.4587C394.523 18.7994 394.172 20.2986 394.172 21.9484H394.884C394.884 20.4027 395.212 19.0196 395.861 17.7913L395.231 17.4587ZM394.172 21.9484C394.172 23.6511 394.539 25.1837 395.281 26.537L395.905 26.1946C395.227 24.9581 394.884 23.5457 394.884 21.9484H394.172ZM395.281 26.5381C396.02 27.8739 397.017 28.9328 398.272 29.7077L398.647 29.1018C397.5 28.3938 396.586 27.4268 395.904 26.1936L395.281 26.5381ZM398.274 29.7089C399.534 30.4755 400.935 30.8573 402.47 30.8573V30.1453C401.059 30.1453 399.787 29.7961 398.645 29.1006L398.274 29.7089ZM404.193 25.3049C403.235 25.3049 402.462 24.9927 401.844 24.3753L401.341 24.8788C402.102 25.6399 403.061 26.0169 404.193 26.0169V25.3049ZM401.846 24.3772C401.228 23.7501 400.915 22.9601 400.915 21.9797H400.203C400.203 23.1297 400.578 24.1047 401.339 24.8769L401.846 24.3772ZM400.915 21.9797C400.915 21.0109 401.228 20.2258 401.846 19.5979L401.339 19.0983C400.579 19.8698 400.203 20.8391 400.203 21.9797H400.915ZM401.846 19.5979C402.464 18.9708 403.237 18.6546 404.193 18.6546V17.9426C403.06 17.9426 402.1 18.326 401.339 19.0983L401.846 19.5979ZM404.193 18.6546C405.16 18.6546 405.925 18.9714 406.52 19.594L407.035 19.1022C406.293 18.3255 405.335 17.9426 404.193 17.9426V18.6546ZM406.524 19.5979C407.13 20.2135 407.44 20.9977 407.44 21.9797H408.152C408.152 20.8314 407.782 19.8612 407.031 19.0983L406.524 19.5979ZM407.44 21.9797C407.44 22.9618 407.13 23.7524 406.522 24.3792L407.033 24.875C407.782 24.1024 408.152 23.1281 408.152 21.9797H407.44ZM406.522 24.3792C405.927 24.9921 405.162 25.3049 404.193 25.3049V26.0169C405.333 26.0169 406.291 25.6405 407.033 24.8749L406.522 24.3792ZM418.98 30H418.624V30.356H418.98V30ZM424.697 30V30.356H425.053V30H424.697ZM424.697 3.05696H425.053V2.70095H424.697V3.05696ZM418.98 3.05696V2.70095H418.624V3.05696H418.98ZM418.98 30.356H424.697V29.644H418.98V30.356ZM425.053 30V3.05696H424.341V30H425.053ZM424.697 2.70095H418.98V3.41297H424.697V2.70095ZM418.624 3.05696V30H419.336V3.05696H418.624ZM442.15 28.3396H442.506V27.5132L441.906 28.0808L442.15 28.3396ZM442.15 30H441.794V30.356H442.15V30ZM447.868 30V30.356H448.224V30H447.868ZM447.868 13.9595H448.224V13.6035H447.868V13.9595ZM442.15 13.9595V13.6035H441.794V13.9595H442.15ZM442.15 15.432L441.903 15.6879L442.506 16.2716V15.432H442.15ZM439.832 13.9908L439.702 14.3224L439.706 14.3237L439.832 13.9908ZM432.814 14.5861L433.003 14.8883L433.003 14.8878L432.814 14.5861ZM430.01 17.625L430.325 17.7913L430.01 17.625ZM430.057 26.3658L429.745 26.537L429.746 26.5381L430.057 26.3658ZM432.924 29.4047L432.737 29.7077L432.739 29.7089L432.924 29.4047ZM436.057 24.6271L435.803 24.8769L435.805 24.8788L436.057 24.6271ZM436.057 19.3481L435.803 19.0983L436.057 19.3481ZM441.242 19.3481L440.984 19.594L440.988 19.5979L441.242 19.3481ZM441.242 24.6271L440.986 24.3792L440.986 24.3792L441.242 24.6271ZM436.934 30.8573C438.985 30.8573 440.81 30.0968 442.395 28.5983L441.906 28.0808C440.442 29.4646 438.789 30.1453 436.934 30.1453V30.8573ZM441.794 28.3396V30H442.506V28.3396H441.794ZM442.15 30.356H447.868V29.644H442.15V30.356ZM448.224 30V13.9595H447.512V30H448.224ZM447.868 13.6035H442.15V14.3155H447.868V13.6035ZM441.794 13.9595V15.432H442.506V13.9595H441.794ZM442.398 15.1761C441.723 14.5232 440.908 14.0181 439.958 13.658L439.706 14.3237C440.573 14.6528 441.304 15.1085 441.903 15.6879L442.398 15.1761ZM439.962 13.6592C439.01 13.2872 438 13.1022 436.934 13.1022V13.8142C437.915 13.8142 438.837 13.9843 439.702 14.3224L439.962 13.6592ZM436.934 13.1022C435.328 13.1022 433.888 13.4938 432.625 14.2843L433.003 14.8878C434.142 14.1746 435.449 13.8142 436.934 13.8142V13.1022ZM432.626 14.2839C431.38 15.0599 430.403 16.1206 429.696 17.4587L430.325 17.7913C430.976 16.5604 431.867 15.5952 433.003 14.8883L432.626 14.2839ZM429.696 17.4587C428.987 18.7994 428.636 20.2986 428.636 21.9484H429.348C429.348 20.4027 429.676 19.0196 430.325 17.7913L429.696 17.4587ZM428.636 21.9484C428.636 23.6511 429.003 25.1837 429.745 26.537L430.37 26.1946C429.691 24.9581 429.348 23.5457 429.348 21.9484H428.636ZM429.746 26.5381C430.484 27.8739 431.482 28.9328 432.737 29.7077L433.111 29.1018C431.964 28.3938 431.051 27.4268 430.369 26.1936L429.746 26.5381ZM432.739 29.7089C433.998 30.4755 435.4 30.8573 436.934 30.8573V30.1453C435.524 30.1453 434.252 29.7961 433.109 29.1006L432.739 29.7089ZM438.657 25.3049C437.7 25.3049 436.926 24.9927 436.309 24.3753L435.805 24.8788C436.566 25.6399 437.526 26.0169 438.657 26.0169V25.3049ZM436.311 24.3772C435.693 23.7501 435.379 22.9601 435.379 21.9797H434.667C434.667 23.1297 435.043 24.1047 435.803 24.8769L436.311 24.3772ZM435.379 21.9797C435.379 21.0109 435.692 20.2258 436.311 19.5979L435.803 19.0983C435.043 19.8698 434.667 20.8391 434.667 21.9797H435.379ZM436.311 19.5979C436.928 18.9708 437.702 18.6546 438.657 18.6546V17.9426C437.524 17.9426 436.564 18.326 435.803 19.0983L436.311 19.5979ZM438.657 18.6546C439.624 18.6546 440.39 18.9714 440.984 19.594L441.499 19.1022C440.757 18.3255 439.799 17.9426 438.657 17.9426V18.6546ZM440.988 19.5979C441.594 20.2135 441.904 20.9977 441.904 21.9797H442.616C442.616 20.8314 442.247 19.8612 441.496 19.0983L440.988 19.5979ZM441.904 21.9797C441.904 22.9618 441.594 23.7524 440.986 24.3792L441.497 24.875C442.247 24.1024 442.616 23.1281 442.616 21.9797H441.904ZM440.986 24.3792C440.392 24.9921 439.626 25.3049 438.657 25.3049V26.0169C439.798 26.0169 440.755 25.6405 441.497 24.8749L440.986 24.3792Z" fill="white"/>
</g>
<defs>
<filter id="filter0_d" x="0.34067" y="2.23096" width="447.883" height="30.7623" filterUnits="userSpaceOnUse" color-interpolation-filters="sRGB">
<feFlood flood-opacity="0" result="BackgroundImageFix"/>
<feColorMatrix in="SourceAlpha" type="matrix" values="0 0 0 0 0 0 0 0 0 0 0 0 0 0 0 0 0 0 127 0"/>
<feOffset dx="-2.13608" dy="2.13608"/>
<feColorMatrix type="matrix" values="0 0 0 0 1 0 0 0 0 1 0 0 0 0 1 0 0 0 1 0"/>
<feBlend mode="normal" in2="BackgroundImageFix" result="effect1_dropShadow"/>
<feBlend mode="normal" in="SourceGraphic" in2="effect1_dropShadow" result="shape"/>
</filter>
</defs>
</svg>
