<svg width="632" height="99" viewBox="0 0 632 99" fill="none" xmlns="http://www.w3.org/2000/svg">
<path d="M10.576 79.352H8V91H3.212V79.352H1.476V75.376H3.212V74.928C3.212 73.0053 3.76267 71.5493 4.864 70.56C5.96533 69.552 7.58 69.048 9.708 69.048C10.0627 69.048 10.324 69.0573 10.492 69.076V73.136C9.57733 73.08 8.93333 73.2107 8.56 73.528C8.18667 73.8453 8 74.4147 8 75.236V75.376H10.576V79.352ZM17.6138 77.98C18.1738 77.1213 18.8738 76.4493 19.7138 75.964C20.5538 75.46 21.4872 75.208 22.5138 75.208V80.276H21.1978C20.0032 80.276 19.1072 80.5373 18.5098 81.06C17.9125 81.564 17.6138 82.46 17.6138 83.748V91H12.8258V75.376H17.6138V77.98ZM31.9144 91.224C30.3837 91.224 29.0024 90.8973 27.7704 90.244C26.5571 89.5907 25.5957 88.6573 24.8864 87.444C24.1957 86.2307 23.8504 84.812 23.8504 83.188C23.8504 81.5827 24.2051 80.1733 24.9144 78.96C25.6237 77.728 26.5944 76.7853 27.8264 76.132C29.0584 75.4787 30.4397 75.152 31.9704 75.152C33.5011 75.152 34.8824 75.4787 36.1144 76.132C37.3464 76.7853 38.3171 77.728 39.0264 78.96C39.7357 80.1733 40.0904 81.5827 40.0904 83.188C40.0904 84.7933 39.7264 86.212 38.9984 87.444C38.2891 88.6573 37.3091 89.5907 36.0584 90.244C34.8264 90.8973 33.4451 91.224 31.9144 91.224ZM31.9144 87.08C32.8291 87.08 33.6037 86.744 34.2384 86.072C34.8917 85.4 35.2184 84.4387 35.2184 83.188C35.2184 81.9373 34.9011 80.976 34.2664 80.304C33.6504 79.632 32.8851 79.296 31.9704 79.296C31.0371 79.296 30.2624 79.632 29.6464 80.304C29.0304 80.9573 28.7224 81.9187 28.7224 83.188C28.7224 84.4387 29.0211 85.4 29.6184 86.072C30.2344 86.744 30.9997 87.08 31.9144 87.08ZM62.5665 75.208C64.5079 75.208 66.0479 75.796 67.1865 76.972C68.3439 78.148 68.9225 79.7813 68.9225 81.872V91H64.1625V82.516C64.1625 81.508 63.8919 80.7333 63.3505 80.192C62.8279 79.632 62.0999 79.352 61.1665 79.352C60.2332 79.352 59.4959 79.632 58.9545 80.192C58.4319 80.7333 58.1705 81.508 58.1705 82.516V91H53.4105V82.516C53.4105 81.508 53.1399 80.7333 52.5985 80.192C52.0759 79.632 51.3479 79.352 50.4145 79.352C49.4812 79.352 48.7439 79.632 48.2025 80.192C47.6799 80.7333 47.4185 81.508 47.4185 82.516V91H42.6305V75.376H47.4185V77.336C47.9039 76.6827 48.5385 76.1693 49.3225 75.796C50.1065 75.404 50.9932 75.208 51.9825 75.208C53.1585 75.208 54.2039 75.46 55.1185 75.964C56.0519 76.468 56.7799 77.1867 57.3025 78.12C57.8439 77.2613 58.5812 76.5613 59.5145 76.02C60.4479 75.4787 61.4652 75.208 62.5665 75.208ZM86.9128 86.94V91H84.4768C82.7408 91 81.3874 90.58 80.4168 89.74C79.4461 88.8813 78.9608 87.4907 78.9608 85.568V79.352H77.0568V75.376H78.9608V71.568H83.7488V75.376H86.8848V79.352H83.7488V85.624C83.7488 86.0907 83.8608 86.4267 84.0848 86.632C84.3088 86.8373 84.6821 86.94 85.2048 86.94H86.9128ZM99.1838 75.208C100.976 75.208 102.413 75.8053 103.496 77C104.578 78.176 105.12 79.8 105.12 81.872V91H100.36V82.516C100.36 81.4707 100.089 80.6587 99.5478 80.08C99.0064 79.5013 98.2784 79.212 97.3638 79.212C96.4491 79.212 95.7211 79.5013 95.1798 80.08C94.6384 80.6587 94.3678 81.4707 94.3678 82.516V91H89.5798V70.28H94.3678V77.476C94.8531 76.7853 95.5158 76.2347 96.3558 75.824C97.1958 75.4133 98.1384 75.208 99.1838 75.208ZM123.175 82.936C123.175 83.384 123.147 83.8507 123.091 84.336H112.255C112.33 85.3067 112.638 86.0533 113.179 86.576C113.739 87.08 114.42 87.332 115.223 87.332C116.418 87.332 117.248 86.828 117.715 85.82H122.811C122.55 86.8467 122.074 87.7707 121.383 88.592C120.711 89.4133 119.862 90.0573 118.835 90.524C117.808 90.9907 116.66 91.224 115.391 91.224C113.86 91.224 112.498 90.8973 111.303 90.244C110.108 89.5907 109.175 88.6573 108.503 87.444C107.831 86.2307 107.495 84.812 107.495 83.188C107.495 81.564 107.822 80.1453 108.475 78.932C109.147 77.7187 110.08 76.7853 111.275 76.132C112.47 75.4787 113.842 75.152 115.391 75.152C116.903 75.152 118.247 75.4693 119.423 76.104C120.599 76.7387 121.514 77.644 122.167 78.82C122.839 79.996 123.175 81.368 123.175 82.936ZM118.275 81.676C118.275 80.8547 117.995 80.2013 117.435 79.716C116.875 79.2307 116.175 78.988 115.335 78.988C114.532 78.988 113.851 79.2213 113.291 79.688C112.75 80.1547 112.414 80.8173 112.283 81.676H118.275ZM130.682 83.188C130.682 81.564 131.009 80.1453 131.662 78.932C132.334 77.7187 133.258 76.7853 134.434 76.132C135.629 75.4787 136.992 75.152 138.522 75.152C140.482 75.152 142.116 75.6653 143.422 76.692C144.748 77.7187 145.616 79.1653 146.026 81.032H140.93C140.501 79.8373 139.67 79.24 138.438 79.24C137.561 79.24 136.861 79.5853 136.338 80.276C135.816 80.948 135.554 81.9187 135.554 83.188C135.554 84.4573 135.816 85.4373 136.338 86.128C136.861 86.8 137.561 87.136 138.438 87.136C139.67 87.136 140.501 86.5387 140.93 85.344H146.026C145.616 87.1733 144.748 88.6107 143.422 89.656C142.097 90.7013 140.464 91.224 138.522 91.224C136.992 91.224 135.629 90.8973 134.434 90.244C133.258 89.5907 132.334 88.6573 131.662 87.444C131.009 86.2307 130.682 84.812 130.682 83.188ZM155.7 91.224C154.169 91.224 152.788 90.8973 151.556 90.244C150.342 89.5907 149.381 88.6573 148.672 87.444C147.981 86.2307 147.636 84.812 147.636 83.188C147.636 81.5827 147.99 80.1733 148.7 78.96C149.409 77.728 150.38 76.7853 151.612 76.132C152.844 75.4787 154.225 75.152 155.756 75.152C157.286 75.152 158.668 75.4787 159.9 76.132C161.132 76.7853 162.102 77.728 162.812 78.96C163.521 80.1733 163.876 81.5827 163.876 83.188C163.876 84.7933 163.512 86.212 162.784 87.444C162.074 88.6573 161.094 89.5907 159.844 90.244C158.612 90.8973 157.23 91.224 155.7 91.224ZM155.7 87.08C156.614 87.08 157.389 86.744 158.024 86.072C158.677 85.4 159.004 84.4387 159.004 83.188C159.004 81.9373 158.686 80.976 158.052 80.304C157.436 79.632 156.67 79.296 155.756 79.296C154.822 79.296 154.048 79.632 153.432 80.304C152.816 80.9573 152.508 81.9187 152.508 83.188C152.508 84.4387 152.806 85.4 153.404 86.072C154.02 86.744 154.785 87.08 155.7 87.08ZM186.352 75.208C188.293 75.208 189.833 75.796 190.972 76.972C192.129 78.148 192.708 79.7813 192.708 81.872V91H187.948V82.516C187.948 81.508 187.677 80.7333 187.136 80.192C186.613 79.632 185.885 79.352 184.952 79.352C184.018 79.352 183.281 79.632 182.74 80.192C182.217 80.7333 181.956 81.508 181.956 82.516V91H177.196V82.516C177.196 81.508 176.925 80.7333 176.384 80.192C175.861 79.632 175.133 79.352 174.2 79.352C173.266 79.352 172.529 79.632 171.988 80.192C171.465 80.7333 171.204 81.508 171.204 82.516V91H166.416V75.376H171.204V77.336C171.689 76.6827 172.324 76.1693 173.108 75.796C173.892 75.404 174.778 75.208 175.768 75.208C176.944 75.208 177.989 75.46 178.904 75.964C179.837 76.468 180.565 77.1867 181.088 78.12C181.629 77.2613 182.366 76.5613 183.3 76.02C184.233 75.4787 185.25 75.208 186.352 75.208ZM203.896 79.352H201.32V91H196.532V79.352H194.796V75.376H196.532V74.928C196.532 73.0053 197.083 71.5493 198.184 70.56C199.286 69.552 200.9 69.048 203.028 69.048C203.383 69.048 203.644 69.0573 203.812 69.076V73.136C202.898 73.08 202.254 73.2107 201.88 73.528C201.507 73.8453 201.32 74.4147 201.32 75.236V75.376H203.896V79.352ZM213.258 91.224C211.727 91.224 210.346 90.8973 209.114 90.244C207.901 89.5907 206.939 88.6573 206.23 87.444C205.539 86.2307 205.194 84.812 205.194 83.188C205.194 81.5827 205.549 80.1733 206.258 78.96C206.967 77.728 207.938 76.7853 209.17 76.132C210.402 75.4787 211.783 75.152 213.314 75.152C214.845 75.152 216.226 75.4787 217.458 76.132C218.69 76.7853 219.661 77.728 220.37 78.96C221.079 80.1733 221.434 81.5827 221.434 83.188C221.434 84.7933 221.07 86.212 220.342 87.444C219.633 88.6573 218.653 89.5907 217.402 90.244C216.17 90.8973 214.789 91.224 213.258 91.224ZM213.258 87.08C214.173 87.08 214.947 86.744 215.582 86.072C216.235 85.4 216.562 84.4387 216.562 83.188C216.562 81.9373 216.245 80.976 215.61 80.304C214.994 79.632 214.229 79.296 213.314 79.296C212.381 79.296 211.606 79.632 210.99 80.304C210.374 80.9573 210.066 81.9187 210.066 83.188C210.066 84.4387 210.365 85.4 210.962 86.072C211.578 86.744 212.343 87.08 213.258 87.08ZM228.762 77.98C229.322 77.1213 230.022 76.4493 230.862 75.964C231.702 75.46 232.636 75.208 233.662 75.208V80.276H232.346C231.152 80.276 230.256 80.5373 229.658 81.06C229.061 81.564 228.762 82.46 228.762 83.748V91H223.974V75.376H228.762V77.98ZM244.659 86.94V91H242.223C240.487 91 239.134 90.58 238.163 89.74C237.192 88.8813 236.707 87.4907 236.707 85.568V79.352H234.803V75.376H236.707V71.568H241.495V75.376H244.631V79.352H241.495V85.624C241.495 86.0907 241.607 86.4267 241.831 86.632C242.055 86.8373 242.428 86.94 242.951 86.94H244.659ZM260.371 91.224C258.841 91.224 257.459 90.8973 256.227 90.244C255.014 89.5907 254.053 88.6573 253.343 87.444C252.653 86.2307 252.307 84.812 252.307 83.188C252.307 81.5827 252.662 80.1733 253.371 78.96C254.081 77.728 255.051 76.7853 256.283 76.132C257.515 75.4787 258.897 75.152 260.427 75.152C261.958 75.152 263.339 75.4787 264.571 76.132C265.803 76.7853 266.774 77.728 267.483 78.96C268.193 80.1733 268.547 81.5827 268.547 83.188C268.547 84.7933 268.183 86.212 267.455 87.444C266.746 88.6573 265.766 89.5907 264.515 90.244C263.283 90.8973 261.902 91.224 260.371 91.224ZM260.371 87.08C261.286 87.08 262.061 86.744 262.695 86.072C263.349 85.4 263.675 84.4387 263.675 83.188C263.675 81.9373 263.358 80.976 262.723 80.304C262.107 79.632 261.342 79.296 260.427 79.296C259.494 79.296 258.719 79.632 258.103 80.304C257.487 80.9573 257.179 81.9187 257.179 83.188C257.179 84.4387 257.478 85.4 258.075 86.072C258.691 86.744 259.457 87.08 260.371 87.08ZM278.928 79.352H276.352V91H271.564V79.352H269.828V75.376H271.564V74.928C271.564 73.0053 272.114 71.5493 273.216 70.56C274.317 69.552 275.932 69.048 278.06 69.048C278.414 69.048 278.676 69.0573 278.844 69.076V73.136C277.929 73.08 277.285 73.2107 276.912 73.528C276.538 73.8453 276.352 74.4147 276.352 75.236V75.376H278.928V79.352ZM303.071 75.376L293.271 98.42H288.119L291.703 90.468L285.347 75.376H290.695L294.307 85.148L297.891 75.376H303.071ZM311.914 91.224C310.384 91.224 309.002 90.8973 307.77 90.244C306.557 89.5907 305.596 88.6573 304.886 87.444C304.196 86.2307 303.85 84.812 303.85 83.188C303.85 81.5827 304.205 80.1733 304.914 78.96C305.624 77.728 306.594 76.7853 307.826 76.132C309.058 75.4787 310.44 75.152 311.97 75.152C313.501 75.152 314.882 75.4787 316.114 76.132C317.346 76.7853 318.317 77.728 319.026 78.96C319.736 80.1733 320.09 81.5827 320.09 83.188C320.09 84.7933 319.726 86.212 318.998 87.444C318.289 88.6573 317.309 89.5907 316.058 90.244C314.826 90.8973 313.445 91.224 311.914 91.224ZM311.914 87.08C312.829 87.08 313.604 86.744 314.238 86.072C314.892 85.4 315.218 84.4387 315.218 83.188C315.218 81.9373 314.901 80.976 314.266 80.304C313.65 79.632 312.885 79.296 311.97 79.296C311.037 79.296 310.262 79.632 309.646 80.304C309.03 80.9573 308.722 81.9187 308.722 83.188C308.722 84.4387 309.021 85.4 309.618 86.072C310.234 86.744 311 87.08 311.914 87.08ZM338.059 75.376V91H333.271V88.872C332.785 89.5627 332.123 90.1227 331.283 90.552C330.461 90.9627 329.547 91.168 328.539 91.168C327.344 91.168 326.289 90.9067 325.375 90.384C324.46 89.8427 323.751 89.068 323.247 88.06C322.743 87.052 322.491 85.8667 322.491 84.504V75.376H327.251V83.86C327.251 84.9053 327.521 85.7173 328.063 86.296C328.604 86.8747 329.332 87.164 330.247 87.164C331.18 87.164 331.917 86.8747 332.459 86.296C333 85.7173 333.271 84.9053 333.271 83.86V75.376H338.059ZM346.286 77.98C346.846 77.1213 347.546 76.4493 348.386 75.964C349.226 75.46 350.159 75.208 351.186 75.208V80.276H349.87C348.675 80.276 347.779 80.5373 347.182 81.06C346.584 81.564 346.286 82.46 346.286 83.748V91H341.498V75.376H346.286V77.98ZM369.012 75.208C370.804 75.208 372.241 75.8053 373.324 77C374.407 78.176 374.948 79.8 374.948 81.872V91H370.188V82.516C370.188 81.4707 369.917 80.6587 369.376 80.08C368.835 79.5013 368.107 79.212 367.192 79.212C366.277 79.212 365.549 79.5013 365.008 80.08C364.467 80.6587 364.196 81.4707 364.196 82.516V91H359.408V70.28H364.196V77.476C364.681 76.7853 365.344 76.2347 366.184 75.824C367.024 75.4133 367.967 75.208 369.012 75.208ZM385.387 91.224C383.856 91.224 382.475 90.8973 381.243 90.244C380.03 89.5907 379.068 88.6573 378.359 87.444C377.668 86.2307 377.323 84.812 377.323 83.188C377.323 81.5827 377.678 80.1733 378.387 78.96C379.096 77.728 380.067 76.7853 381.299 76.132C382.531 75.4787 383.912 75.152 385.443 75.152C386.974 75.152 388.355 75.4787 389.587 76.132C390.819 76.7853 391.79 77.728 392.499 78.96C393.208 80.1733 393.563 81.5827 393.563 83.188C393.563 84.7933 393.199 86.212 392.471 87.444C391.762 88.6573 390.782 89.5907 389.531 90.244C388.299 90.8973 386.918 91.224 385.387 91.224ZM385.387 87.08C386.302 87.08 387.076 86.744 387.711 86.072C388.364 85.4 388.691 84.4387 388.691 83.188C388.691 81.9373 388.374 80.976 387.739 80.304C387.123 79.632 386.358 79.296 385.443 79.296C384.51 79.296 383.735 79.632 383.119 80.304C382.503 80.9573 382.195 81.9187 382.195 83.188C382.195 84.4387 382.494 85.4 383.091 86.072C383.707 86.744 384.472 87.08 385.387 87.08ZM416.039 75.208C417.981 75.208 419.521 75.796 420.659 76.972C421.817 78.148 422.395 79.7813 422.395 81.872V91H417.635V82.516C417.635 81.508 417.365 80.7333 416.823 80.192C416.301 79.632 415.573 79.352 414.639 79.352C413.706 79.352 412.969 79.632 412.427 80.192C411.905 80.7333 411.643 81.508 411.643 82.516V91H406.883V82.516C406.883 81.508 406.613 80.7333 406.071 80.192C405.549 79.632 404.821 79.352 403.887 79.352C402.954 79.352 402.217 79.632 401.675 80.192C401.153 80.7333 400.891 81.508 400.891 82.516V91H396.103V75.376H400.891V77.336C401.377 76.6827 402.011 76.1693 402.795 75.796C403.579 75.404 404.466 75.208 405.455 75.208C406.631 75.208 407.677 75.46 408.591 75.964C409.525 76.468 410.253 77.1867 410.775 78.12C411.317 77.2613 412.054 76.5613 412.987 76.02C413.921 75.4787 414.938 75.208 416.039 75.208ZM440.472 82.936C440.472 83.384 440.444 83.8507 440.388 84.336H429.552C429.626 85.3067 429.934 86.0533 430.476 86.576C431.036 87.08 431.717 87.332 432.52 87.332C433.714 87.332 434.545 86.828 435.012 85.82H440.108C439.846 86.8467 439.37 87.7707 438.68 88.592C438.008 89.4133 437.158 90.0573 436.132 90.524C435.105 90.9907 433.957 91.224 432.688 91.224C431.157 91.224 429.794 90.8973 428.6 90.244C427.405 89.5907 426.472 88.6573 425.8 87.444C425.128 86.2307 424.792 84.812 424.792 83.188C424.792 81.564 425.118 80.1453 425.772 78.932C426.444 77.7187 427.377 76.7853 428.572 76.132C429.766 75.4787 431.138 75.152 432.688 75.152C434.2 75.152 435.544 75.4693 436.72 76.104C437.896 76.7387 438.81 77.644 439.464 78.82C440.136 79.996 440.472 81.368 440.472 82.936ZM435.572 81.676C435.572 80.8547 435.292 80.2013 434.732 79.716C434.172 79.2307 433.472 78.988 432.632 78.988C431.829 78.988 431.148 79.2213 430.588 79.688C430.046 80.1547 429.71 80.8173 429.58 81.676H435.572Z" fill="#1E3C74"/>
<g filter="url(#filter0_d)">
<path d="M3.574 46H17.478C19.898 46 21.9953 45.5893 23.77 44.768C25.5593 43.932 26.938 42.744 27.906 41.204C28.8887 39.6493 29.38 37.794 29.38 35.638C29.38 33.1593 28.72 31.1573 27.4 29.632C26.08 28.1067 24.1733 27.1387 21.68 26.728C24.672 25.1293 26.168 22.4893 26.168 18.808C26.168 15.7573 25.1707 13.4767 23.176 11.966C21.196 10.4553 18.468 9.7 14.992 9.7H3.574V46ZM12.066 23.802V16.234H12.946C16.29 16.234 17.962 17.4733 17.962 19.952C17.962 22.5187 16.29 23.802 12.946 23.802H12.066ZM12.066 39.444V31.106H14.486C16.4367 31.106 17.918 31.4727 18.93 32.206C19.942 32.9393 20.448 33.9953 20.448 35.374C20.448 38.0873 18.4607 39.444 14.486 39.444H12.066ZM45.4177 46.704C47.8377 46.704 50.0303 46.1833 51.9957 45.142C53.9757 44.086 55.4937 42.6413 56.5497 40.808L50.7857 37.926C49.979 38.806 49.2017 39.4293 48.4537 39.796C47.7203 40.1627 46.8623 40.346 45.8797 40.346C44.281 40.346 43.0123 39.9427 42.0737 39.136C41.1497 38.3147 40.6877 37.2147 40.6877 35.836H56.9017C56.9457 35.352 56.9677 35.0293 56.9677 34.868C56.9823 34.7067 56.9897 34.5307 56.9897 34.34C56.9897 32.052 56.491 30.0427 55.4937 28.312C54.4963 26.5667 53.1103 25.21 51.3357 24.242C49.5757 23.2593 47.5223 22.768 45.1757 22.768C42.785 22.768 40.6217 23.296 38.6857 24.352C36.7643 25.408 35.239 26.838 34.1097 28.642C32.9803 30.446 32.4157 32.47 32.4157 34.714C32.4157 36.9873 32.9877 39.0333 34.1317 40.852C35.2757 42.656 36.823 44.086 38.7737 45.142C40.739 46.1833 42.9537 46.704 45.4177 46.704ZM40.9297 31.788C41.003 30.732 41.399 29.9107 42.1177 29.324C42.8363 28.7227 43.797 28.422 44.9997 28.422C47.3757 28.422 48.747 29.544 49.1137 31.788H40.9297ZM84.0974 46.704C85.0948 46.704 86.1141 46.5793 87.1554 46.33C88.1968 46.0807 89.1428 45.7287 89.9934 45.274L87.9914 38.828C87.3608 39.2973 86.7228 39.532 86.0774 39.532C84.9481 39.532 84.3834 38.8133 84.3834 37.376V29.566H89.0914V23.472H84.3834V15.024H76.3534V23.472H73.0754V29.566H76.3534V37.97C76.3534 40.7127 77.0354 42.854 78.3994 44.394C79.7634 45.934 81.6628 46.704 84.0974 46.704ZM95.831 46H103.861V33.152C103.861 31.9347 104.242 30.9373 105.005 30.16C105.782 29.3827 106.816 28.994 108.107 28.994C109.383 28.994 110.395 29.39 111.143 30.182C111.891 30.974 112.265 32.0447 112.265 33.394V46H120.295V31.678C120.295 29.9473 119.906 28.4147 119.129 27.08C118.366 25.7307 117.31 24.6747 115.961 23.912C114.626 23.1493 113.101 22.768 111.385 22.768C109.948 22.768 108.569 23.0393 107.249 23.582C105.944 24.1247 104.814 24.8507 103.861 25.76V8.16H95.831V46ZM138.615 46.704C141.035 46.704 143.228 46.1833 145.193 45.142C147.173 44.086 148.691 42.6413 149.747 40.808L143.983 37.926C143.176 38.806 142.399 39.4293 141.651 39.796C140.918 40.1627 140.06 40.346 139.077 40.346C137.478 40.346 136.21 39.9427 135.271 39.136C134.347 38.3147 133.885 37.2147 133.885 35.836H150.099C150.143 35.352 150.165 35.0293 150.165 34.868C150.18 34.7067 150.187 34.5307 150.187 34.34C150.187 32.052 149.688 30.0427 148.691 28.312C147.694 26.5667 146.308 25.21 144.533 24.242C142.773 23.2593 140.72 22.768 138.373 22.768C135.982 22.768 133.819 23.296 131.883 24.352C129.962 25.408 128.436 26.838 127.307 28.642C126.178 30.446 125.613 32.47 125.613 34.714C125.613 36.9873 126.185 39.0333 127.329 40.852C128.473 42.656 130.02 44.086 131.971 45.142C133.936 46.1833 136.151 46.704 138.615 46.704ZM134.127 31.788C134.2 30.732 134.596 29.9107 135.315 29.324C136.034 28.7227 136.994 28.422 138.197 28.422C140.573 28.422 141.944 29.544 142.311 31.788H134.127ZM169.903 46H177.933V29.566H183.103V23.472H177.933V19.006C177.933 17.73 178.058 16.6813 178.307 15.86C178.571 15.024 179.26 14.606 180.375 14.606C181.211 14.606 181.966 14.7967 182.641 15.178L185.413 9.568C184.606 8.92266 183.616 8.41667 182.443 8.05C181.284 7.68333 180.118 7.5 178.945 7.5C177.082 7.5 175.469 7.96933 174.105 8.908C172.756 9.832 171.714 11.1373 170.981 12.824C170.262 14.5107 169.903 16.4907 169.903 18.764V23.472H166.625V29.566H169.903V46ZM197.261 46.704C200.004 46.704 202.446 45.692 204.587 43.668V46H212.617V23.472H204.587V25.54C203.693 24.6747 202.607 24 201.331 23.516C200.055 23.0173 198.699 22.768 197.261 22.768C195.091 22.768 193.162 23.296 191.475 24.352C189.803 25.3933 188.491 26.816 187.537 28.62C186.584 30.424 186.107 32.448 186.107 34.692C186.107 37.0093 186.606 39.0773 187.603 40.896C188.601 42.7 189.943 44.1227 191.629 45.164C193.316 46.1907 195.193 46.704 197.261 46.704ZM199.681 39.906C198.215 39.906 196.997 39.422 196.029 38.454C195.061 37.4713 194.577 36.232 194.577 34.736C194.577 33.2547 195.061 32.0227 196.029 31.04C196.997 30.0573 198.215 29.566 199.681 29.566C201.163 29.566 202.373 30.0573 203.311 31.04C204.265 32.008 204.741 33.24 204.741 34.736C204.741 36.232 204.265 37.4713 203.311 38.454C202.373 39.422 201.163 39.906 199.681 39.906ZM231.031 46.704C232.498 46.704 233.884 46.4987 235.189 46.088C236.494 45.6773 237.55 45.1787 238.357 44.592L235.695 39.18C235.314 39.4587 234.822 39.6933 234.221 39.884C233.634 40.06 232.996 40.148 232.307 40.148C230.62 40.148 229.271 39.62 228.259 38.564C227.262 37.4933 226.763 36.2173 226.763 34.736C226.763 33.8853 226.961 33.0493 227.357 32.228C227.768 31.392 228.384 30.7027 229.205 30.16C230.026 29.6027 231.046 29.324 232.263 29.324C233.656 29.324 234.8 29.6467 235.695 30.292L238.357 24.88C237.58 24.2787 236.516 23.78 235.167 23.384C233.832 22.9733 232.439 22.768 230.987 22.768C229.168 22.768 227.489 23.098 225.949 23.758C224.409 24.4033 223.067 25.2907 221.923 26.42C220.779 27.5493 219.884 28.8327 219.239 30.27C218.608 31.7073 218.293 33.2033 218.293 34.758C218.293 36.4007 218.63 37.948 219.305 39.4C219.98 40.8373 220.904 42.106 222.077 43.206C223.25 44.306 224.607 45.164 226.147 45.78C227.687 46.396 229.315 46.704 231.031 46.704ZM254.596 46.704C257.016 46.704 259.209 46.1833 261.174 45.142C263.154 44.086 264.672 42.6413 265.728 40.808L259.964 37.926C259.158 38.806 258.38 39.4293 257.632 39.796C256.899 40.1627 256.041 40.346 255.058 40.346C253.46 40.346 252.191 39.9427 251.252 39.136C250.328 38.3147 249.866 37.2147 249.866 35.836H266.08C266.124 35.352 266.146 35.0293 266.146 34.868C266.161 34.7067 266.168 34.5307 266.168 34.34C266.168 32.052 265.67 30.0427 264.672 28.312C263.675 26.5667 262.289 25.21 260.514 24.242C258.754 23.2593 256.701 22.768 254.354 22.768C251.964 22.768 249.8 23.296 247.864 24.352C245.943 25.408 244.418 26.838 243.288 28.642C242.159 30.446 241.594 32.47 241.594 34.714C241.594 36.9873 242.166 39.0333 243.31 40.852C244.454 42.656 246.002 44.086 247.952 45.142C249.918 46.1833 252.132 46.704 254.596 46.704ZM250.108 31.788C250.182 30.732 250.578 29.9107 251.296 29.324C252.015 28.7227 252.976 28.422 254.178 28.422C256.554 28.422 257.926 29.544 258.292 31.788H250.108ZM296.136 46.704C298.674 46.704 300.962 46.198 303 45.186C305.039 44.1593 306.652 42.7513 307.84 40.962C309.028 39.158 309.622 37.0827 309.622 34.736C309.622 32.3893 309.028 30.3213 307.84 28.532C306.652 26.728 305.039 25.32 303 24.308C300.962 23.2813 298.674 22.768 296.136 22.768C293.599 22.768 291.311 23.2813 289.272 24.308C287.234 25.32 285.62 26.728 284.432 28.532C283.244 30.3213 282.65 32.3893 282.65 34.736C282.65 37.0827 283.244 39.158 284.432 40.962C285.62 42.7513 287.234 44.1593 289.272 45.186C291.311 46.198 293.599 46.704 296.136 46.704ZM296.136 39.884C294.728 39.884 293.526 39.4073 292.528 38.454C291.546 37.486 291.054 36.2467 291.054 34.736C291.054 33.2107 291.546 31.9713 292.528 31.018C293.526 30.0647 294.728 29.588 296.136 29.588C297.544 29.588 298.74 30.0647 299.722 31.018C300.72 31.9713 301.218 33.2107 301.218 34.736C301.218 36.2467 300.72 37.486 299.722 38.454C298.74 39.4073 297.544 39.884 296.136 39.884ZM316.316 46H324.346V29.566H329.516V23.472H324.346V19.006C324.346 17.73 324.471 16.6813 324.72 15.86C324.984 15.024 325.674 14.606 326.788 14.606C327.624 14.606 328.38 14.7967 329.054 15.178L331.826 9.568C331.02 8.92266 330.03 8.41667 328.856 8.05C327.698 7.68333 326.532 7.5 325.358 7.5C323.496 7.5 321.882 7.96933 320.518 8.908C319.169 9.832 318.128 11.1373 317.394 12.824C316.676 14.5107 316.316 16.4907 316.316 18.764V23.472H313.038V29.566H316.316V46ZM347.849 46H356.319V9.7H347.849V46ZM365.068 46H373.098V33.152C373.098 31.9347 373.479 30.9447 374.242 30.182C375.019 29.4047 376.053 29.016 377.344 29.016C378.62 29.016 379.632 29.412 380.38 30.204C381.128 30.9813 381.502 32.0447 381.502 33.394V46H389.532V31.678C389.532 29.9473 389.143 28.4147 388.366 27.08C387.603 25.7307 386.547 24.6747 385.198 23.912C383.863 23.1493 382.338 22.768 380.622 22.768C379.185 22.768 377.806 23.0393 376.486 23.582C375.181 24.1247 374.051 24.8507 373.098 25.76V23.472H365.068V46ZM405.218 46.704C406.216 46.704 407.235 46.5793 408.276 46.33C409.318 46.0807 410.264 45.7287 411.114 45.274L409.112 38.828C408.482 39.2973 407.844 39.532 407.198 39.532C406.069 39.532 405.504 38.8133 405.504 37.376V29.566H410.212V23.472H405.504V15.024H397.474V23.472H394.196V29.566H397.474V37.97C397.474 40.7127 398.156 42.854 399.52 44.394C400.884 45.934 402.784 46.704 405.218 46.704ZM427.886 46.704C430.306 46.704 432.499 46.1833 434.464 45.142C436.444 44.086 437.962 42.6413 439.018 40.808L433.254 37.926C432.447 38.806 431.67 39.4293 430.922 39.796C430.189 40.1627 429.331 40.346 428.348 40.346C426.749 40.346 425.481 39.9427 424.542 39.136C423.618 38.3147 423.156 37.2147 423.156 35.836H439.37C439.414 35.352 439.436 35.0293 439.436 34.868C439.451 34.7067 439.458 34.5307 439.458 34.34C439.458 32.052 438.959 30.0427 437.962 28.312C436.965 26.5667 435.579 25.21 433.804 24.242C432.044 23.2593 429.991 22.768 427.644 22.768C425.253 22.768 423.09 23.296 421.154 24.352C419.233 25.408 417.707 26.838 416.578 28.642C415.449 30.446 414.884 32.47 414.884 34.714C414.884 36.9873 415.456 39.0333 416.6 40.852C417.744 42.656 419.291 44.086 421.242 45.142C423.207 46.1833 425.422 46.704 427.886 46.704ZM423.398 31.788C423.471 30.732 423.867 29.9107 424.586 29.324C425.305 28.7227 426.265 28.422 427.468 28.422C429.844 28.422 431.215 29.544 431.582 31.788H423.398ZM445.408 46H453.438V34.23C453.438 33.4527 453.665 32.7193 454.12 32.03C454.574 31.3407 455.168 30.7833 455.902 30.358C456.65 29.9327 457.434 29.72 458.256 29.72C458.857 29.72 459.51 29.8373 460.214 30.072C460.918 30.292 461.534 30.5853 462.062 30.952L465.406 24.198C464.804 23.7727 464.049 23.428 463.14 23.164C462.23 22.9 461.358 22.768 460.522 22.768C459.158 22.768 457.86 23.1127 456.628 23.802C455.396 24.4767 454.332 25.43 453.438 26.662V23.472H445.408V46ZM468.793 46H476.823V33.152C476.823 31.9347 477.204 30.9447 477.967 30.182C478.744 29.4047 479.778 29.016 481.069 29.016C482.345 29.016 483.357 29.412 484.105 30.204C484.853 30.9813 485.227 32.0447 485.227 33.394V46H493.257V31.678C493.257 29.9473 492.868 28.4147 492.091 27.08C491.328 25.7307 490.272 24.6747 488.923 23.912C487.588 23.1493 486.063 22.768 484.347 22.768C482.91 22.768 481.531 23.0393 480.211 23.582C478.906 24.1247 477.776 24.8507 476.823 25.76V23.472H468.793V46ZM507.006 46.704C510.336 46.704 512.91 46.0367 514.728 44.702C516.547 43.3673 517.456 41.446 517.456 38.938C517.456 37.6033 517.214 36.5327 516.73 35.726C516.246 34.9047 515.586 34.2447 514.75 33.746C513.914 33.2473 512.968 32.8147 511.912 32.448C511.296 32.228 510.614 31.9787 509.866 31.7C509.133 31.4067 508.495 31.084 507.952 30.732C507.424 30.38 507.16 29.9913 507.16 29.566C507.16 29.17 507.358 28.84 507.754 28.576C508.165 28.312 508.715 28.18 509.404 28.18C510.739 28.18 512.44 28.6933 514.508 29.72L517.104 24.462C513.995 23.362 511.406 22.812 509.338 22.812C507.417 22.812 505.716 23.1347 504.234 23.78C502.753 24.4107 501.594 25.2833 500.758 26.398C499.922 27.5127 499.504 28.8033 499.504 30.27C499.504 31.4287 499.754 32.382 500.252 33.13C500.766 33.878 501.426 34.494 502.232 34.978C503.039 35.462 503.897 35.902 504.806 36.298C506.302 36.9287 507.38 37.4053 508.04 37.728C508.7 38.036 509.03 38.5347 509.03 39.224C509.03 40.28 508.363 40.808 507.028 40.808C505.195 40.808 503.244 39.9647 501.176 38.278L497.92 43.756C500.091 45.7213 503.12 46.704 507.006 46.704ZM523.642 46H531.672V33.152C531.672 31.9347 532.053 30.9373 532.816 30.16C533.593 29.3827 534.627 28.994 535.918 28.994C537.194 28.994 538.206 29.39 538.954 30.182C539.702 30.974 540.076 32.0447 540.076 33.394V46H548.106V31.678C548.106 29.9473 547.717 28.4147 546.94 27.08C546.177 25.7307 545.121 24.6747 543.772 23.912C542.437 23.1493 540.912 22.768 539.196 22.768C537.758 22.768 536.38 23.0393 535.06 23.582C533.754 24.1247 532.625 24.8507 531.672 25.76V8.16H523.642V46ZM564.842 46.704C567.584 46.704 570.026 45.692 572.168 43.668V46H580.198V23.472H572.168V25.54C571.273 24.6747 570.188 24 568.912 23.516C567.636 23.0173 566.279 22.768 564.842 22.768C562.671 22.768 560.742 23.296 559.056 24.352C557.384 25.3933 556.071 26.816 555.118 28.62C554.164 30.424 553.688 32.448 553.688 34.692C553.688 37.0093 554.186 39.0773 555.184 40.896C556.181 42.7 557.523 44.1227 559.21 45.164C560.896 46.1907 562.774 46.704 564.842 46.704ZM567.262 39.906C565.795 39.906 564.578 39.422 563.61 38.454C562.642 37.4713 562.158 36.232 562.158 34.736C562.158 33.2547 562.642 32.0227 563.61 31.04C564.578 30.0573 565.795 29.566 567.262 29.566C568.743 29.566 569.953 30.0573 570.892 31.04C571.845 32.008 572.322 33.24 572.322 34.736C572.322 36.232 571.845 37.4713 570.892 38.454C569.953 39.422 568.743 39.906 567.262 39.906ZM588.029 46H596.059V8.16H588.029V46ZM613.245 46.704C615.988 46.704 618.43 45.692 620.571 43.668V46H628.601V23.472H620.571V25.54C619.677 24.6747 618.591 24 617.315 23.516C616.039 23.0173 614.683 22.768 613.245 22.768C611.075 22.768 609.146 23.296 607.459 24.352C605.787 25.3933 604.475 26.816 603.521 28.62C602.568 30.424 602.091 32.448 602.091 34.692C602.091 37.0093 602.59 39.0773 603.587 40.896C604.585 42.7 605.927 44.1227 607.613 45.164C609.3 46.1907 611.177 46.704 613.245 46.704ZM615.665 39.906C614.199 39.906 612.981 39.422 612.013 38.454C611.045 37.4713 610.561 36.232 610.561 34.736C610.561 33.2547 611.045 32.0227 612.013 31.04C612.981 30.0573 614.199 29.566 615.665 29.566C617.147 29.566 618.357 30.0573 619.295 31.04C620.249 32.008 620.725 33.24 620.725 34.736C620.725 36.232 620.249 37.4713 619.295 38.454C618.357 39.422 617.147 39.906 615.665 39.906Z" fill="#1E3C74"/>
<path d="M3.574 46H3.074V46.5H3.574V46ZM23.77 44.768L23.98 45.2218L23.9816 45.221L23.77 44.768ZM27.906 41.204L27.4834 40.9369L27.4827 40.9379L27.906 41.204ZM27.4 29.632L27.0219 29.9592L27.4 29.632ZM21.68 26.728L21.4444 26.287L20.1441 26.9818L21.5987 27.2214L21.68 26.728ZM23.176 11.966L22.8727 12.3635L22.8741 12.3646L23.176 11.966ZM3.574 9.7V9.2H3.074V9.7H3.574ZM12.066 23.802H11.566V24.302H12.066V23.802ZM12.066 16.234V15.734H11.566V16.234H12.066ZM12.066 39.444H11.566V39.944H12.066V39.444ZM12.066 31.106V30.606H11.566V31.106H12.066ZM3.574 46.5H17.478V45.5H3.574V46.5ZM17.478 46.5C19.9537 46.5 22.1258 46.0799 23.98 45.2218L23.56 44.3142C21.8649 45.0988 19.8423 45.5 17.478 45.5V46.5ZM23.9816 45.221C25.8503 44.348 27.3058 43.0984 28.3293 41.4701L27.4827 40.9379C26.5702 42.3896 25.2684 43.516 23.5584 44.315L23.9816 45.221ZM28.3287 41.4711C29.37 39.8236 29.88 37.872 29.88 35.638H28.88C28.88 37.716 28.4073 39.4751 27.4834 40.9369L28.3287 41.4711ZM29.88 35.638C29.88 33.0677 29.1936 30.9405 27.7781 29.3048L27.0219 29.9592C28.2464 31.3741 28.88 33.2509 28.88 35.638H29.88ZM27.7781 29.3048C26.3638 27.6706 24.34 26.6594 21.7613 26.2346L21.5987 27.2214C24.0067 27.618 25.7962 28.5427 27.0219 29.9592L27.7781 29.3048ZM21.9156 27.169C23.485 26.3305 24.6809 25.2074 25.481 23.7955C26.2798 22.3858 26.668 20.7167 26.668 18.808H25.668C25.668 20.5806 25.3082 22.0722 24.611 23.3025C23.9151 24.5306 22.867 25.5269 21.4444 26.287L21.9156 27.169ZM26.668 18.808C26.668 15.6391 25.625 13.1935 23.4779 11.5674L22.8741 12.3646C24.7163 13.7598 25.668 15.8756 25.668 18.808H26.668ZM23.4793 11.5685C21.3836 9.96952 18.5351 9.2 14.992 9.2V10.2C18.4009 10.2 21.0084 10.9411 22.8727 12.3635L23.4793 11.5685ZM14.992 9.2H3.574V10.2H14.992V9.2ZM3.074 9.7V46H4.074V9.7H3.074ZM12.566 23.802V16.234H11.566V23.802H12.566ZM12.066 16.734H12.946V15.734H12.066V16.734ZM12.946 16.734C14.5708 16.734 15.6986 17.0377 16.4103 17.5652C17.0939 18.0719 17.462 18.8369 17.462 19.952H18.462C18.462 18.5884 17.9941 17.4944 17.0057 16.7618C16.0454 16.05 14.6652 15.734 12.946 15.734V16.734ZM17.462 19.952C17.462 21.1176 17.0892 21.9166 16.4036 22.4429C15.6929 22.9883 14.5681 23.302 12.946 23.302V24.302C14.6679 24.302 16.0511 23.974 17.0124 23.2361C17.9988 22.479 18.462 21.3531 18.462 19.952H17.462ZM12.946 23.302H12.066V24.302H12.946V23.302ZM12.566 39.444V31.106H11.566V39.444H12.566ZM12.066 31.606H14.486V30.606H12.066V31.606ZM14.486 31.606C16.3864 31.606 17.7457 31.9653 18.6366 32.6109L19.2234 31.8011C18.0903 30.98 16.487 30.606 14.486 30.606V31.606ZM18.6366 32.6109C19.504 33.2394 19.948 34.1364 19.948 35.374H20.948C20.948 33.8542 20.38 32.6392 19.2234 31.8011L18.6366 32.6109ZM19.948 35.374C19.948 36.59 19.5137 37.4414 18.6756 38.0135C17.8033 38.6091 16.432 38.944 14.486 38.944V39.944C16.5146 39.944 18.1244 39.6006 19.2394 38.8395C20.3887 38.0549 20.948 36.8713 20.948 35.374H19.948ZM14.486 38.944H12.066V39.944H14.486V38.944ZM51.9957 45.142L52.2298 45.5838L52.231 45.5832L51.9957 45.142ZM56.5497 40.808L56.9829 41.0576L57.2476 40.598L56.7733 40.3608L56.5497 40.808ZM50.7857 37.926L51.0093 37.4788L50.6719 37.3101L50.4171 37.5881L50.7857 37.926ZM48.4537 39.796L48.2336 39.347L48.23 39.3488L48.4537 39.796ZM42.0737 39.136L41.7414 39.5098L41.7478 39.5152L42.0737 39.136ZM40.6877 35.836V35.336H40.1877V35.836H40.6877ZM56.9017 35.836V36.336H57.3583L57.3996 35.8813L56.9017 35.836ZM56.9677 34.868L56.4697 34.8227L56.4677 34.8453V34.868H56.9677ZM55.4937 28.312L55.0595 28.5601L55.0604 28.5616L55.4937 28.312ZM51.3357 24.242L51.0919 24.6786L51.0962 24.6809L51.3357 24.242ZM38.6857 24.352L38.4462 23.913L38.4448 23.9138L38.6857 24.352ZM34.1317 40.852L33.7084 41.1182L33.7094 41.1198L34.1317 40.852ZM38.7737 45.142L38.5356 45.5817L38.5396 45.5838L38.7737 45.142ZM40.9297 31.788L40.4309 31.7534L40.3937 32.288H40.9297V31.788ZM42.1177 29.324L42.4339 29.7114L42.4385 29.7075L42.1177 29.324ZM49.1137 31.788V32.288H49.702L49.6071 31.7074L49.1137 31.788ZM45.4177 47.204C47.9119 47.204 50.1861 46.6667 52.2298 45.5838L51.7616 44.7002C49.8746 45.7 47.7634 46.204 45.4177 46.204V47.204ZM52.231 45.5832C54.2883 44.4859 55.8773 42.977 56.9829 41.0576L56.1164 40.5584C55.11 42.3056 53.663 43.6861 51.7604 44.7008L52.231 45.5832ZM56.7733 40.3608L51.0093 37.4788L50.562 38.3732L56.326 41.2552L56.7733 40.3608ZM50.4171 37.5881C49.6358 38.4405 48.907 39.017 48.2336 39.347L48.6737 40.245C49.4964 39.8417 50.3222 39.1715 51.1542 38.2639L50.4171 37.5881ZM48.23 39.3488C47.5786 39.6745 46.8 39.846 45.8797 39.846V40.846C46.9247 40.846 47.862 40.6508 48.6773 40.2432L48.23 39.3488ZM45.8797 39.846C44.3649 39.846 43.2237 39.4651 42.3995 38.7568L41.7478 39.5152C42.8009 40.4203 44.197 40.846 45.8797 40.846V39.846ZM42.4058 38.7623C41.6016 38.0474 41.1877 37.0902 41.1877 35.836H40.1877C40.1877 37.3391 40.6977 38.5819 41.7415 39.5097L42.4058 38.7623ZM40.6877 36.336H56.9017V35.336H40.6877V36.336ZM57.3996 35.8813C57.4433 35.4011 57.4677 35.0558 57.4677 34.868H56.4677C56.4677 35.0028 56.4481 35.3029 56.4037 35.7907L57.3996 35.8813ZM57.4656 34.9133C57.4819 34.7345 57.4897 34.5432 57.4897 34.34H56.4897C56.4897 34.5181 56.4828 34.6788 56.4697 34.8227L57.4656 34.9133ZM57.4897 34.34C57.4897 31.9773 56.974 29.8794 55.9269 28.0623L55.0604 28.5616C56.008 30.2059 56.4897 32.1267 56.4897 34.34H57.4897ZM55.9278 28.0639C54.8842 26.2377 53.4306 24.8151 51.5751 23.8031L51.0962 24.6809C52.7901 25.6049 54.1084 26.8956 55.0595 28.5601L55.9278 28.0639ZM51.5794 23.8054C49.7335 22.7748 47.5935 22.268 45.1757 22.268V23.268C47.4511 23.268 49.4178 23.7439 51.0919 24.6786L51.5794 23.8054ZM45.1757 22.268C42.7085 22.268 40.4618 22.8137 38.4462 23.9131L38.9251 24.7909C40.7816 23.7783 42.8614 23.268 45.1757 23.268V22.268ZM38.4448 23.9138C36.4511 25.0096 34.8618 26.4982 33.6859 28.3767L34.5335 28.9073C35.6161 27.1778 37.0775 25.8064 38.9265 24.7902L38.4448 23.9138ZM33.6859 28.3767C32.504 30.2646 31.9157 32.3815 31.9157 34.714H32.9157C32.9157 32.5585 33.4567 30.6274 34.5335 28.9073L33.6859 28.3767ZM31.9157 34.714C31.9157 37.0758 32.5113 39.2151 33.7084 41.1182L34.5549 40.5858C33.464 38.8516 32.9157 36.8989 32.9157 34.714H31.9157ZM33.7094 41.1198C34.9009 42.9987 36.5129 44.4867 38.5356 45.5817L39.0117 44.7023C37.1331 43.6853 35.6504 42.3133 34.5539 40.5842L33.7094 41.1198ZM38.5396 45.5838C40.5845 46.6673 42.881 47.204 45.4177 47.204V46.204C43.0263 46.204 40.8935 45.6993 39.0078 44.7002L38.5396 45.5838ZM41.4285 31.8226C41.4937 30.883 41.8376 30.198 42.4338 29.7113L41.8015 28.9367C40.9603 29.6233 40.5123 30.581 40.4309 31.7534L41.4285 31.8226ZM42.4385 29.7075C43.0442 29.2006 43.8804 28.922 44.9997 28.922V27.922C43.7136 27.922 42.6284 28.2447 41.7968 28.9405L42.4385 29.7075ZM44.9997 28.922C46.1117 28.922 46.9236 29.1841 47.4935 29.6505C48.0606 30.1145 48.4508 30.8319 48.6202 31.8686L49.6071 31.7074C49.4099 30.5001 48.931 29.5345 48.1268 28.8765C47.3254 28.2209 46.2636 27.922 44.9997 27.922V28.922ZM49.1137 31.288H40.9297V32.288H49.1137V31.288ZM87.1554 46.33L87.2719 46.8163L87.1554 46.33ZM89.9934 45.274L90.2291 45.715L90.5935 45.5202L90.4709 45.1257L89.9934 45.274ZM87.9914 38.828L88.4689 38.6797L88.2595 38.0053L87.6929 38.4269L87.9914 38.828ZM84.3834 29.566V29.066H83.8834V29.566H84.3834ZM89.0914 29.566V30.066H89.5914V29.566H89.0914ZM89.0914 23.472H89.5914V22.972H89.0914V23.472ZM84.3834 23.472H83.8834V23.972H84.3834V23.472ZM84.3834 15.024H84.8834V14.524H84.3834V15.024ZM76.3534 15.024V14.524H75.8534V15.024H76.3534ZM76.3534 23.472V23.972H76.8534V23.472H76.3534ZM73.0754 23.472V22.972H72.5754V23.472H73.0754ZM73.0754 29.566H72.5754V30.066H73.0754V29.566ZM76.3534 29.566H76.8534V29.066H76.3534V29.566ZM78.3994 44.394L78.0251 44.7255L78.3994 44.394ZM84.0974 47.204C85.1367 47.204 86.1952 47.0741 87.2719 46.8163L87.039 45.8437C86.033 46.0846 85.0528 46.204 84.0974 46.204V47.204ZM87.2719 46.8163C88.3502 46.5581 89.3369 46.1918 90.2291 45.715L89.7578 44.833C88.9486 45.2655 88.0433 45.6033 87.039 45.8437L87.2719 46.8163ZM90.4709 45.1257L88.4689 38.6797L87.5139 38.9763L89.5159 45.4223L90.4709 45.1257ZM87.6929 38.4269C87.1293 38.8463 86.5935 39.032 86.0774 39.032V40.032C86.8521 40.032 87.5922 39.7483 88.2899 39.2291L87.6929 38.4269ZM86.0774 39.032C85.6263 39.032 85.3654 38.8945 85.2001 38.6841C85.0167 38.4507 84.8834 38.0428 84.8834 37.376H83.8834C83.8834 38.1465 84.0325 38.8166 84.4138 39.3019C84.8131 39.8101 85.3993 40.032 86.0774 40.032V39.032ZM84.8834 37.376V29.566H83.8834V37.376H84.8834ZM84.3834 30.066H89.0914V29.066H84.3834V30.066ZM89.5914 29.566V23.472H88.5914V29.566H89.5914ZM89.0914 22.972H84.3834V23.972H89.0914V22.972ZM84.8834 23.472V15.024H83.8834V23.472H84.8834ZM84.3834 14.524H76.3534V15.524H84.3834V14.524ZM75.8534 15.024V23.472H76.8534V15.024H75.8534ZM76.3534 22.972H73.0754V23.972H76.3534V22.972ZM72.5754 23.472V29.566H73.5754V23.472H72.5754ZM73.0754 30.066H76.3534V29.066H73.0754V30.066ZM75.8534 29.566V37.97H76.8534V29.566H75.8534ZM75.8534 37.97C75.8534 40.7935 76.5564 43.0673 78.0251 44.7255L78.7737 44.0625C77.5145 42.6407 76.8534 40.6318 76.8534 37.97H75.8534ZM78.0251 44.7255C79.5016 46.3925 81.5484 47.204 84.0974 47.204V46.204C81.7771 46.204 80.0253 45.4755 78.7737 44.0625L78.0251 44.7255ZM95.831 46H95.331V46.5H95.831V46ZM103.861 46V46.5H104.361V46H103.861ZM105.005 30.16L104.651 29.8064L104.648 29.8098L105.005 30.16ZM112.265 46H111.765V46.5H112.265V46ZM120.295 46V46.5H120.795V46H120.295ZM119.129 27.08L118.694 27.326L118.697 27.3316L119.129 27.08ZM115.961 23.912L115.713 24.3461L115.715 24.3473L115.961 23.912ZM107.249 23.582L107.059 23.1195L107.057 23.1203L107.249 23.582ZM103.861 25.76H103.361V26.9279L104.206 26.1218L103.861 25.76ZM103.861 8.16H104.361V7.66H103.861V8.16ZM95.831 8.16V7.66H95.331V8.16H95.831ZM95.831 46.5H103.861V45.5H95.831V46.5ZM104.361 46V33.152H103.361V46H104.361ZM104.361 33.152C104.361 32.0488 104.702 31.1827 105.362 30.5102L104.648 29.8098C103.783 30.692 103.361 31.8205 103.361 33.152H104.361ZM105.359 30.5136C106.026 29.8462 106.924 29.494 108.107 29.494V28.494C106.709 28.494 105.539 28.9191 104.651 29.8064L105.359 30.5136ZM108.107 29.494C109.271 29.494 110.142 29.8506 110.779 30.5253L111.507 29.8387C110.648 28.9294 109.495 28.494 108.107 28.494V29.494ZM110.779 30.5253C111.42 31.2036 111.765 32.1403 111.765 33.394H112.765C112.765 31.949 112.362 30.7444 111.507 29.8387L110.779 30.5253ZM111.765 33.394V46H112.765V33.394H111.765ZM112.265 46.5H120.295V45.5H112.265V46.5ZM120.795 46V31.678H119.795V46H120.795ZM120.795 31.678C120.795 29.8698 120.388 28.2483 119.561 26.8284L118.697 27.3316C119.425 28.581 119.795 30.0248 119.795 31.678H120.795ZM119.564 26.834C118.757 25.4055 117.635 24.2841 116.207 23.4767L115.715 24.3473C116.985 25.0652 117.976 26.0558 118.694 27.326L119.564 26.834ZM116.209 23.4779C114.79 22.6672 113.178 22.268 111.385 22.268V23.268C113.024 23.268 114.462 23.6315 115.713 24.3461L116.209 23.4779ZM111.385 22.268C109.883 22.268 108.44 22.5519 107.059 23.1196L107.439 24.0444C108.698 23.5268 110.012 23.268 111.385 23.268V22.268ZM107.057 23.1203C105.699 23.6848 104.517 24.4434 103.516 25.3982L104.206 26.1218C105.112 25.2579 106.188 24.5645 107.441 24.0437L107.057 23.1203ZM104.361 25.76V8.16H103.361V25.76H104.361ZM103.861 7.66H95.831V8.66H103.861V7.66ZM95.331 8.16V46H96.331V8.16H95.331ZM145.193 45.142L145.427 45.5838L145.428 45.5832L145.193 45.142ZM149.747 40.808L150.18 41.0576L150.445 40.598L149.971 40.3608L149.747 40.808ZM143.983 37.926L144.207 37.4788L143.869 37.3101L143.615 37.5881L143.983 37.926ZM141.651 39.796L141.431 39.347L141.428 39.3488L141.651 39.796ZM135.271 39.136L134.939 39.5098L134.945 39.5152L135.271 39.136ZM133.885 35.836V35.336H133.385V35.836H133.885ZM150.099 35.836V36.336H150.556L150.597 35.8813L150.099 35.836ZM150.165 34.868L149.667 34.8227L149.665 34.8453V34.868H150.165ZM148.691 28.312L148.257 28.5601L148.258 28.5616L148.691 28.312ZM144.533 24.242L144.289 24.6786L144.294 24.6809L144.533 24.242ZM131.883 24.352L131.644 23.913L131.642 23.9138L131.883 24.352ZM127.329 40.852L126.906 41.1182L126.907 41.1198L127.329 40.852ZM131.971 45.142L131.733 45.5817L131.737 45.5838L131.971 45.142ZM134.127 31.788L133.628 31.7534L133.591 32.288H134.127V31.788ZM135.315 29.324L135.631 29.7114L135.636 29.7075L135.315 29.324ZM142.311 31.788V32.288H142.899L142.805 31.7074L142.311 31.788ZM138.615 47.204C141.109 47.204 143.384 46.6667 145.427 45.5838L144.959 44.7002C143.072 45.7 140.961 46.204 138.615 46.204V47.204ZM145.428 45.5832C147.486 44.4859 149.075 42.977 150.18 41.0576L149.314 40.5584C148.308 42.3056 146.86 43.6861 144.958 44.7008L145.428 45.5832ZM149.971 40.3608L144.207 37.4788L143.76 38.3732L149.524 41.2552L149.971 40.3608ZM143.615 37.5881C142.833 38.4405 142.104 39.017 141.431 39.347L141.871 40.245C142.694 39.8417 143.52 39.1715 144.352 38.2639L143.615 37.5881ZM141.428 39.3488C140.776 39.6745 139.997 39.846 139.077 39.846V40.846C140.122 40.846 141.06 40.6508 141.875 40.2432L141.428 39.3488ZM139.077 39.846C137.562 39.846 136.421 39.4651 135.597 38.7568L134.945 39.5152C135.998 40.4203 137.395 40.846 139.077 40.846V39.846ZM135.603 38.7623C134.799 38.0474 134.385 37.0902 134.385 35.836H133.385C133.385 37.3391 133.895 38.5819 134.939 39.5097L135.603 38.7623ZM133.885 36.336H150.099V35.336H133.885V36.336ZM150.597 35.8813C150.641 35.4011 150.665 35.0558 150.665 34.868H149.665C149.665 35.0028 149.646 35.3029 149.601 35.7907L150.597 35.8813ZM150.663 34.9133C150.679 34.7345 150.687 34.5432 150.687 34.34H149.687C149.687 34.5181 149.68 34.6788 149.667 34.8227L150.663 34.9133ZM150.687 34.34C150.687 31.9773 150.171 29.8794 149.124 28.0623L148.258 28.5616C149.205 30.2059 149.687 32.1267 149.687 34.34H150.687ZM149.125 28.0639C148.082 26.2377 146.628 24.8151 144.773 23.8031L144.294 24.6809C145.988 25.6049 147.306 26.8956 148.257 28.5601L149.125 28.0639ZM144.777 23.8054C142.931 22.7748 140.791 22.268 138.373 22.268V23.268C140.649 23.268 142.615 23.7439 144.289 24.6786L144.777 23.8054ZM138.373 22.268C135.906 22.268 133.659 22.8137 131.644 23.9131L132.123 24.7909C133.979 23.7783 136.059 23.268 138.373 23.268V22.268ZM131.642 23.9138C129.649 25.0096 128.059 26.4982 126.883 28.3767L127.731 28.9073C128.814 27.1778 130.275 25.8064 132.124 24.7902L131.642 23.9138ZM126.883 28.3767C125.701 30.2646 125.113 32.3815 125.113 34.714H126.113C126.113 32.5585 126.654 30.6274 127.731 28.9073L126.883 28.3767ZM125.113 34.714C125.113 37.0758 125.709 39.2151 126.906 41.1182L127.752 40.5858C126.662 38.8516 126.113 36.8989 126.113 34.714H125.113ZM126.907 41.1198C128.098 42.9987 129.71 44.4867 131.733 45.5817L132.209 44.7023C130.331 43.6853 128.848 42.3133 127.751 40.5842L126.907 41.1198ZM131.737 45.5838C133.782 46.6673 136.079 47.204 138.615 47.204V46.204C136.224 46.204 134.091 45.6993 132.205 44.7002L131.737 45.5838ZM134.626 31.8226C134.691 30.883 135.035 30.198 135.631 29.7113L134.999 28.9367C134.158 29.6233 133.71 30.581 133.628 31.7534L134.626 31.8226ZM135.636 29.7075C136.242 29.2006 137.078 28.922 138.197 28.922V27.922C136.911 27.922 135.826 28.2447 134.994 28.9405L135.636 29.7075ZM138.197 28.922C139.309 28.922 140.121 29.1841 140.691 29.6505C141.258 30.1145 141.648 30.8319 141.818 31.8686L142.805 31.7074C142.607 30.5001 142.128 29.5345 141.324 28.8765C140.523 28.2209 139.461 27.922 138.197 27.922V28.922ZM142.311 31.288H134.127V32.288H142.311V31.288ZM169.903 46H169.403V46.5H169.903V46ZM177.933 46V46.5H178.433V46H177.933ZM177.933 29.566V29.066H177.433V29.566H177.933ZM183.103 29.566V30.066H183.603V29.566H183.103ZM183.103 23.472H183.603V22.972H183.103V23.472ZM177.933 23.472H177.433V23.972H177.933V23.472ZM178.307 15.86L177.83 15.7094L177.829 15.7148L178.307 15.86ZM182.641 15.178L182.395 15.6133L182.855 15.8734L183.089 15.3995L182.641 15.178ZM185.413 9.568L185.861 9.78949L186.039 9.42885L185.725 9.17756L185.413 9.568ZM182.443 8.05L182.292 8.5267L182.294 8.52724L182.443 8.05ZM174.105 8.908L174.387 9.32054L174.388 9.31989L174.105 8.908ZM170.981 12.824L170.522 12.6246L170.521 12.628L170.981 12.824ZM169.903 23.472V23.972H170.403V23.472H169.903ZM166.625 23.472V22.972H166.125V23.472H166.625ZM166.625 29.566H166.125V30.066H166.625V29.566ZM169.903 29.566H170.403V29.066H169.903V29.566ZM169.903 46.5H177.933V45.5H169.903V46.5ZM178.433 46V29.566H177.433V46H178.433ZM177.933 30.066H183.103V29.066H177.933V30.066ZM183.603 29.566V23.472H182.603V29.566H183.603ZM183.103 22.972H177.933V23.972H183.103V22.972ZM178.433 23.472V19.006H177.433V23.472H178.433ZM178.433 19.006C178.433 17.7577 178.555 16.7626 178.785 16.0052L177.829 15.7148C177.56 16.6001 177.433 17.7023 177.433 19.006H178.433ZM178.784 16.0106C178.883 15.6973 179.05 15.4874 179.281 15.347C179.523 15.2002 179.875 15.106 180.375 15.106V14.106C179.76 14.106 179.21 14.2208 178.763 14.492C178.305 14.7695 177.995 15.1867 177.83 15.7094L178.784 16.0106ZM180.375 15.106C181.132 15.106 181.801 15.2777 182.395 15.6133L182.887 14.7427C182.131 14.3156 181.29 14.106 180.375 14.106V15.106ZM183.089 15.3995L185.861 9.78949L184.965 9.3465L182.193 14.9565L183.089 15.3995ZM185.725 9.17756C184.862 8.48679 183.814 7.95452 182.592 7.57276L182.294 8.52724C183.419 8.87881 184.351 9.35854 185.101 9.95843L185.725 9.17756ZM182.594 7.5733C181.388 7.19175 180.171 7 178.945 7V8C180.065 8 181.18 8.17492 182.292 8.5267L182.594 7.5733ZM178.945 7C176.994 7 175.279 7.49303 173.821 8.49611L174.388 9.31989C175.659 8.44563 177.17 8 178.945 8V7ZM173.822 8.49545C172.386 9.47898 171.288 10.8628 170.522 12.6246L171.439 13.0234C172.14 11.4118 173.125 10.185 174.387 9.32054L173.822 8.49545ZM170.521 12.628C169.77 14.3896 169.403 16.439 169.403 18.764H170.403C170.403 16.5424 170.754 14.6317 171.441 13.02L170.521 12.628ZM169.403 18.764V23.472H170.403V18.764H169.403ZM169.903 22.972H166.625V23.972H169.903V22.972ZM166.125 23.472V29.566H167.125V23.472H166.125ZM166.625 30.066H169.903V29.066H166.625V30.066ZM169.403 29.566V46H170.403V29.566H169.403ZM204.587 43.668H205.087V42.5074L204.244 43.3046L204.587 43.668ZM204.587 46H204.087V46.5H204.587V46ZM212.617 46V46.5H213.117V46H212.617ZM212.617 23.472H213.117V22.972H212.617V23.472ZM204.587 23.472V22.972H204.087V23.472H204.587ZM204.587 25.54L204.24 25.8994L205.087 26.7192V25.54H204.587ZM201.331 23.516L201.149 23.9817L201.154 23.9835L201.331 23.516ZM191.475 24.352L191.74 24.7764L191.741 24.7758L191.475 24.352ZM187.537 28.62L187.979 28.8536L187.537 28.62ZM187.603 40.896L187.165 41.1364L187.166 41.1379L187.603 40.896ZM191.629 45.164L191.367 45.5895L191.369 45.5911L191.629 45.164ZM196.029 38.454L195.673 38.8049L195.676 38.8076L196.029 38.454ZM196.029 31.04L195.673 30.6891L196.029 31.04ZM203.311 31.04L202.95 31.3854L202.955 31.3908L203.311 31.04ZM203.311 38.454L202.952 38.1058L202.952 38.1059L203.311 38.454ZM197.261 47.204C200.142 47.204 202.704 46.136 204.931 44.0314L204.244 43.3046C202.188 45.248 199.866 46.204 197.261 46.204V47.204ZM204.087 43.668V46H205.087V43.668H204.087ZM204.587 46.5H212.617V45.5H204.587V46.5ZM213.117 46V23.472H212.117V46H213.117ZM212.617 22.972H204.587V23.972H212.617V22.972ZM204.087 23.472V25.54H205.087V23.472H204.087ZM204.935 25.1806C203.987 24.2637 202.842 23.5543 201.509 23.0485L201.154 23.9835C202.373 24.4457 203.398 25.0857 204.24 25.8994L204.935 25.1806ZM201.513 23.0503C200.176 22.5279 198.758 22.268 197.261 22.268V23.268C198.639 23.268 199.934 23.5068 201.149 23.9817L201.513 23.0503ZM197.261 22.268C195.006 22.268 192.983 22.8179 191.21 23.9282L191.741 24.7758C193.341 23.7741 195.176 23.268 197.261 23.268V22.268ZM191.211 23.9276C189.461 25.0174 188.088 26.5071 187.095 28.3864L187.979 28.8536C188.893 27.1249 190.145 25.7693 191.74 24.7764L191.211 23.9276ZM187.095 28.3864C186.1 30.2694 185.607 32.3749 185.607 34.692H186.607C186.607 32.5211 187.068 30.5786 187.979 28.8536L187.095 28.3864ZM185.607 34.692C185.607 37.0833 186.123 39.2357 187.165 41.1364L188.042 40.6556C187.089 38.9189 186.607 36.9353 186.607 34.692H185.607ZM187.166 41.1379C188.203 43.014 189.604 44.5011 191.367 45.5894L191.892 44.7386C190.281 43.7442 188.998 42.386 188.041 40.6541L187.166 41.1379ZM191.369 45.5911C193.138 46.6678 195.106 47.204 197.261 47.204V46.204C195.28 46.204 193.494 45.7136 191.889 44.7369L191.369 45.5911ZM199.681 39.406C198.337 39.406 197.25 38.9675 196.383 38.1004L195.676 38.8076C196.745 39.8765 198.093 40.406 199.681 40.406V39.406ZM196.386 38.1031C195.518 37.2223 195.077 36.1129 195.077 34.736H194.077C194.077 36.3511 194.605 37.7203 195.673 38.8049L196.386 38.1031ZM195.077 34.736C195.077 33.3753 195.517 32.2726 196.386 31.3909L195.673 30.6891C194.606 31.7727 194.077 33.1341 194.077 34.736H195.077ZM196.386 31.3909C197.253 30.5101 198.339 30.066 199.681 30.066V29.066C198.09 29.066 196.742 29.6045 195.673 30.6891L196.386 31.3909ZM199.681 30.066C201.04 30.066 202.114 30.5109 202.95 31.3854L203.673 30.6946C202.631 29.6038 201.286 29.066 199.681 29.066V30.066ZM202.955 31.3908C203.807 32.2554 204.241 33.3567 204.241 34.736H205.241C205.241 33.1233 204.723 31.7606 203.668 30.6892L202.955 31.3908ZM204.241 34.736C204.241 36.1152 203.806 37.2255 202.952 38.1058L203.67 38.8022C204.723 37.7171 205.241 36.3488 205.241 34.736H204.241ZM202.952 38.1059C202.118 38.9667 201.042 39.406 199.681 39.406V40.406C201.283 40.406 202.628 39.8773 203.67 38.8021L202.952 38.1059ZM235.189 46.088L235.339 46.565L235.189 46.088ZM238.357 44.592L238.651 44.9964L238.991 44.7489L238.806 44.3713L238.357 44.592ZM235.695 39.18L236.144 38.9593L235.881 38.4249L235.4 38.7763L235.695 39.18ZM234.221 39.884L234.365 40.363L234.372 40.3606L234.221 39.884ZM228.259 38.564L227.893 38.9048L227.898 38.91L228.259 38.564ZM227.357 32.228L226.908 32.0075L226.907 32.0108L227.357 32.228ZM229.205 30.16L229.481 30.5772L229.486 30.5737L229.205 30.16ZM235.695 30.292L235.402 30.6975L235.882 31.0437L236.144 30.5127L235.695 30.292ZM238.357 24.88L238.806 25.1007L238.986 24.7343L238.663 24.4845L238.357 24.88ZM235.167 23.384L235.02 23.8619L235.026 23.8638L235.167 23.384ZM225.949 23.758L226.142 24.2192L226.146 24.2176L225.949 23.758ZM219.239 30.27L218.783 30.0652L218.781 30.0691L219.239 30.27ZM219.305 39.4L218.852 39.6107L218.852 39.6125L219.305 39.4ZM226.147 45.78L226.333 45.3158L226.147 45.78ZM231.031 47.204C232.545 47.204 233.982 46.992 235.339 46.565L235.039 45.611C233.786 46.0054 232.45 46.204 231.031 46.204V47.204ZM235.339 46.565C236.678 46.1436 237.788 45.6242 238.651 44.9964L238.063 44.1876C237.313 44.7331 236.31 45.211 235.039 45.611L235.339 46.565ZM238.806 44.3713L236.144 38.9593L235.246 39.4007L237.908 44.8127L238.806 44.3713ZM235.4 38.7763C235.074 39.0143 234.636 39.2279 234.07 39.4074L234.372 40.3606C235.009 40.1587 235.553 39.903 235.99 39.5837L235.4 38.7763ZM234.077 39.4051C233.543 39.5655 232.954 39.648 232.307 39.648V40.648C233.039 40.648 233.726 40.5545 234.365 40.3629L234.077 39.4051ZM232.307 39.648C230.734 39.648 229.523 39.1603 228.62 38.218L227.898 38.91C229.019 40.0797 230.507 40.648 232.307 40.648V39.648ZM228.625 38.2232C227.715 37.2463 227.263 36.0926 227.263 34.736H226.263C226.263 36.3421 226.808 37.7403 227.893 38.9048L228.625 38.2232ZM227.263 34.736C227.263 33.9659 227.442 33.2037 227.807 32.4451L226.907 32.0108C226.48 32.8949 226.263 33.8048 226.263 34.736H227.263ZM227.806 32.4485C228.175 31.6968 228.729 31.0737 229.481 30.5772L228.929 29.7428C228.038 30.3316 227.36 31.0872 226.908 32.0075L227.806 32.4485ZM229.486 30.5737C230.207 30.0842 231.123 29.824 232.263 29.824V28.824C230.968 28.824 229.846 29.1211 228.924 29.7463L229.486 30.5737ZM232.263 29.824C233.579 29.824 234.613 30.1281 235.402 30.6975L235.987 29.8865C234.988 29.1652 233.733 28.824 232.263 28.824V29.824ZM236.144 30.5127L238.806 25.1007L237.908 24.6593L235.246 30.0713L236.144 30.5127ZM238.663 24.4845C237.82 23.8324 236.693 23.3108 235.308 22.9042L235.026 23.8638C236.339 24.2492 237.339 24.7249 238.051 25.2755L238.663 24.4845ZM235.314 22.9061C233.93 22.4802 232.487 22.268 230.987 22.268V23.268C232.391 23.268 233.735 23.4665 235.02 23.8619L235.314 22.9061ZM230.987 22.268C229.106 22.268 227.359 22.6095 225.752 23.2984L226.146 24.2176C227.619 23.5865 229.23 23.268 230.987 23.268V22.268ZM225.756 23.2969C224.159 23.9659 222.763 24.8882 221.572 26.0642L222.274 26.7758C223.371 25.6931 224.659 24.8408 226.142 24.2191L225.756 23.2969ZM221.572 26.0642C220.385 27.236 219.454 28.5703 218.783 30.0652L219.695 30.4748C220.315 29.095 221.173 27.8626 222.274 26.7758L221.572 26.0642ZM218.781 30.0691C218.123 31.5691 217.793 33.1335 217.793 34.758H218.793C218.793 33.2732 219.094 31.8455 219.697 30.4709L218.781 30.0691ZM217.793 34.758C217.793 36.4715 218.145 38.0909 218.852 39.6107L219.758 39.1893C219.115 37.8051 218.793 36.3298 218.793 34.758H217.793ZM218.852 39.6125C219.554 41.1079 220.516 42.428 221.735 43.5708L222.419 42.8412C221.291 41.784 220.405 40.5668 219.758 39.1875L218.852 39.6125ZM221.735 43.5708C222.955 44.7147 224.365 45.6058 225.961 46.2442L226.333 45.3158C224.849 44.7222 223.545 43.8973 222.419 42.8412L221.735 43.5708ZM225.961 46.2442C227.562 46.8847 229.254 47.204 231.031 47.204V46.204C229.376 46.204 227.812 45.9073 226.333 45.3158L225.961 46.2442ZM261.174 45.142L261.409 45.5838L261.41 45.5832L261.174 45.142ZM265.728 40.808L266.162 41.0576L266.426 40.598L265.952 40.3608L265.728 40.808ZM259.964 37.926L260.188 37.4788L259.851 37.3101L259.596 37.5881L259.964 37.926ZM257.632 39.796L257.412 39.347L257.409 39.3488L257.632 39.796ZM251.252 39.136L250.92 39.5098L250.927 39.5152L251.252 39.136ZM249.866 35.836V35.336H249.366V35.836H249.866ZM266.08 35.836V36.336H266.537L266.578 35.8813L266.08 35.836ZM266.146 34.868L265.648 34.8227L265.646 34.8453V34.868H266.146ZM264.672 28.312L264.238 28.5601L264.239 28.5616L264.672 28.312ZM260.514 24.242L260.271 24.6786L260.275 24.6809L260.514 24.242ZM247.864 24.352L247.625 23.913L247.624 23.9138L247.864 24.352ZM243.31 40.852L242.887 41.1182L242.888 41.1198L243.31 40.852ZM247.952 45.142L247.714 45.5817L247.718 45.5838L247.952 45.142ZM250.108 31.788L249.61 31.7534L249.572 32.288H250.108V31.788ZM251.296 29.324L251.613 29.7114L251.617 29.7075L251.296 29.324ZM258.292 31.788V32.288H258.881L258.786 31.7074L258.292 31.788ZM254.596 47.204C257.091 47.204 259.365 46.6667 261.409 45.5838L260.94 44.7002C259.053 45.7 256.942 46.204 254.596 46.204V47.204ZM261.41 45.5832C263.467 44.4859 265.056 42.977 266.162 41.0576L265.295 40.5584C264.289 42.3056 262.842 43.6861 260.939 44.7008L261.41 45.5832ZM265.952 40.3608L260.188 37.4788L259.741 38.3732L265.505 41.2552L265.952 40.3608ZM259.596 37.5881C258.815 38.4405 258.086 39.017 257.412 39.347L257.852 40.245C258.675 39.8417 259.501 39.1715 260.333 38.2639L259.596 37.5881ZM257.409 39.3488C256.757 39.6745 255.979 39.846 255.058 39.846V40.846C256.103 40.846 257.041 40.6508 257.856 40.2432L257.409 39.3488ZM255.058 39.846C253.544 39.846 252.402 39.4651 251.578 38.7568L250.927 39.5152C251.98 40.4203 253.376 40.846 255.058 40.846V39.846ZM251.585 38.7623C250.78 38.0474 250.366 37.0902 250.366 35.836H249.366C249.366 37.3391 249.876 38.5819 250.92 39.5097L251.585 38.7623ZM249.866 36.336H266.08V35.336H249.866V36.336ZM266.578 35.8813C266.622 35.4011 266.646 35.0558 266.646 34.868H265.646C265.646 35.0028 265.627 35.3029 265.582 35.7907L266.578 35.8813ZM266.644 34.9133C266.661 34.7345 266.668 34.5432 266.668 34.34H265.668C265.668 34.5181 265.662 34.6788 265.648 34.8227L266.644 34.9133ZM266.668 34.34C266.668 31.9773 266.153 29.8794 265.106 28.0623L264.239 28.5616C265.187 30.2059 265.668 32.1267 265.668 34.34H266.668ZM265.107 28.0639C264.063 26.2377 262.609 24.8151 260.754 23.8031L260.275 24.6809C261.969 25.6049 263.287 26.8956 264.238 28.5601L265.107 28.0639ZM260.758 23.8054C258.912 22.7748 256.772 22.268 254.354 22.268V23.268C256.63 23.268 258.597 23.7439 260.271 24.6786L260.758 23.8054ZM254.354 22.268C251.887 22.268 249.641 22.8137 247.625 23.9131L248.104 24.7909C249.96 23.7783 252.04 23.268 254.354 23.268V22.268ZM247.624 23.9138C245.63 25.0096 244.041 26.4982 242.865 28.3767L243.712 28.9073C244.795 27.1778 246.256 25.8064 248.105 24.7902L247.624 23.9138ZM242.865 28.3767C241.683 30.2646 241.094 32.3815 241.094 34.714H242.094C242.094 32.5585 242.635 30.6274 243.712 28.9073L242.865 28.3767ZM241.094 34.714C241.094 37.0758 241.69 39.2151 242.887 41.1182L243.734 40.5858C242.643 38.8516 242.094 36.8989 242.094 34.714H241.094ZM242.888 41.1198C244.08 42.9987 245.692 44.4867 247.714 45.5817L248.19 44.7023C246.312 43.6853 244.829 42.3133 243.733 40.5842L242.888 41.1198ZM247.718 45.5838C249.763 46.6673 252.06 47.204 254.596 47.204V46.204C252.205 46.204 250.072 45.6993 248.186 44.7002L247.718 45.5838ZM250.607 31.8226C250.672 30.883 251.016 30.198 251.613 29.7113L250.98 28.9367C250.139 29.6233 249.691 30.581 249.61 31.7534L250.607 31.8226ZM251.617 29.7075C252.223 29.2006 253.059 28.922 254.178 28.922V27.922C252.892 27.922 251.807 28.2447 250.976 28.9405L251.617 29.7075ZM254.178 28.922C255.29 28.922 256.102 29.1841 256.672 29.6505C257.239 30.1145 257.63 30.8319 257.799 31.8686L258.786 31.7074C258.589 30.5001 258.11 29.5345 257.306 28.8765C256.504 28.2209 255.442 27.922 254.178 27.922V28.922ZM258.292 31.288H250.108V32.288H258.292V31.288ZM303 45.186L303.223 45.6339L303.225 45.6326L303 45.186ZM307.84 40.962L308.257 41.2386L308.258 41.237L307.84 40.962ZM307.84 28.532L307.423 28.807L307.424 28.8086L307.84 28.532ZM303 24.308L302.775 24.7546L302.778 24.7559L303 24.308ZM289.272 24.308L289.495 24.7559L289.497 24.7546L289.272 24.308ZM284.432 28.532L284.849 28.8086L284.85 28.807L284.432 28.532ZM284.432 40.962L284.015 41.237L284.016 41.2386L284.432 40.962ZM289.272 45.186L289.047 45.6326L289.05 45.6339L289.272 45.186ZM292.528 38.454L292.177 38.8102L292.183 38.8154L292.528 38.454ZM292.528 31.018L292.183 30.6566L292.18 30.6591L292.528 31.018ZM299.722 31.018L299.374 31.3769L299.377 31.3794L299.722 31.018ZM299.722 38.454L300.07 38.8129L300.07 38.8128L299.722 38.454ZM296.136 47.204C298.742 47.204 301.107 46.6839 303.223 45.6339L302.778 44.7381C300.816 45.7121 298.605 46.204 296.136 46.204V47.204ZM303.225 45.6326C305.336 44.5694 307.018 43.1048 308.257 41.2386L307.424 40.6854C306.287 42.3979 304.741 43.7493 302.775 44.7394L303.225 45.6326ZM308.258 41.237C309.504 39.3443 310.122 37.1716 310.122 34.736H309.122C309.122 36.9937 308.552 38.9717 307.423 40.687L308.258 41.237ZM310.122 34.736C310.122 32.3004 309.504 30.1343 308.257 28.2554L307.424 28.8086C308.552 30.5084 309.122 32.4782 309.122 34.736H310.122ZM308.258 28.257C307.018 26.3751 305.336 24.9093 303.223 23.8601L302.778 24.7559C304.742 25.7307 306.286 27.0809 307.423 28.807L308.258 28.257ZM303.225 23.8614C301.109 22.7959 298.743 22.268 296.136 22.268V23.268C298.604 23.268 300.814 23.7668 302.775 24.7546L303.225 23.8614ZM296.136 22.268C293.53 22.268 291.163 22.7959 289.047 23.8614L289.497 24.7546C291.458 23.7668 293.668 23.268 296.136 23.268V22.268ZM289.05 23.8601C286.936 24.9093 285.254 26.3751 284.015 28.257L284.85 28.807C285.986 27.0809 287.531 25.7307 289.495 24.7559L289.05 23.8601ZM284.016 28.2554C282.768 30.1343 282.15 32.3004 282.15 34.736H283.15C283.15 32.4782 283.72 30.5084 284.849 28.8086L284.016 28.2554ZM282.15 34.736C282.15 37.1716 282.768 39.3443 284.015 41.237L284.85 40.687C283.72 38.9717 283.15 36.9937 283.15 34.736H282.15ZM284.016 41.2386C285.255 43.1048 286.936 44.5694 289.047 45.6326L289.497 44.7394C287.531 43.7493 285.986 42.3979 284.849 40.6854L284.016 41.2386ZM289.05 45.6339C291.165 46.6839 293.531 47.204 296.136 47.204V46.204C293.667 46.204 291.456 45.7121 289.495 44.7381L289.05 45.6339ZM296.136 39.384C294.854 39.384 293.776 38.955 292.874 38.0926L292.183 38.8154C293.275 39.8597 294.602 40.384 296.136 40.384V39.384ZM292.879 38.0978C292.001 37.2332 291.554 36.1268 291.554 34.736H290.554C290.554 36.3665 291.09 37.7388 292.177 38.8102L292.879 38.0978ZM291.554 34.736C291.554 33.3289 292.002 32.2248 292.876 31.3769L292.18 30.6591C291.089 31.7178 290.554 33.0924 290.554 34.736H291.554ZM292.874 31.3794C293.776 30.517 294.854 30.088 296.136 30.088V29.088C294.602 29.088 293.275 29.6123 292.183 30.6566L292.874 31.3794ZM296.136 30.088C297.418 30.088 298.488 30.5169 299.374 31.3769L300.07 30.6591C298.991 29.6125 297.67 29.088 296.136 29.088V30.088ZM299.377 31.3794C300.264 32.228 300.718 33.3313 300.718 34.736H301.718C301.718 33.0901 301.175 31.7147 300.068 30.6566L299.377 31.3794ZM300.718 34.736C300.718 36.1245 300.265 37.2301 299.374 38.0952L300.07 38.8128C301.174 37.7419 301.718 36.3688 301.718 34.736H300.718ZM299.374 38.0951C298.488 38.9551 297.418 39.384 296.136 39.384V40.384C297.67 40.384 298.991 39.8595 300.07 38.8129L299.374 38.0951ZM316.316 46H315.816V46.5H316.316V46ZM324.346 46V46.5H324.846V46H324.346ZM324.346 29.566V29.066H323.846V29.566H324.346ZM329.516 29.566V30.066H330.016V29.566H329.516ZM329.516 23.472H330.016V22.972H329.516V23.472ZM324.346 23.472H323.846V23.972H324.346V23.472ZM324.72 15.86L324.244 15.7094L324.242 15.7148L324.72 15.86ZM329.054 15.178L328.808 15.6133L329.268 15.8734L329.503 15.3995L329.054 15.178ZM331.826 9.568L332.275 9.78949L332.453 9.42885L332.139 9.17756L331.826 9.568ZM328.856 8.05L328.706 8.5267L328.707 8.52724L328.856 8.05ZM320.518 8.908L320.801 9.32054L320.802 9.31989L320.518 8.908ZM317.394 12.824L316.936 12.6246L316.934 12.628L317.394 12.824ZM316.316 23.472V23.972H316.816V23.472H316.316ZM313.038 23.472V22.972H312.538V23.472H313.038ZM313.038 29.566H312.538V30.066H313.038V29.566ZM316.316 29.566H316.816V29.066H316.316V29.566ZM316.316 46.5H324.346V45.5H316.316V46.5ZM324.846 46V29.566H323.846V46H324.846ZM324.346 30.066H329.516V29.066H324.346V30.066ZM330.016 29.566V23.472H329.016V29.566H330.016ZM329.516 22.972H324.346V23.972H329.516V22.972ZM324.846 23.472V19.006H323.846V23.472H324.846ZM324.846 19.006C324.846 17.7577 324.969 16.7626 325.199 16.0052L324.242 15.7148C323.973 16.6001 323.846 17.7023 323.846 19.006H324.846ZM325.197 16.0106C325.296 15.6973 325.463 15.4874 325.695 15.347C325.937 15.2002 326.289 15.106 326.788 15.106V14.106C326.173 14.106 325.623 14.2208 325.176 14.492C324.718 14.7695 324.409 15.1867 324.244 15.7094L325.197 16.0106ZM326.788 15.106C327.545 15.106 328.215 15.2777 328.808 15.6133L329.3 14.7427C328.545 14.3156 327.704 14.106 326.788 14.106V15.106ZM329.503 15.3995L332.275 9.78949L331.378 9.3465L328.606 14.9565L329.503 15.3995ZM332.139 9.17756C331.275 8.48679 330.227 7.95452 329.006 7.57276L328.707 8.52724C329.832 8.87881 330.764 9.35854 331.514 9.95843L332.139 9.17756ZM329.007 7.5733C327.802 7.19175 326.585 7 325.358 7V8C326.479 8 327.594 8.17492 328.706 8.5267L329.007 7.5733ZM325.358 7C323.408 7 321.693 7.49303 320.235 8.49611L320.802 9.31989C322.072 8.44563 323.584 8 325.358 8V7ZM320.236 8.49545C318.8 9.47898 317.702 10.8628 316.936 12.6246L317.853 13.0234C318.554 11.4118 319.538 10.185 320.801 9.32054L320.236 8.49545ZM316.934 12.628C316.184 14.3896 315.816 16.439 315.816 18.764H316.816C316.816 16.5424 317.168 14.6317 317.854 13.02L316.934 12.628ZM315.816 18.764V23.472H316.816V18.764H315.816ZM316.316 22.972H313.038V23.972H316.316V22.972ZM312.538 23.472V29.566H313.538V23.472H312.538ZM313.038 30.066H316.316V29.066H313.038V30.066ZM315.816 29.566V46H316.816V29.566H315.816ZM347.849 46H347.349V46.5H347.849V46ZM356.319 46V46.5H356.819V46H356.319ZM356.319 9.7H356.819V9.2H356.319V9.7ZM347.849 9.7V9.2H347.349V9.7H347.849ZM347.849 46.5H356.319V45.5H347.849V46.5ZM356.819 46V9.7H355.819V46H356.819ZM356.319 9.2H347.849V10.2H356.319V9.2ZM347.349 9.7V46H348.349V9.7H347.349ZM365.068 46H364.568V46.5H365.068V46ZM373.098 46V46.5H373.598V46H373.098ZM374.242 30.182L373.888 29.8284L374.242 30.182ZM380.38 30.204L380.017 30.5473L380.02 30.5507L380.38 30.204ZM381.502 46H381.002V46.5H381.502V46ZM389.532 46V46.5H390.032V46H389.532ZM388.366 27.08L387.931 27.326L387.934 27.3316L388.366 27.08ZM385.198 23.912L384.95 24.3461L384.952 24.3473L385.198 23.912ZM376.486 23.582L376.296 23.1195L376.294 23.1203L376.486 23.582ZM373.098 25.76H372.598V26.9279L373.443 26.1218L373.098 25.76ZM373.098 23.472H373.598V22.972H373.098V23.472ZM365.068 23.472V22.972H364.568V23.472H365.068ZM365.068 46.5H373.098V45.5H365.068V46.5ZM373.598 46V33.152H372.598V46H373.598ZM373.598 33.152C373.598 32.0487 373.939 31.1921 374.596 30.5356L373.888 29.8284C373.02 30.6973 372.598 31.8207 372.598 33.152H373.598ZM374.596 30.5356C375.263 29.8682 376.161 29.516 377.344 29.516V28.516C375.946 28.516 374.776 28.9411 373.888 29.8284L374.596 30.5356ZM377.344 29.516C378.508 29.516 379.379 29.8726 380.017 30.5473L380.744 29.8607C379.885 28.9514 378.732 28.516 377.344 28.516V29.516ZM380.02 30.5507C380.657 31.2129 381.002 32.1399 381.002 33.394H382.002C382.002 31.9494 381.599 30.7497 380.74 29.8573L380.02 30.5507ZM381.002 33.394V46H382.002V33.394H381.002ZM381.502 46.5H389.532V45.5H381.502V46.5ZM390.032 46V31.678H389.032V46H390.032ZM390.032 31.678C390.032 29.8698 389.625 28.2483 388.798 26.8284L387.934 27.3316C388.662 28.581 389.032 30.0248 389.032 31.678H390.032ZM388.801 26.834C387.994 25.4055 386.873 24.2841 385.444 23.4767L384.952 24.3473C386.222 25.0652 387.213 26.0558 387.931 27.326L388.801 26.834ZM385.446 23.4779C384.027 22.6672 382.415 22.268 380.622 22.268V23.268C382.261 23.268 383.699 23.6315 384.95 24.3461L385.446 23.4779ZM380.622 22.268C379.12 22.268 377.677 22.5519 376.296 23.1196L376.676 24.0444C377.935 23.5268 379.249 23.268 380.622 23.268V22.268ZM376.294 23.1203C374.936 23.6848 373.754 24.4434 372.753 25.3982L373.443 26.1218C374.349 25.2579 375.425 24.5645 376.678 24.0437L376.294 23.1203ZM373.598 25.76V23.472H372.598V25.76H373.598ZM373.098 22.972H365.068V23.972H373.098V22.972ZM364.568 23.472V46H365.568V23.472H364.568ZM408.276 46.33L408.393 46.8163L408.276 46.33ZM411.114 45.274L411.35 45.715L411.714 45.5202L411.592 45.1257L411.114 45.274ZM409.112 38.828L409.59 38.6797L409.38 38.0053L408.814 38.4269L409.112 38.828ZM405.504 29.566V29.066H405.004V29.566H405.504ZM410.212 29.566V30.066H410.712V29.566H410.212ZM410.212 23.472H410.712V22.972H410.212V23.472ZM405.504 23.472H405.004V23.972H405.504V23.472ZM405.504 15.024H406.004V14.524H405.504V15.024ZM397.474 15.024V14.524H396.974V15.024H397.474ZM397.474 23.472V23.972H397.974V23.472H397.474ZM394.196 23.472V22.972H393.696V23.472H394.196ZM394.196 29.566H393.696V30.066H394.196V29.566ZM397.474 29.566H397.974V29.066H397.474V29.566ZM399.52 44.394L399.146 44.7255L399.52 44.394ZM405.218 47.204C406.258 47.204 407.316 47.0741 408.393 46.8163L408.16 45.8437C407.154 46.0846 406.174 46.204 405.218 46.204V47.204ZM408.393 46.8163C409.471 46.5581 410.458 46.1918 411.35 45.715L410.879 44.833C410.07 45.2655 409.164 45.6033 408.16 45.8437L408.393 46.8163ZM411.592 45.1257L409.59 38.6797L408.635 38.9763L410.637 45.4223L411.592 45.1257ZM408.814 38.4269C408.25 38.8463 407.714 39.032 407.198 39.032V40.032C407.973 40.032 408.713 39.7483 409.411 39.2291L408.814 38.4269ZM407.198 39.032C406.747 39.032 406.486 38.8945 406.321 38.6841C406.138 38.4507 406.004 38.0428 406.004 37.376H405.004C405.004 38.1465 405.153 38.8166 405.535 39.3019C405.934 39.8101 406.52 40.032 407.198 40.032V39.032ZM406.004 37.376V29.566H405.004V37.376H406.004ZM405.504 30.066H410.212V29.066H405.504V30.066ZM410.712 29.566V23.472H409.712V29.566H410.712ZM410.212 22.972H405.504V23.972H410.212V22.972ZM406.004 23.472V15.024H405.004V23.472H406.004ZM405.504 14.524H397.474V15.524H405.504V14.524ZM396.974 15.024V23.472H397.974V15.024H396.974ZM397.474 22.972H394.196V23.972H397.474V22.972ZM393.696 23.472V29.566H394.696V23.472H393.696ZM394.196 30.066H397.474V29.066H394.196V30.066ZM396.974 29.566V37.97H397.974V29.566H396.974ZM396.974 37.97C396.974 40.7935 397.677 43.0673 399.146 44.7255L399.895 44.0625C398.635 42.6407 397.974 40.6318 397.974 37.97H396.974ZM399.146 44.7255C400.623 46.3925 402.669 47.204 405.218 47.204V46.204C402.898 46.204 401.146 45.4755 399.895 44.0625L399.146 44.7255ZM434.464 45.142L434.698 45.5838L434.699 45.5832L434.464 45.142ZM439.018 40.808L439.451 41.0576L439.716 40.598L439.242 40.3608L439.018 40.808ZM433.254 37.926L433.478 37.4788L433.14 37.3101L432.885 37.5881L433.254 37.926ZM430.922 39.796L430.702 39.347L430.698 39.3488L430.922 39.796ZM424.542 39.136L424.21 39.5098L424.216 39.5152L424.542 39.136ZM423.156 35.836V35.336H422.656V35.836H423.156ZM439.37 35.836V36.336H439.827L439.868 35.8813L439.37 35.836ZM439.436 34.868L438.938 34.8227L438.936 34.8453V34.868H439.436ZM437.962 28.312L437.528 28.5601L437.529 28.5616L437.962 28.312ZM433.804 24.242L433.56 24.6786L433.565 24.6809L433.804 24.242ZM421.154 24.352L420.915 23.913L420.913 23.9138L421.154 24.352ZM416.6 40.852L416.177 41.1182L416.178 41.1198L416.6 40.852ZM421.242 45.142L421.004 45.5817L421.008 45.5838L421.242 45.142ZM423.398 31.788L422.899 31.7534L422.862 32.288H423.398V31.788ZM424.586 29.324L424.902 29.7114L424.907 29.7075L424.586 29.324ZM431.582 31.788V32.288H432.17L432.075 31.7074L431.582 31.788ZM427.886 47.204C430.38 47.204 432.654 46.6667 434.698 45.5838L434.23 44.7002C432.343 45.7 430.232 46.204 427.886 46.204V47.204ZM434.699 45.5832C436.757 44.4859 438.346 42.977 439.451 41.0576L438.585 40.5584C437.578 42.3056 436.131 43.6861 434.229 44.7008L434.699 45.5832ZM439.242 40.3608L433.478 37.4788L433.03 38.3732L438.794 41.2552L439.242 40.3608ZM432.885 37.5881C432.104 38.4405 431.375 39.017 430.702 39.347L431.142 40.245C431.965 39.8417 432.79 39.1715 433.623 38.2639L432.885 37.5881ZM430.698 39.3488C430.047 39.6745 429.268 39.846 428.348 39.846V40.846C429.393 40.846 430.33 40.6508 431.146 40.2432L430.698 39.3488ZM428.348 39.846C426.833 39.846 425.692 39.4651 424.868 38.7568L424.216 39.5152C425.269 40.4203 426.665 40.846 428.348 40.846V39.846ZM424.874 38.7623C424.07 38.0474 423.656 37.0902 423.656 35.836H422.656C422.656 37.3391 423.166 38.5819 424.21 39.5097L424.874 38.7623ZM423.156 36.336H439.37V35.336H423.156V36.336ZM439.868 35.8813C439.912 35.4011 439.936 35.0558 439.936 34.868H438.936C438.936 35.0028 438.916 35.3029 438.872 35.7907L439.868 35.8813ZM439.934 34.9133C439.95 34.7345 439.958 34.5432 439.958 34.34H438.958C438.958 34.5181 438.951 34.6788 438.938 34.8227L439.934 34.9133ZM439.958 34.34C439.958 31.9773 439.442 29.8794 438.395 28.0623L437.529 28.5616C438.476 30.2059 438.958 32.1267 438.958 34.34H439.958ZM438.396 28.0639C437.353 26.2377 435.899 24.8151 434.043 23.8031L433.565 24.6809C435.258 25.6049 436.577 26.8956 437.528 28.5601L438.396 28.0639ZM434.048 23.8054C432.202 22.7748 430.062 22.268 427.644 22.268V23.268C429.919 23.268 431.886 23.7439 433.56 24.6786L434.048 23.8054ZM427.644 22.268C425.177 22.268 422.93 22.8137 420.915 23.9131L421.393 24.7909C423.25 23.7783 425.33 23.268 427.644 23.268V22.268ZM420.913 23.9138C418.919 25.0096 417.33 26.4982 416.154 28.3767L417.002 28.9073C418.084 27.1778 419.546 25.8064 421.395 24.7902L420.913 23.9138ZM416.154 28.3767C414.972 30.2646 414.384 32.3815 414.384 34.714H415.384C415.384 32.5585 415.925 30.6274 417.002 28.9073L416.154 28.3767ZM414.384 34.714C414.384 37.0758 414.98 39.2151 416.177 41.1182L417.023 40.5858C415.932 38.8516 415.384 36.8989 415.384 34.714H414.384ZM416.178 41.1198C417.369 42.9987 418.981 44.4867 421.004 45.5817L421.48 44.7023C419.601 43.6853 418.119 42.3133 417.022 40.5842L416.178 41.1198ZM421.008 45.5838C423.053 46.6673 425.349 47.204 427.886 47.204V46.204C425.495 46.204 423.362 45.6993 421.476 44.7002L421.008 45.5838ZM423.897 31.8226C423.962 30.883 424.306 30.198 424.902 29.7113L424.27 28.9367C423.429 29.6233 422.981 30.581 422.899 31.7534L423.897 31.8226ZM424.907 29.7075C425.513 29.2006 426.349 28.922 427.468 28.922V27.922C426.182 27.922 425.097 28.2447 424.265 28.9405L424.907 29.7075ZM427.468 28.922C428.58 28.922 429.392 29.1841 429.962 29.6505C430.529 30.1145 430.919 30.8319 431.089 31.8686L432.075 31.7074C431.878 30.5001 431.399 29.5345 430.595 28.8765C429.794 28.2209 428.732 27.922 427.468 27.922V28.922ZM431.582 31.288H423.398V32.288H431.582V31.288ZM445.408 46H444.908V46.5H445.408V46ZM453.438 46V46.5H453.938V46H453.438ZM454.12 32.03L453.702 31.7547L454.12 32.03ZM455.902 30.358L455.654 29.9233L455.651 29.9255L455.902 30.358ZM460.214 30.072L460.055 30.5464L460.064 30.5492L460.214 30.072ZM462.062 30.952L461.776 31.3627L462.252 31.6933L462.51 31.1739L462.062 30.952ZM465.406 24.198L465.854 24.4199L466.043 24.0367L465.694 23.7898L465.406 24.198ZM463.14 23.164L463.279 22.6838L463.14 23.164ZM456.628 23.802L456.868 24.2406L456.872 24.2383L456.628 23.802ZM453.438 26.662H452.938V28.2014L453.842 26.9558L453.438 26.662ZM453.438 23.472H453.938V22.972H453.438V23.472ZM445.408 23.472V22.972H444.908V23.472H445.408ZM445.408 46.5H453.438V45.5H445.408V46.5ZM453.938 46V34.23H452.938V46H453.938ZM453.938 34.23C453.938 33.5568 454.133 32.9183 454.537 32.3053L453.702 31.7547C453.197 32.5204 452.938 33.3486 452.938 34.23H453.938ZM454.537 32.3053C454.948 31.6823 455.484 31.1781 456.152 30.7905L455.651 29.9255C454.852 30.3886 454.201 30.999 453.702 31.7547L454.537 32.3053ZM456.149 30.7926C456.825 30.408 457.525 30.22 458.256 30.22V29.22C457.343 29.22 456.474 29.4573 455.654 29.9234L456.149 30.7926ZM458.256 30.22C458.792 30.22 459.391 30.3248 460.055 30.5463L460.372 29.5977C459.628 29.3498 458.922 29.22 458.256 29.22V30.22ZM460.064 30.5492C460.727 30.7563 461.296 31.0289 461.776 31.3627L462.347 30.5413C461.771 30.1418 461.108 29.8277 460.363 29.5948L460.064 30.5492ZM462.51 31.1739L465.854 24.4199L464.957 23.9761L461.613 30.7301L462.51 31.1739ZM465.694 23.7898C465.037 23.3246 464.227 22.9591 463.279 22.6838L463 23.6442C463.871 23.8969 464.572 24.2207 465.117 24.6062L465.694 23.7898ZM463.279 22.6838C462.33 22.4084 461.41 22.268 460.522 22.268V23.268C461.305 23.268 462.13 23.3916 463 23.6442L463.279 22.6838ZM460.522 22.268C459.069 22.268 457.687 22.6361 456.383 23.3657L456.872 24.2383C458.032 23.5892 459.246 23.268 460.522 23.268V22.268ZM456.387 23.3635C455.085 24.0765 453.967 25.0815 453.033 26.3682L453.842 26.9558C454.697 25.7785 455.706 24.8768 456.868 24.2405L456.387 23.3635ZM453.938 26.662V23.472H452.938V26.662H453.938ZM453.438 22.972H445.408V23.972H453.438V22.972ZM444.908 23.472V46H445.908V23.472H444.908ZM468.793 46H468.293V46.5H468.793V46ZM476.823 46V46.5H477.323V46H476.823ZM477.967 30.182L477.613 29.8284L477.967 30.182ZM484.105 30.204L483.741 30.5473L483.745 30.5507L484.105 30.204ZM485.227 46H484.727V46.5H485.227V46ZM493.257 46V46.5H493.757V46H493.257ZM492.091 27.08L491.656 27.326L491.659 27.3316L492.091 27.08ZM488.923 23.912L488.675 24.3461L488.677 24.3473L488.923 23.912ZM480.211 23.582L480.021 23.1195L480.019 23.1203L480.211 23.582ZM476.823 25.76H476.323V26.9279L477.168 26.1218L476.823 25.76ZM476.823 23.472H477.323V22.972H476.823V23.472ZM468.793 23.472V22.972H468.293V23.472H468.793ZM468.793 46.5H476.823V45.5H468.793V46.5ZM477.323 46V33.152H476.323V46H477.323ZM477.323 33.152C477.323 32.0487 477.664 31.1921 478.32 30.5356L477.613 29.8284C476.745 30.6973 476.323 31.8207 476.323 33.152H477.323ZM478.32 30.5356C478.988 29.8682 479.886 29.516 481.069 29.516V28.516C479.67 28.516 478.501 28.9411 477.613 29.8284L478.32 30.5356ZM481.069 29.516C482.233 29.516 483.104 29.8726 483.741 30.5473L484.468 29.8607C483.61 28.9514 482.457 28.516 481.069 28.516V29.516ZM483.745 30.5507C484.382 31.2129 484.727 32.1399 484.727 33.394H485.727C485.727 31.9494 485.324 30.7497 484.465 29.8573L483.745 30.5507ZM484.727 33.394V46H485.727V33.394H484.727ZM485.227 46.5H493.257V45.5H485.227V46.5ZM493.757 46V31.678H492.757V46H493.757ZM493.757 31.678C493.757 29.8698 493.35 28.2483 492.523 26.8284L491.659 27.3316C492.386 28.581 492.757 30.0248 492.757 31.678H493.757ZM492.526 26.834C491.719 25.4055 490.597 24.2841 489.169 23.4767L488.677 24.3473C489.947 25.0652 490.938 26.0558 491.656 27.326L492.526 26.834ZM489.171 23.4779C487.752 22.6672 486.14 22.268 484.347 22.268V23.268C485.986 23.268 487.424 23.6315 488.675 24.3461L489.171 23.4779ZM484.347 22.268C482.845 22.268 481.401 22.5519 480.021 23.1196L480.401 24.0444C481.66 23.5268 482.974 23.268 484.347 23.268V22.268ZM480.019 23.1203C478.661 23.6848 477.479 24.4434 476.478 25.3982L477.168 26.1218C478.074 25.2579 479.15 24.5645 480.403 24.0437L480.019 23.1203ZM477.323 25.76V23.472H476.323V25.76H477.323ZM476.823 22.972H468.793V23.972H476.823V22.972ZM468.293 23.472V46H469.293V23.472H468.293ZM514.728 44.702L514.432 44.2989L514.728 44.702ZM516.73 35.726L516.299 35.9799L516.301 35.9832L516.73 35.726ZM514.75 33.746L515.006 33.3166L514.75 33.746ZM511.912 32.448L511.744 32.9189L511.748 32.9203L511.912 32.448ZM509.866 31.7L509.68 32.1644L509.692 32.1685L509.866 31.7ZM507.952 30.732L507.675 31.1481L507.68 31.1515L507.952 30.732ZM507.754 28.576L507.484 28.1554L507.477 28.16L507.754 28.576ZM514.508 29.72L514.286 30.1678L514.735 30.3907L514.956 29.9414L514.508 29.72ZM517.104 24.462L517.552 24.6834L517.802 24.1784L517.271 23.9906L517.104 24.462ZM504.234 23.78L504.43 24.2401L504.434 24.2384L504.234 23.78ZM500.758 26.398L501.158 26.698L500.758 26.398ZM500.252 33.13L499.836 33.4074L499.84 33.4129L500.252 33.13ZM502.232 34.978L502.489 34.5493L502.489 34.5493L502.232 34.978ZM504.806 36.298L504.607 36.7564L504.612 36.7587L504.806 36.298ZM508.04 37.728L507.821 38.1773L507.829 38.1811L508.04 37.728ZM501.176 38.278L501.492 37.8905L501.043 37.5239L500.746 38.0225L501.176 38.278ZM497.92 43.756L497.49 43.5005L497.281 43.8521L497.585 44.1266L497.92 43.756ZM507.006 47.204C510.394 47.204 513.087 46.5263 515.024 45.1051L514.432 44.2989C512.732 45.547 510.277 46.204 507.006 46.204V47.204ZM515.024 45.1051C516.987 43.6647 517.956 41.5847 517.956 38.938H516.956C516.956 41.3073 516.107 43.07 514.432 44.2989L515.024 45.1051ZM517.956 38.938C517.956 37.5487 517.705 36.3791 517.159 35.4688L516.301 35.9832C516.723 36.6863 516.956 37.658 516.956 38.938H517.956ZM517.161 35.4722C516.633 34.577 515.913 33.8573 515.006 33.3166L514.494 34.1754C515.26 34.6321 515.859 35.2323 516.299 35.9798L517.161 35.4722ZM515.006 33.3166C514.137 32.7982 513.16 32.3519 512.076 31.9757L511.748 32.9203C512.777 33.2775 513.691 33.6965 514.494 34.1754L515.006 33.3166ZM512.08 31.9771C511.467 31.758 510.787 31.5095 510.041 31.2315L509.692 32.1685C510.441 32.4478 511.125 32.698 511.744 32.9189L512.08 31.9771ZM510.052 31.2358C509.342 30.952 508.734 30.6435 508.224 30.3125L507.68 31.1515C508.255 31.5245 508.923 31.8614 509.68 32.1642L510.052 31.2358ZM508.23 30.316C507.768 30.0083 507.66 29.7525 507.66 29.566H506.66C506.66 30.2301 507.08 30.7517 507.675 31.148L508.23 30.316ZM507.66 29.566C507.66 29.3725 507.742 29.1848 508.032 28.992L507.477 28.16C506.974 28.4952 506.66 28.9675 506.66 29.566H507.66ZM508.025 28.9966C508.328 28.8017 508.773 28.68 509.404 28.68V27.68C508.657 27.68 508.002 27.8223 507.484 28.1554L508.025 28.9966ZM509.404 28.68C510.625 28.68 512.243 29.1539 514.286 30.1678L514.731 29.2722C512.637 28.2328 510.853 27.68 509.404 27.68V28.68ZM514.956 29.9414L517.552 24.6834L516.656 24.2406L514.06 29.4986L514.956 29.9414ZM517.271 23.9906C514.136 22.8816 511.487 22.312 509.338 22.312V23.312C511.326 23.312 513.854 23.8424 516.937 24.9334L517.271 23.9906ZM509.338 22.312C507.361 22.312 505.59 22.6441 504.034 23.3216L504.434 24.2384C505.841 23.6252 507.473 23.312 509.338 23.312V22.312ZM504.038 23.32C502.489 23.9797 501.255 24.9026 500.358 26.098L501.158 26.698C501.934 25.664 503.017 24.8417 504.43 24.24L504.038 23.32ZM500.358 26.098C499.454 27.304 499.004 28.7012 499.004 30.27H500.004C500.004 28.9054 500.391 27.7214 501.158 26.698L500.358 26.098ZM499.004 30.27C499.004 31.4991 499.269 32.5565 499.836 33.4073L500.668 32.8526C500.238 32.2075 500.004 31.3582 500.004 30.27H499.004ZM499.84 33.4129C500.395 34.2223 501.109 34.8872 501.975 35.4067L502.489 34.5493C501.742 34.1008 501.136 33.5337 500.664 32.8471L499.84 33.4129ZM501.975 35.4067C502.801 35.9025 503.678 36.3522 504.607 36.7564L505.006 35.8396C504.115 35.4518 503.277 35.0215 502.489 34.5493L501.975 35.4067ZM504.612 36.7587C506.107 37.389 507.174 37.8611 507.821 38.1772L508.26 37.2788C507.586 36.9496 506.497 36.4683 505 35.8373L504.612 36.7587ZM507.829 38.1811C508.093 38.3046 508.262 38.4517 508.366 38.6089C508.469 38.7645 508.53 38.9621 508.53 39.224H509.53C509.53 38.7966 509.427 38.4002 509.2 38.0571C508.974 37.7157 508.647 37.4594 508.252 37.2749L507.829 38.1811ZM508.53 39.224C508.53 39.6397 508.405 39.8733 508.219 40.0199C508.012 40.1841 507.643 40.308 507.028 40.308V41.308C507.748 41.308 508.38 41.1679 508.84 40.8041C509.322 40.4227 509.53 39.8643 509.53 39.224H508.53ZM507.028 40.308C505.352 40.308 503.51 39.5366 501.492 37.8905L500.86 38.6655C502.978 40.3927 505.037 41.308 507.028 41.308V40.308ZM500.746 38.0225L497.49 43.5005L498.35 44.0115L501.606 38.5335L500.746 38.0225ZM497.585 44.1266C499.874 46.1994 503.037 47.204 507.006 47.204V46.204C503.202 46.204 500.308 45.2433 498.256 43.3853L497.585 44.1266ZM523.642 46H523.142V46.5H523.642V46ZM531.672 46V46.5H532.172V46H531.672ZM532.816 30.16L532.462 29.8064L532.459 29.8098L532.816 30.16ZM540.076 46H539.576V46.5H540.076V46ZM548.106 46V46.5H548.606V46H548.106ZM546.94 27.08L546.504 27.326L546.508 27.3316L546.94 27.08ZM543.772 23.912L543.524 24.3461L543.526 24.3473L543.772 23.912ZM535.06 23.582L534.87 23.1195L534.868 23.1203L535.06 23.582ZM531.672 25.76H531.172V26.9279L532.017 26.1218L531.672 25.76ZM531.672 8.16H532.172V7.66H531.672V8.16ZM523.642 8.16V7.66H523.142V8.16H523.642ZM523.642 46.5H531.672V45.5H523.642V46.5ZM532.172 46V33.152H531.172V46H532.172ZM532.172 33.152C532.172 32.0488 532.513 31.1827 533.173 30.5102L532.459 29.8098C531.593 30.692 531.172 31.8205 531.172 33.152H532.172ZM533.169 30.5136C533.836 29.8462 534.735 29.494 535.918 29.494V28.494C534.519 28.494 533.349 28.9191 532.462 29.8064L533.169 30.5136ZM535.918 29.494C537.082 29.494 537.953 29.8506 538.59 30.5253L539.317 29.8387C538.458 28.9294 537.306 28.494 535.918 28.494V29.494ZM538.59 30.5253C539.231 31.2036 539.576 32.1403 539.576 33.394H540.576C540.576 31.949 540.173 30.7444 539.317 29.8387L538.59 30.5253ZM539.576 33.394V46H540.576V33.394H539.576ZM540.076 46.5H548.106V45.5H540.076V46.5ZM548.606 46V31.678H547.606V46H548.606ZM548.606 31.678C548.606 29.8698 548.199 28.2483 547.372 26.8284L546.508 27.3316C547.235 28.581 547.606 30.0248 547.606 31.678H548.606ZM547.375 26.834C546.568 25.4055 545.446 24.2841 544.018 23.4767L543.526 24.3473C544.796 25.0652 545.786 26.0558 546.504 27.326L547.375 26.834ZM544.02 23.4779C542.601 22.6672 540.988 22.268 539.196 22.268V23.268C540.835 23.268 542.273 23.6315 543.524 24.3461L544.02 23.4779ZM539.196 22.268C537.694 22.268 536.25 22.5519 534.87 23.1196L535.25 24.0444C536.509 23.5268 537.823 23.268 539.196 23.268V22.268ZM534.868 23.1203C533.51 23.6848 532.328 24.4434 531.327 25.3982L532.017 26.1218C532.922 25.2579 533.999 24.5645 535.252 24.0437L534.868 23.1203ZM532.172 25.76V8.16H531.172V25.76H532.172ZM531.672 7.66H523.642V8.66H531.672V7.66ZM523.142 8.16V46H524.142V8.16H523.142ZM572.168 43.668H572.668V42.5074L571.824 43.3046L572.168 43.668ZM572.168 46H571.668V46.5H572.168V46ZM580.198 46V46.5H580.698V46H580.198ZM580.198 23.472H580.698V22.972H580.198V23.472ZM572.168 23.472V22.972H571.668V23.472H572.168ZM572.168 25.54L571.82 25.8994L572.668 26.7192V25.54H572.168ZM568.912 23.516L568.73 23.9817L568.734 23.9835L568.912 23.516ZM559.056 24.352L559.32 24.7764L559.321 24.7758L559.056 24.352ZM555.118 28.62L555.56 28.8536L555.118 28.62ZM555.184 40.896L554.745 41.1364L554.746 41.1379L555.184 40.896ZM559.21 45.164L558.947 45.5895L558.95 45.5911L559.21 45.164ZM563.61 38.454L563.254 38.8049L563.256 38.8076L563.61 38.454ZM563.61 31.04L563.254 30.6891L563.61 31.04ZM570.892 31.04L570.53 31.3854L570.536 31.3908L570.892 31.04ZM570.892 38.454L570.533 38.1058L570.533 38.1059L570.892 38.454ZM564.842 47.204C567.722 47.204 570.285 46.136 572.511 44.0314L571.824 43.3046C569.768 45.248 567.447 46.204 564.842 46.204V47.204ZM571.668 43.668V46H572.668V43.668H571.668ZM572.168 46.5H580.198V45.5H572.168V46.5ZM580.698 46V23.472H579.698V46H580.698ZM580.198 22.972H572.168V23.972H580.198V22.972ZM571.668 23.472V25.54H572.668V23.472H571.668ZM572.515 25.1806C571.567 24.2637 570.422 23.5543 569.089 23.0485L568.734 23.9835C569.953 24.4457 570.979 25.0857 571.82 25.8994L572.515 25.1806ZM569.094 23.0503C567.757 22.5279 566.338 22.268 564.842 22.268V23.268C566.22 23.268 567.515 23.5068 568.73 23.9817L569.094 23.0503ZM564.842 22.268C562.586 22.268 560.564 22.8179 558.79 23.9282L559.321 24.7758C560.921 23.7741 562.756 23.268 564.842 23.268V22.268ZM558.791 23.9276C557.042 25.0174 555.669 26.5071 554.676 28.3864L555.56 28.8536C556.473 27.1249 557.726 25.7693 559.32 24.7764L558.791 23.9276ZM554.676 28.3864C553.681 30.2694 553.188 32.3749 553.188 34.692H554.188C554.188 32.5211 554.648 30.5786 555.56 28.8536L554.676 28.3864ZM553.188 34.692C553.188 37.0833 553.703 39.2357 554.745 41.1364L555.622 40.6556C554.67 38.9189 554.188 36.9353 554.188 34.692H553.188ZM554.746 41.1379C555.783 43.014 557.184 44.5011 558.947 45.5894L559.472 44.7386C557.862 43.7442 556.579 42.386 555.621 40.6541L554.746 41.1379ZM558.95 45.5911C560.719 46.6678 562.687 47.204 564.842 47.204V46.204C562.861 46.204 561.074 45.7136 559.47 44.7369L558.95 45.5911ZM567.262 39.406C565.917 39.406 564.83 38.9675 563.963 38.1004L563.256 38.8076C564.325 39.8765 565.673 40.406 567.262 40.406V39.406ZM563.966 38.1031C563.098 37.2223 562.658 36.1129 562.658 34.736H561.658C561.658 36.3511 562.185 37.7203 563.254 38.8049L563.966 38.1031ZM562.658 34.736C562.658 33.3753 563.097 32.2726 563.966 31.3909L563.254 30.6891C562.186 31.7727 561.658 33.1341 561.658 34.736H562.658ZM563.966 31.3909C564.834 30.5101 565.92 30.066 567.262 30.066V29.066C565.671 29.066 564.322 29.6045 563.254 30.6891L563.966 31.3909ZM567.262 30.066C568.62 30.066 569.695 30.5109 570.53 31.3854L571.253 30.6946C570.211 29.6038 568.866 29.066 567.262 29.066V30.066ZM570.536 31.3908C571.387 32.2554 571.822 33.3567 571.822 34.736H572.822C572.822 33.1233 572.303 31.7606 571.248 30.6892L570.536 31.3908ZM571.822 34.736C571.822 36.1152 571.387 37.2255 570.533 38.1058L571.251 38.8022C572.303 37.7171 572.822 36.3488 572.822 34.736H571.822ZM570.533 38.1059C569.698 38.9667 568.623 39.406 567.262 39.406V40.406C568.864 40.406 570.208 39.8773 571.251 38.8021L570.533 38.1059ZM588.029 46H587.529V46.5H588.029V46ZM596.059 46V46.5H596.559V46H596.059ZM596.059 8.16H596.559V7.66H596.059V8.16ZM588.029 8.16V7.66H587.529V8.16H588.029ZM588.029 46.5H596.059V45.5H588.029V46.5ZM596.559 46V8.16H595.559V46H596.559ZM596.059 7.66H588.029V8.66H596.059V7.66ZM587.529 8.16V46H588.529V8.16H587.529ZM620.571 43.668H621.071V42.5074L620.228 43.3046L620.571 43.668ZM620.571 46H620.071V46.5H620.571V46ZM628.601 46V46.5H629.101V46H628.601ZM628.601 23.472H629.101V22.972H628.601V23.472ZM620.571 23.472V22.972H620.071V23.472H620.571ZM620.571 25.54L620.224 25.8994L621.071 26.7192V25.54H620.571ZM617.315 23.516L617.133 23.9817L617.138 23.9835L617.315 23.516ZM607.459 24.352L607.724 24.7764L607.725 24.7758L607.459 24.352ZM603.521 28.62L603.963 28.8536L603.521 28.62ZM603.587 40.896L603.149 41.1364L603.15 41.1379L603.587 40.896ZM607.613 45.164L607.351 45.5895L607.353 45.5911L607.613 45.164ZM612.013 38.454L611.657 38.8049L611.66 38.8076L612.013 38.454ZM612.013 31.04L611.657 30.6891L612.013 31.04ZM619.295 31.04L618.934 31.3854L618.939 31.3908L619.295 31.04ZM619.295 38.454L618.936 38.1058L618.936 38.1059L619.295 38.454ZM613.245 47.204C616.126 47.204 618.688 46.136 620.915 44.0314L620.228 43.3046C618.172 45.248 615.85 46.204 613.245 46.204V47.204ZM620.071 43.668V46H621.071V43.668H620.071ZM620.571 46.5H628.601V45.5H620.571V46.5ZM629.101 46V23.472H628.101V46H629.101ZM628.601 22.972H620.571V23.972H628.601V22.972ZM620.071 23.472V25.54H621.071V23.472H620.071ZM620.919 25.1806C619.971 24.2637 618.826 23.5543 617.493 23.0485L617.138 23.9835C618.357 24.4457 619.382 25.0857 620.224 25.8994L620.919 25.1806ZM617.497 23.0503C616.16 22.5279 614.742 22.268 613.245 22.268V23.268C614.623 23.268 615.918 23.5068 617.133 23.9817L617.497 23.0503ZM613.245 22.268C610.99 22.268 608.967 22.8179 607.194 23.9282L607.725 24.7758C609.325 23.7741 611.16 23.268 613.245 23.268V22.268ZM607.195 23.9276C605.445 25.0174 604.072 26.5071 603.079 28.3864L603.963 28.8536C604.877 27.1249 606.129 25.7693 607.724 24.7764L607.195 23.9276ZM603.079 28.3864C602.084 30.2694 601.591 32.3749 601.591 34.692H602.591C602.591 32.5211 603.052 30.5786 603.963 28.8536L603.079 28.3864ZM601.591 34.692C601.591 37.0833 602.107 39.2357 603.149 41.1364L604.026 40.6556C603.073 38.9189 602.591 36.9353 602.591 34.692H601.591ZM603.15 41.1379C604.187 43.014 605.588 44.5011 607.351 45.5894L607.876 44.7386C606.265 43.7442 604.982 42.386 604.025 40.6541L603.15 41.1379ZM607.353 45.5911C609.122 46.6678 611.09 47.204 613.245 47.204V46.204C611.264 46.204 609.478 45.7136 607.873 44.7369L607.353 45.5911ZM615.665 39.406C614.321 39.406 613.234 38.9675 612.367 38.1004L611.66 38.8076C612.729 39.8765 614.076 40.406 615.665 40.406V39.406ZM612.369 38.1031C611.502 37.2223 611.061 36.1129 611.061 34.736H610.061C610.061 36.3511 610.589 37.7203 611.657 38.8049L612.369 38.1031ZM611.061 34.736C611.061 33.3753 611.501 32.2726 612.369 31.3909L611.657 30.6891C610.59 31.7727 610.061 33.1341 610.061 34.736H611.061ZM612.369 31.3909C613.237 30.5101 614.323 30.066 615.665 30.066V29.066C614.074 29.066 612.725 29.6045 611.657 30.6891L612.369 31.3909ZM615.665 30.066C617.024 30.066 618.098 30.5109 618.934 31.3854L619.657 30.6946C618.615 29.6038 617.269 29.066 615.665 29.066V30.066ZM618.939 31.3908C619.79 32.2554 620.225 33.3567 620.225 34.736H621.225C621.225 33.1233 620.707 31.7606 619.651 30.6892L618.939 31.3908ZM620.225 34.736C620.225 36.1152 619.79 37.2255 618.936 38.1058L619.654 38.8022C620.707 37.7171 621.225 36.3488 621.225 34.736H620.225ZM618.936 38.1059C618.102 38.9667 617.026 39.406 615.665 39.406V40.406C617.267 40.406 618.612 39.8773 619.654 38.8021L618.936 38.1059Z" fill="white"/>
</g>
<defs>
<filter id="filter0_d" x="0.0739746" y="7" width="629.027" height="43.204" filterUnits="userSpaceOnUse" color-interpolation-filters="sRGB">
<feFlood flood-opacity="0" result="BackgroundImageFix"/>
<feColorMatrix in="SourceAlpha" type="matrix" values="0 0 0 0 0 0 0 0 0 0 0 0 0 0 0 0 0 0 127 0"/>
<feOffset dx="-3" dy="3"/>
<feColorMatrix type="matrix" values="0 0 0 0 1 0 0 0 0 1 0 0 0 0 1 0 0 0 1 0"/>
<feBlend mode="normal" in2="BackgroundImageFix" result="effect1_dropShadow"/>
<feBlend mode="normal" in="SourceGraphic" in2="effect1_dropShadow" result="shape"/>
</filter>
</defs>
</svg>
